<?xml version="1.0" encoding="UTF-8"?>
<svg xmlns="http://www.w3.org/2000/svg" xmlns:xlink="http://www.w3.org/1999/xlink" width="1000px" height="1000px" viewBox="0 0 1000 1000" version="1.1">
<g id="surface1">
<path style="fill:none;stroke-width:9;stroke-linecap:butt;stroke-linejoin:miter;stroke:rgb(43.529412%,43.137255%,43.529412%);stroke-opacity:1;stroke-miterlimit:4;" d="M 327.141556 186.868 C 327.141556 265.256486 263.594486 328.803556 185.206 328.803556 C 106.817514 328.803556 43.270444 265.256486 43.270444 186.868 C 43.270444 108.479514 106.817514 44.932444 185.206 44.932444 C 263.594486 44.932444 327.141556 108.479514 327.141556 186.868 Z M 327.141556 186.868 " transform="matrix(3.414484,0,0,3.414484,-132.382969,-138.057841)"/>
<path style=" stroke:none;fill-rule:nonzero;fill:rgb(43.529412%,43.137255%,43.529412%);fill-opacity:1;" d="M 203.675781 500.039062 C 203.675781 336.371094 336.347656 203.703125 500.015625 203.699219 C 663.675781 203.703125 796.339844 336.367188 796.347656 500.039062 C 796.339844 663.695312 663.675781 796.359375 500.015625 796.371094 C 336.347656 796.359375 203.675781 663.695312 203.675781 500.039062 Z M 302.296875 302.324219 C 251.683594 352.953125 220.410156 422.796875 220.40625 500.039062 C 220.410156 577.273438 251.683594 647.125 302.296875 697.746094 C 352.925781 748.351562 422.769531 779.632812 500.015625 779.640625 C 577.246094 779.632812 647.09375 748.351562 697.71875 697.746094 C 748.328125 647.125 779.605469 577.273438 779.613281 500.039062 C 779.605469 422.796875 748.328125 352.953125 697.71875 302.324219 C 647.09375 251.710938 577.246094 220.4375 500.015625 220.433594 C 422.769531 220.4375 352.925781 251.710938 302.296875 302.324219 Z M 302.296875 302.324219 "/>
<path style=" stroke:none;fill-rule:nonzero;fill:rgb(0%,40%,67.843137%);fill-opacity:1;" d="M 203.800781 500.019531 L 500.160156 500.019531 L 500.160156 203.699219 L 500.140625 203.699219 C 336.476562 203.703125 203.8125 336.359375 203.800781 500.019531 Z M 203.800781 500.019531 "/>
<path style=" stroke:none;fill-rule:nonzero;fill:rgb(0%,40%,67.843137%);fill-opacity:1;" d="M 796.285156 499.871094 L 499.925781 499.871094 L 499.925781 796.386719 L 499.945312 796.386719 C 663.605469 796.378906 796.273438 663.53125 796.285156 499.871094 Z M 796.285156 499.871094 "/>
<path style=" stroke:none;fill-rule:nonzero;fill:rgb(43.529412%,43.137255%,43.529412%);fill-opacity:1;" d="M 843.386719 225.996094 L 777.347656 269.683594 L 808.597656 208.902344 C 800.476562 199.304688 788.175781 189.214844 788.175781 189.214844 L 727.890625 219.484375 L 772.128906 154.617188 C 764.78125 148.453125 756.285156 143.324219 748.132812 137.140625 L 686.214844 233.71875 C 686.214844 233.71875 697.941406 240.617188 712.289062 253.863281 L 776.367188 220.714844 L 742.804688 283.785156 C 750.351562 291.757812 757.074219 301.417969 764.066406 310.039062 L 861.597656 249.714844 C 861.59375 249.714844 855.625 240.332031 843.386719 225.996094 Z M 506.875 160.144531 L 536.589844 94.480469 L 539.277344 177.722656 C 551.246094 178.257812 568.902344 182.761719 568.902344 182.761719 L 563.566406 64.855469 C 541.15625 61.597656 523.277344 60.707031 523.277344 60.707031 L 494.644531 131.929688 L 466.6875 61.28125 C 466.6875 61.28125 448.222656 63.078125 425.808594 66.332031 L 420.445312 185.148438 C 420.445312 185.148438 438.136719 180.027344 450.105469 179.5 L 452.632812 94.980469 L 482.421875 160.140625 L 506.875 160.140625 Z M 255.371094 198.746094 L 255.375 198.628906 C 258.316406 187.832031 254.945312 176.300781 246.660156 168.789062 C 234.601562 157.789062 216.640625 157.417969 197.476562 176.546875 C 197.476562 176.546875 162.152344 211.96875 138.21875 246.660156 L 224.164062 325.039062 L 288.9375 252.421875 C 303.027344 236.855469 303.578125 214.808594 290.6875 203.046875 C 281.050781 194.269531 267.078125 193.023438 255.371094 198.746094 Z M 172.46875 240.875 C 202.914062 203.160156 215.105469 192.851562 215.105469 192.851562 C 223.089844 185.941406 228.992188 185.339844 233.78125 189.707031 C 238.578125 194.070312 237.972656 202.558594 232.441406 208.65625 L 189.410156 256.316406 Z M 269.222656 237.707031 L 224.027344 287.882812 L 207.039062 272.394531 L 252.238281 222.222656 C 257.761719 216.121094 266.054688 214.632812 270.746094 218.910156 C 275.4375 223.1875 274.75 231.609375 269.222656 237.707031 Z M 269.222656 237.707031 "/>
</g>
</svg>
