<?xml version="1.0" encoding="UTF-8"?>
<svg xmlns="http://www.w3.org/2000/svg" xmlns:xlink="http://www.w3.org/1999/xlink" width="1000px" height="1000px" viewBox="0 0 1000 1000" version="1.1">
<g id="surface1">
<rect x="0" y="0" width="1000" height="1000" style="fill:rgb(100%,100%,100%);fill-opacity:1;stroke:none;"/>
<path style=" stroke:none;fill-rule:evenodd;fill:rgb(80%,13.333333%,16.078431%);fill-opacity:1;" d="M 783.421875 669.28125 L 783.421875 788.269531 L 739.625 788.269531 L 739.625 669.28125 Z M 642.691406 695.421875 C 666.4375 695.421875 685.902344 709.960938 685.902344 727.796875 C 685.902344 745.703125 666.4375 760.242188 642.691406 760.242188 C 618.949219 760.242188 599.488281 745.703125 599.488281 727.796875 C 599.488281 709.960938 618.949219 695.421875 642.691406 695.421875 Z M 654.242188 669.28125 L 618.363281 628.796875 L 671.886719 628.796875 L 721.191406 695.421875 C 725.996094 702.234375 729.628906 713.851562 730.144531 725.527344 C 731.90625 761.53125 690.769531 791.1875 642.691406 791.1875 C 594.617188 791.1875 555.242188 761.667969 555.242188 725.527344 C 555.234375 689.328125 590.527344 661.039062 654.242188 669.28125 Z M 448.453125 735.914062 C 448.453125 752.066406 463.4375 760.242188 475.761719 760.242188 C 488.089844 760.242188 504.507812 751.15625 504.507812 735.914062 L 504.507812 669.28125 L 545.960938 669.28125 L 545.960938 735.914062 C 545.960938 782.101562 505.089844 791.378906 475.761719 791.378906 C 446.503906 791.378906 404.785156 782.101562 404.785156 735.914062 L 404.785156 669.28125 L 448.453125 669.28125 Z M 317 628.796875 L 417.625 788.265625 L 367.40625 788.265625 L 349.695312 760.242188 L 252.386719 760.242188 L 234.019531 788.265625 L 182.769531 788.265625 L 276.453125 644.105469 L 262.253906 628.796875 Z M 331.796875 731.5625 L 270.875 731.5625 L 301.757812 684.132812 Z M 331.796875 731.5625 "/>
<path style=" stroke:none;fill-rule:evenodd;fill:rgb(100%,100%,100%);fill-opacity:1;" d="M 778.09375 506.433594 C 790.417969 507.410156 801.96875 506.167969 814.035156 503.382812 C 820.867188 501.457031 827.546875 499.027344 834.019531 496.113281 C 840.261719 492.949219 846.246094 489.304688 851.925781 485.214844 C 857.421875 480.917969 862.585938 476.210938 867.371094 471.132812 C 871.949219 465.871094 876.132812 460.277344 879.890625 454.398438 C 884.429688 446.671875 887.867188 438.890625 890.792969 430.394531 C 892.738281 423.324219 894.230469 416.449219 895.140625 409.242188 C 895.53125 403.605469 895.660156 398.144531 895.53125 392.570312 C 894.882812 383.292969 893.257812 374.796875 890.792969 365.847656 C 889.039062 360.839844 887.085938 355.90625 884.949219 351.050781 C 880.085938 341.445312 874.378906 333.207031 867.371094 325.03125 C 862.566406 319.996094 857.402344 315.3125 851.925781 311.015625 C 844.828125 305.875 837.21875 301.480469 829.21875 297.90625 C 822.59375 295.292969 815.785156 293.171875 808.851562 291.550781 C 799.023438 289.808594 789.042969 289.070312 779.066406 289.34375 C 762.328125 290.703125 745.523438 295.828125 731.378906 305.042969 C 730.410156 305.753906 729.3125 306.664062 728.335938 307.375 C 739.496094 324.183594 746.886719 343.769531 751.363281 363.296875 C 752.660156 369.589844 753.699219 375.894531 754.347656 382.246094 C 756.484375 402.414062 754.476562 422.855469 748.894531 442.320312 C 744.160156 458.347656 736.828125 474.5625 727.164062 488.253906 C 741.824219 498.78125 760.1875 505.128906 778.09375 506.433594 Z M 697.839844 362.011719 C 696 356.988281 693.835938 352.089844 691.355469 347.351562 C 685.515625 358.378906 681.300781 370.121094 679.414062 382.515625 C 678.382812 389.582031 677.925781 396.722656 678.382812 403.925781 C 679.351562 419.300781 684.289062 434.734375 691.617188 448.300781 C 696.285156 438.898438 699.792969 429.609375 701.929688 419.300781 C 705.5 401.652344 704.394531 382.964844 699.066406 365.707031 Z M 612.589844 505.402344 C 626.277344 503.128906 638.609375 498.515625 650.738281 491.898438 L 655.402344 489.109375 C 652.808594 485.605469 650.539062 481.582031 648.394531 477.816406 C 641.09375 464.902344 635.550781 451.070312 631.914062 436.6875 C 629.847656 428.304688 628.394531 419.785156 627.566406 411.195312 C 626.527344 398.222656 627.050781 385.171875 629.128906 372.324219 C 633.085938 349.039062 641.71875 327.175781 655.003906 307.710938 C 649.363281 304.011719 643.523438 300.570312 637.296875 297.976562 C 626.726562 293.5625 615.566406 290.578125 604.085938 289.734375 C 580.203125 287.917969 556.855469 293.433594 536.742188 306.414062 C 551.011719 327.886719 559.835938 353.058594 563.40625 378.554688 C 564.183594 386.277344 564.703125 393.605469 564.640625 401.386719 C 564.253906 416.640625 561.660156 431.5 557.113281 446.09375 C 552.246094 461.597656 545.046875 475.8125 536.226562 489.433594 C 558.546875 504.097656 586.179688 509.550781 612.589844 505.402344 Z M 507.285156 361.042969 C 505.402344 355.839844 503.082031 350.804688 500.347656 345.992188 C 496.203125 353.972656 492.628906 362.210938 490.292969 370.84375 C 488.019531 379.722656 486.601562 388.878906 486.601562 398.089844 C 486.660156 403.929688 487.179688 409.835938 488.285156 415.539062 C 490.722656 427.378906 494.898438 438.792969 500.679688 449.40625 C 504.304688 442.332031 507.425781 434.9375 509.5625 427.28125 C 511.507812 419.554688 512.9375 412.097656 513.394531 404.183594 C 513.847656 393.410156 513.066406 382.644531 510.597656 372.195312 C 509.757812 368.496094 508.523438 364.609375 507.285156 361.042969 Z M 440.214844 359.226562 C 444.425781 342.683594 451.175781 327.371094 460.125 312.835938 L 463.570312 307.714844 L 464.089844 306.9375 C 451.691406 299.28125 438.394531 293.960938 424.058594 291.171875 C 413.679688 289.160156 402.390625 288.960938 391.875 289.808594 C 377.21875 291.886719 363.261719 296.433594 350.683594 304.214844 C 349.1875 305.1875 347.5625 306.289062 346.203125 307.386719 C 357.4375 324.199219 364.757812 343.785156 369.238281 363.3125 C 371.511719 373.726562 372.792969 384.328125 373.066406 394.980469 C 373.1875 404.644531 372.492188 414.300781 370.992188 423.847656 C 369.90625 430.078125 368.496094 436.25 366.769531 442.335938 C 362.039062 458.363281 354.703125 474.578125 345.039062 488.269531 C 379.226562 512.734375 429.183594 512.992188 463.769531 489.046875 C 450.535156 469.261719 441.511719 447.523438 437.558594 424.039062 C 434.941406 407.828125 434.789062 391.3125 437.105469 375.054688 C 437.9375 369.730469 438.976562 364.480469 440.214844 359.226562 Z M 315.054688 360.257812 C 313.371094 355.84375 311.421875 351.53125 309.21875 347.351562 C 303.445312 358.378906 299.222656 370.121094 297.34375 382.515625 C 296.300781 389.582031 295.84375 396.722656 296.300781 403.925781 C 297.28125 419.300781 302.210938 434.734375 309.472656 448.300781 C 312.980469 441.230469 315.964844 434.289062 318.039062 426.632812 C 324.140625 405.414062 322.972656 380.964844 315.054688 360.257812 Z M 247.710938 427.28125 C 245.34375 414.425781 244.496094 401.339844 245.1875 388.289062 C 247.054688 359.4375 256.621094 331.609375 272.890625 307.710938 C 267.308594 304.011719 261.402344 300.570312 255.238281 297.976562 C 244.597656 293.5625 233.441406 290.578125 222.023438 289.734375 C 213.523438 289.085938 205.089844 289.546875 196.652344 290.578125 C 191.339844 291.550781 186.078125 292.785156 180.886719 294.277344 C 172.511719 297.082031 164.449219 300.734375 156.820312 305.179688 C 150.949219 308.917969 145.375 313.105469 140.144531 317.695312 C 135.054688 322.46875 130.347656 327.632812 126.066406 333.148438 C 120.925781 340.230469 116.554688 347.84375 113.023438 355.855469 C 110.378906 362.472656 108.230469 369.28125 106.601562 376.222656 L 105.691406 381.605469 C 104.746094 388.917969 104.378906 396.296875 104.59375 403.664062 C 104.921875 409.179688 105.691406 414.566406 106.605469 420.011719 C 109.136719 430.652344 112.515625 440.125 117.574219 449.859375 C 120.199219 454.398438 123.039062 458.8125 126.078125 463.089844 C 131.523438 470.101562 137.367188 476.128906 144.046875 481.972656 C 149.558594 486.292969 155.371094 490.21875 161.4375 493.71875 C 169.417969 497.742188 177.457031 500.980469 186.089844 503.382812 C 191.277344 504.613281 196.730469 505.65625 202.046875 506.296875 C 208.015625 506.6875 213.789062 506.945312 219.691406 506.621094 C 235.492188 505.484375 250.898438 501.160156 264.984375 493.902344 L 268.675781 491.890625 L 273.285156 489.105469 C 268.9375 483.132812 265.300781 476.128906 261.925781 469.511719 C 255.378906 456.109375 250.597656 441.914062 247.710938 427.28125 Z M 882.484375 526.152344 C 876.222656 530.636719 869.75 534.816406 863.085938 538.675781 C 856.144531 542.183594 849.042969 545.367188 841.804688 548.210938 C 834.339844 550.742188 826.8125 552.949219 819.09375 554.703125 L 811.242188 556.128906 C 797.488281 557.8125 783.667969 558.53125 769.910156 557.035156 C 753.394531 555.191406 737.253906 550.863281 722.03125 544.191406 C 711.257812 539.300781 700.996094 533.34375 691.40625 526.410156 C 680.707031 533.871094 669.671875 540.300781 657.609375 545.359375 C 641.046875 552.175781 623.5 556.3125 605.636719 557.613281 C 593.167969 558.332031 580.65625 557.679688 568.328125 555.667969 C 543.609375 551.195312 520.328125 541.589844 499.824219 526.929688 C 491.066406 533.09375 481.914062 538.609375 472.121094 543.082031 C 451.882812 552.292969 430.464844 557.359375 408.214844 557.875 C 393.554688 558.066406 379.019531 556.511719 364.742188 552.816406 C 344.632812 547.558594 326.265625 538.609375 309.277344 526.40625 C 300.316406 532.632812 291.300781 538.085938 281.507812 542.691406 C 261.195312 552.097656 239.011719 557.417969 216.625 557.875 C 207.28125 558.007812 198.136719 557.226562 188.921875 556.121094 C 181.09375 554.722656 173.339844 552.925781 165.691406 550.738281 C 158.296875 548.222656 151.023438 545.363281 143.890625 542.175781 C 137.015625 538.671875 130.324219 534.816406 123.84375 530.625 C 115.496094 524.6875 107.582031 518.164062 100.164062 511.097656 C 94.851562 505.523438 89.808594 499.699219 85.050781 493.644531 C 80.597656 487.378906 76.441406 480.90625 72.59375 474.246094 C 69.070312 467.292969 65.847656 460.191406 62.929688 452.960938 C 60.402344 445.503906 58.238281 437.925781 56.445312 430.257812 C 55.0625 422.332031 54.066406 414.339844 53.460938 406.316406 L 53.203125 398.140625 L 53.460938 389.902344 L 54.042969 381.792969 L 55.085938 373.808594 L 56.445312 365.960938 L 58.328125 358.171875 L 60.402344 350.652344 L 62.929688 343.257812 L 65.851562 335.925781 L 69.09375 328.855469 L 72.59375 321.976562 L 76.484375 315.226562 L 80.574219 308.800781 L 85.050781 302.511719 L 89.785156 296.546875 C 94.84375 290.648438 100.164062 285.132812 105.675781 279.804688 C 111.53125 274.796875 117.59375 270.035156 123.84375 265.53125 C 130.359375 261.394531 137.046875 257.539062 143.890625 253.980469 C 151.023438 250.773438 158.296875 247.890625 165.691406 245.347656 C 173.355469 243.203125 181.066406 241.320312 188.921875 240.035156 C 200.410156 238.601562 211.953125 237.824219 223.503906 238.476562 C 238.167969 239.578125 252.4375 242.429688 266.195312 247.234375 C 279.578125 252.128906 292.324219 258.621094 304.152344 266.570312 L 306.808594 268.453125 L 308.949219 270.007812 C 331.855469 252.945312 359.296875 242.25 387.71875 239.0625 C 404.714844 237.445312 421.90625 238.152344 438.644531 241.789062 C 453.597656 245.089844 468.03125 250.441406 481.527344 257.683594 C 488.015625 261.257812 494.179688 265.277344 500.210938 269.492188 C 510.402344 261.832031 521.820312 255.476562 533.566406 250.550781 C 556.074219 241.007812 581.183594 237.050781 605.648438 238.484375 C 613.5 239.0625 621.480469 240.167969 629.132812 241.789062 C 647.453125 245.792969 664.929688 252.972656 680.773438 263.007812 C 684.210938 265.207031 687.78125 267.613281 691.023438 270.007812 C 706.808594 258.382812 724.539062 249.664062 743.386719 244.257812 C 757.65625 240.167969 772.125 238.351562 786.984375 238.15625 L 795.414062 238.351562 L 803.78125 239.007812 L 811.953125 240.042969 C 819.910156 241.421875 827.792969 243.195312 835.574219 245.355469 C 843.058594 247.824219 850.402344 250.703125 857.566406 253.988281 C 864.480469 257.460938 871.199219 261.316406 877.679688 265.542969 C 883.90625 270.015625 889.875 274.683594 895.652344 279.816406 C 901.175781 285.050781 906.398438 290.597656 911.292969 296.425781 C 916.003906 302.449219 920.375 308.730469 924.390625 315.238281 L 928.15625 321.988281 L 931.664062 328.867188 L 934.710938 335.9375 L 937.5 343.199219 L 939.902344 350.660156 L 941.972656 358.183594 C 943.726562 366.042969 945.089844 373.757812 946.0625 381.804688 C 946.640625 389.980469 946.835938 398.152344 946.640625 406.328125 C 946.050781 414.355469 945.03125 422.347656 943.59375 430.269531 L 941.777344 438.054688 L 939.640625 445.585938 L 937.105469 452.972656 C 934.28125 460.230469 931.074219 467.335938 927.503906 474.257812 C 922.390625 483.152344 916.625 491.652344 910.25 499.6875 C 905.25 505.546875 899.945312 511.132812 894.351562 516.425781 L 888.511719 521.425781 Z M 882.484375 526.152344 "/>
<path style=" stroke:none;fill-rule:evenodd;fill:rgb(81.568627%,81.960784%,82.745098%);fill-opacity:1;" d="M 311.746094 487.8125 C 288.132812 464.191406 274.703125 433.964844 274.703125 398.144531 C 274.703125 364.019531 287.484375 333.65625 309.085938 310.304688 C 330.304688 333.464844 343.410156 364.347656 343.410156 398.144531 C 343.410156 421.632812 338.867188 441.421875 327.835938 460.425781 C 344.253906 408.265625 339.511719 371.542969 319.402344 342.414062 C 323.035156 347.539062 332.898438 376.277344 331.082031 398.140625 C 331.082031 422.34375 323.683594 444.859375 311.09375 463.539062 Z M 941.917969 398.152344 C 941.917969 483.472656 872.300781 552.949219 787.046875 552.949219 C 751.363281 552.949219 718.40625 540.8125 691.480469 520.191406 C 664.5 540.5625 631.335938 552.949219 595.332031 552.949219 C 559.773438 552.949219 526.945312 540.8125 499.894531 520.773438 C 472.839844 541.015625 440.214844 552.949219 404.917969 552.949219 C 369.234375 552.949219 336.28125 540.8125 309.351562 520.191406 C 282.425781 540.5625 249.207031 552.949219 213.265625 552.949219 C 127.945312 552.949219 58.332031 483.464844 58.332031 398.152344 C 58.332031 312.835938 127.945312 243.21875 213.265625 243.21875 C 249.207031 243.21875 282.425781 255.617188 309.019531 276.375 C 335.6875 255.617188 368.96875 243.21875 404.917969 243.21875 C 440.859375 243.21875 473.625 255.546875 500.285156 275.789062 C 527.449219 254.640625 560.90625 243.175781 595.332031 243.21875 C 631.335938 243.21875 664.5 255.617188 691.097656 276.375 C 717.820312 255.617188 751.105469 243.21875 787.046875 243.21875 C 875.542969 243.21875 941.917969 312.644531 941.917969 398.152344 Z M 787.046875 259.441406 C 760.832031 259.441406 736.703125 266.902344 715.875 279.945312 C 749.933594 252.753906 804.625 246.855469 867.433594 268.785156 C 844.792969 255.03125 815.597656 246.144531 787.046875 246.144531 C 750.777344 246.144531 717.171875 259.3125 690.960938 280.722656 L 691.351562 298.175781 C 666.371094 274.238281 632.503906 259.445312 595.328125 259.445312 C 570.179688 259.402344 545.542969 266.515625 524.285156 279.949219 C 558.222656 252.761719 612.980469 246.859375 675.714844 268.789062 C 653.070312 255.039062 623.9375 246.152344 595.328125 246.152344 C 559.183594 246.152344 526.496094 258.347656 500.28125 279.820312 L 500.28125 298.179688 C 475.371094 274.242188 442.085938 259.453125 404.910156 259.453125 C 379.746094 259.40625 355.085938 266.519531 333.804688 279.953125 C 367.796875 252.765625 422.492188 246.867188 485.292969 268.796875 C 462.648438 255.042969 433.523438 246.15625 404.910156 246.15625 C 368.703125 246.15625 335.101562 259.324219 308.824219 280.734375 L 309.21875 298.183594 C 284.308594 274.25 250.4375 259.457031 213.265625 259.457031 C 188.078125 259.421875 163.402344 266.53125 142.097656 279.960938 C 176.15625 252.769531 230.847656 246.871094 293.644531 268.800781 C 271.003906 255.046875 241.808594 246.160156 213.265625 246.160156 C 129.566406 246.160156 61.253906 314.542969 61.253906 398.167969 C 61.253906 427.234375 71.371094 459.019531 88.5625 484.648438 C 53.855469 416.203125 71.371094 364.171875 93.5 331.796875 C 85 350.804688 73.90625 376.238281 74.492188 398.167969 C 76.636719 473.625 136.902344 536.878906 213.269531 536.878906 C 251.996094 536.878906 284.695312 523.128906 310.390625 497.171875 C 335.824219 523.707031 365.605469 536.878906 404.921875 536.878906 C 440.972656 536.890625 475.519531 522.417969 500.804688 496.722656 C 525.535156 521.503906 557.773438 536.878906 595.339844 536.878906 C 634.136719 536.878906 666.777344 523.128906 692.460938 497.171875 C 717.960938 523.707031 747.675781 536.878906 787.050781 536.878906 C 863.417969 536.878906 925.699219 474.53125 925.699219 398.167969 C 925.695312 322.308594 862.894531 259.441406 787.046875 259.441406 Z M 481.988281 487.234375 C 460.613281 505.816406 433.238281 516.046875 404.917969 516.039062 C 377.082031 515.578125 364.621094 510.71875 352.75 504.882812 C 386.746094 531.351562 462.269531 521.097656 481.53125 504.488281 C 460.515625 519.605469 434.101562 528.304688 404.910156 528.304688 C 369.09375 528.304688 338.925781 515.199219 315.1875 491.777344 C 339.578125 466.925781 351.90625 435.722656 351.90625 398.15625 C 351.90625 361.628906 337.570312 328.222656 314.277344 303.375 C 332.121094 285.464844 367.414062 267.949219 404.917969 267.949219 C 439.042969 267.949219 471.15625 283.457031 494.515625 305.121094 L 477.320312 305.121094 C 455.328125 331.460938 443.445312 361.375 443.445312 398.15625 C 443.445312 427.222656 453.566406 459.011719 470.699219 484.636719 C 435.992188 416.195312 453.566406 364.160156 475.632812 331.789062 C 467.128906 350.796875 456.167969 376.292969 456.6875 398.15625 C 457.46875 432.089844 472.839844 463.554688 493.664062 487.949219 Z M 500.21875 485.027344 C 478.289062 461.671875 465.25 432.277344 465.25 398.152344 C 465.25 364.023438 478.546875 332.820312 500.28125 309.527344 C 522.40625 332.753906 535.058594 363.570312 535.058594 398.152344 C 535.058594 421.636719 530.515625 441.429688 519.484375 460.433594 C 535.898438 408.273438 531.160156 371.546875 511.050781 342.417969 C 514.6875 347.542969 524.550781 376.285156 522.796875 398.144531 C 522.796875 423.0625 514.945312 446.351562 501.644531 465.429688 Z M 506.96875 491.898438 C 529.9375 467.375 543.621094 434.613281 543.621094 398.144531 C 543.621094 361.617188 530.261719 330.089844 506.96875 305.109375 C 530.324219 282.148438 560.167969 267.941406 595.332031 267.941406 C 629.265625 267.941406 661.054688 280.71875 684.21875 302.195312 L 669.296875 302.261719 C 647.117188 329.292969 635.007812 363.183594 635.035156 398.152344 C 635.035156 427.21875 645.15625 459.003906 662.351562 484.632812 C 627.644531 416.1875 645.164062 364.15625 667.285156 331.78125 C 658.78125 350.789062 647.746094 376.160156 648.269531 398.152344 C 649.046875 434.480469 661.25 464.394531 684.730469 489.5 L 671.304688 488.078125 C 650.800781 505.40625 624.203125 516.046875 595.328125 516.046875 C 567.496094 515.585938 556.136719 510.074219 543.230469 504.886719 C 577.160156 531.355469 652.679688 521.105469 671.949219 504.492188 C 650.925781 519.609375 624.519531 528.308594 595.328125 528.308594 C 557.898438 528.300781 531.039062 513.441406 506.96875 491.898438 Z M 529.285156 490.734375 C 547.835938 504.097656 570.933594 511.886719 595.328125 511.886719 C 619.789062 511.886719 643.726562 503.640625 662.476562 490.476562 C 643.984375 464.847656 632.109375 432.085938 632.109375 398.152344 C 632.109375 364.09375 643.207031 332.5 662.082031 306.542969 C 642.828125 292.089844 619.394531 284.304688 595.324219 284.359375 C 570.929688 284.359375 548.347656 291.820312 529.792969 305.117188 C 547.628906 330.292969 559.703125 364.609375 559.703125 398.152344 C 559.710938 432.085938 547.777344 465.105469 529.285156 490.734375 Z M 500.679688 459.398438 C 512.449219 441.140625 518.6875 419.871094 518.652344 398.152344 C 518.652344 375.183594 512.285156 353.710938 500.285156 336.390625 C 488.738281 354.621094 481.605469 375.640625 481.605469 398.152344 C 481.605469 420.210938 489.644531 441.8125 500.679688 459.398438 Z M 470.828125 490.277344 C 451.886719 463.9375 440.464844 432.277344 440.464844 398.152344 C 440.453125 364.8125 451.269531 332.371094 471.28125 305.703125 C 452.722656 292.789062 429.046875 284.359375 404.976562 284.359375 C 376.101562 282.734375 344.574219 299.28125 339.96875 307.0625 C 357.097656 331.78125 368.125 365.382812 368.125 398.152344 C 368.125 432.019531 357.097656 463.425781 338.148438 489.433594 C 356.644531 503.710938 379.867188 511.886719 404.910156 511.886719 C 429.371094 511.886719 452.214844 504.097656 470.828125 490.277344 Z M 302.601562 489.5 L 289.167969 488.078125 C 268.667969 505.40625 242.136719 516.046875 213.265625 516.046875 C 185.429688 515.585938 177.183594 508.96875 161.03125 504.886719 C 195.039062 531.355469 270.550781 521.105469 289.882812 504.492188 C 268.800781 519.609375 242.394531 528.308594 213.265625 528.308594 C 141.640625 528.308594 83.054688 469.851562 83.054688 398.160156 C 83.054688 326.46875 141.574219 267.957031 213.265625 267.957031 C 247.191406 267.957031 278.984375 280.734375 302.148438 302.210938 L 287.160156 302.277344 C 265.816406 328.421875 252.90625 361.898438 252.90625 398.167969 C 252.90625 427.234375 263.089844 459.019531 280.21875 484.648438 C 245.511719 416.203125 263.09375 364.171875 285.152344 331.796875 C 276.65625 350.804688 265.6875 376.175781 266.210938 398.167969 C 266.980469 434.480469 279.113281 464.390625 302.601562 489.5 Z M 309.542969 458.425781 C 320.953125 440.390625 327.003906 419.484375 326.988281 398.144531 C 326.988281 375.960938 320.570312 355.136719 309.34375 337.355469 C 298.253906 354.742188 291.121094 375.960938 291.121094 398.144531 C 291.121094 419.882812 298.832031 441.292969 309.542969 458.425781 Z M 280.410156 490.476562 C 261.921875 464.847656 249.980469 432.085938 249.980469 398.152344 C 249.980469 364.09375 261.082031 332.5 279.953125 306.542969 C 260.730469 292.089844 237.316406 284.304688 213.265625 284.359375 C 150.589844 284.359375 99.46875 335.480469 99.46875 398.152344 C 99.46875 460.832031 150.589844 511.886719 213.265625 511.886719 C 237.664062 511.886719 261.667969 503.640625 280.410156 490.476562 Z M 693.882812 487.8125 C 670.265625 464.191406 656.835938 433.964844 656.835938 398.144531 C 656.835938 364.019531 669.617188 333.65625 691.152344 310.304688 C 712.433594 333.464844 725.472656 364.347656 725.472656 398.144531 C 725.472656 421.632812 720.9375 441.421875 709.902344 460.425781 C 726.382812 408.265625 721.582031 371.542969 701.535156 342.414062 C 705.105469 347.539062 715.035156 376.277344 713.210938 398.140625 C 713.210938 422.34375 705.820312 444.859375 693.230469 463.539062 Z M 697.316406 491.773438 C 721.648438 466.921875 734.042969 435.714844 734.042969 398.152344 C 734.042969 361.621094 719.699219 328.21875 696.339844 303.367188 C 714.25 285.460938 749.480469 267.945312 787.042969 267.945312 C 858.671875 267.945312 917.117188 326.460938 917.117188 398.152344 C 917.117188 421.636719 912.644531 441.429688 901.617188 460.433594 C 918.03125 408.273438 913.226562 371.546875 893.1875 342.417969 C 896.753906 347.542969 906.679688 376.285156 904.859375 398.144531 C 904.859375 463.089844 851.921875 516.035156 787.042969 516.035156 C 759.207031 515.574219 746.753906 510.714844 734.816406 504.875 C 768.816406 531.34375 844.328125 521.09375 863.597656 504.480469 C 842.578125 519.601562 816.171875 528.300781 787.042969 528.300781 C 751.234375 528.300781 721.0625 515.195312 697.316406 491.773438 Z M 720.222656 489.433594 C 738.773438 503.710938 762 511.886719 787.046875 511.886719 C 849.648438 511.886719 900.78125 460.824219 900.78125 398.152344 C 900.78125 335.480469 849.65625 284.359375 787.046875 284.359375 C 758.175781 282.734375 726.644531 299.28125 722.042969 307.0625 C 739.167969 331.78125 750.203125 365.382812 750.203125 398.152344 C 750.195312 432.011719 739.167969 463.421875 720.222656 489.433594 Z M 691.675781 458.425781 C 702.703125 440.84375 709.125 420.210938 709.125 398.144531 C 709.125 375.960938 702.640625 355.136719 691.480469 337.355469 C 680.320312 354.742188 673.246094 375.960938 673.246094 398.144531 C 673.246094 419.882812 680.90625 441.292969 691.675781 458.425781 Z M 691.675781 458.425781 "/>
</g>
</svg>
