<?xml version="1.0" encoding="UTF-8"?>
<svg xmlns="http://www.w3.org/2000/svg" xmlns:xlink="http://www.w3.org/1999/xlink" width="1000px" height="447px" viewBox="0 0 999 447" version="1.1">
<defs>
<linearGradient id="linear0" gradientUnits="userSpaceOnUse" x1="222.792007" y1="-0.036" x2="243.727997" y2="-20.972" gradientTransform="matrix(8.065387,0,0,-8.06985,-1381.866531,-18.004366)">
<stop offset="0" style="stop-color:rgb(20%,60%,40%);stop-opacity:1;"/>
<stop offset="1" style="stop-color:rgb(0%,30.980392%,19.607843%);stop-opacity:1;"/>
<stop offset="1" style="stop-color:rgb(0%,30.980392%,19.607843%);stop-opacity:1;"/>
</linearGradient>
</defs>
<g id="surface1">
<path style=" stroke:none;fill-rule:nonzero;fill:rgb(0%,0%,0%);fill-opacity:1;" d="M 499.496094 183.960938 C 497.667969 183.960938 496.328125 185.328125 496.3125 185.355469 C 496.234375 185.421875 463.90625 216.285156 463.90625 216.285156 C 451.988281 227.796875 436.160156 222.980469 434.46875 222.417969 C 434.46875 222.417969 296.292969 184.703125 296.273438 184.691406 C 269.90625 176.730469 264.667969 168.144531 260.628906 157.71875 C 260.628906 157.71875 258.285156 151.234375 252.546875 149.539062 C 252.546875 149.539062 83.636719 99.921875 83.621094 99.921875 C 76.730469 97.796875 72.933594 95.847656 70.226562 90.597656 C 70.226562 90.597656 60.953125 74.265625 60.921875 74.21875 C 58.867188 70.304688 55.140625 69.890625 54.925781 69.859375 C 42.148438 68.132812 38.40625 61.003906 36.820312 57.972656 L 29.289062 44.730469 C 26.929688 40.628906 23.5625 40.28125 23.457031 40.269531 C 16.191406 39.808594 12.738281 37.976562 9.730469 33.039062 C 9.730469 33.039062 2.367188 20.78125 2.335938 20.71875 C -1.285156 14.027344 -0.0351562 9.234375 1.636719 6.390625 C 5.160156 0.5625 11.597656 0.117188 14.183594 0.0273438 L 418.078125 0.0273438 C 429.511719 0.0273438 438.753906 3.492188 445.585938 10.351562 C 450.492188 15.242188 453.871094 21.625 455.621094 29.316406 C 455.652344 29.496094 456.128906 31.101562 459.582031 31.101562 L 539.414062 31.101562 C 542.871094 31.101562 543.34375 29.5 543.375 29.316406 C 545.125 21.625 548.503906 15.242188 553.410156 10.351562 C 560.242188 3.492188 569.480469 0.0273438 580.921875 0.0273438 L 984.816406 0.0273438 C 987.402344 0.117188 993.839844 0.5625 997.359375 6.390625 C 999.03125 9.234375 1000.28125 14.023438 996.660156 20.71875 C 996.628906 20.777344 989.261719 33.039062 989.261719 33.039062 C 986.257812 37.972656 982.804688 39.804688 975.539062 40.265625 C 975.4375 40.277344 972.058594 40.625 969.707031 44.726562 L 962.171875 57.96875 C 960.589844 61.003906 956.84375 68.128906 944.070312 69.855469 C 943.855469 69.886719 940.128906 70.300781 938.070312 74.214844 C 938.039062 74.261719 928.773438 90.59375 928.773438 90.59375 C 926.0625 95.84375 922.269531 97.796875 915.378906 99.921875 C 915.367188 99.921875 746.453125 149.535156 746.453125 149.535156 C 740.714844 151.230469 738.371094 157.714844 738.371094 157.714844 C 734.335938 168.144531 729.097656 176.726562 702.726562 184.6875 C 702.710938 184.699219 564.53125 222.414062 564.53125 222.414062 C 562.839844 222.976562 547.011719 227.792969 535.09375 216.28125 C 535.09375 216.28125 502.769531 185.414062 502.683594 185.355469 C 502.671875 185.324219 501.332031 183.957031 499.503906 183.957031 L 499.496094 183.957031 Z M 499.496094 183.960938 "/>
<path style=" stroke:none;fill-rule:nonzero;fill:rgb(100%,100%,100%);fill-opacity:1;" d="M 550.714844 30.957031 C 552.128906 24.695312 554.828125 19.558594 558.710938 15.675781 C 564.078125 10.292969 571.5625 7.554688 580.902344 7.554688 L 766.449219 7.554688 C 760.070312 12.328125 756.722656 18.367188 756.5 18.769531 C 753.949219 23.515625 751.273438 28.191406 748.472656 32.792969 L 550.0625 32.792969 C 550.472656 32.074219 550.71875 30.957031 550.714844 30.957031 Z M 990.042969 17.117188 L 982.800781 29.171875 C 981.449219 31.40625 980.609375 32.417969 975.042969 32.769531 L 755.308594 32.800781 C 757.496094 29.101562 759.605469 25.355469 761.640625 21.566406 C 761.703125 21.453125 769.488281 7.574219 783.304688 7.574219 L 984.601562 7.554688 C 986.714844 7.644531 989.457031 7.882812 990.910156 10.28125 C 991.085938 10.601562 991.5 11.273438 991.5 12.480469 C 991.5 13.546875 991.160156 15.066406 990.042969 17.117188 Z M 963.171875 41.011719 L 955.5 54.488281 C 954.453125 56.480469 952.839844 59.5625 947.714844 61.332031 C 943.429688 62.40625 934.902344 61.722656 931.949219 61.363281 L 745.050781 48.941406 C 747.464844 45.355469 749.710938 41.910156 751.746094 38.636719 L 964.785156 38.636719 C 964.226562 39.34375 963.683594 40.113281 963.171875 41.011719 Z M 931.398438 70.703125 C 931.449219 70.644531 924.046875 83.679688 922.511719 86.382812 C 922.132812 86.890625 920.027344 89.179688 913.183594 88.269531 L 734.089844 64.234375 C 736.542969 61.019531 738.871094 57.832031 741.050781 54.753906 L 931.300781 67.382812 C 931.578125 67.417969 932.378906 67.507812 933.527344 67.605469 C 932.699219 68.550781 931.984375 69.589844 931.398438 70.703125 Z M 869.804688 105.484375 C 863.0625 107.273438 849.875 105.25 845.292969 104.296875 L 722.230469 78.988281 C 724.925781 75.820312 727.507812 72.683594 729.960938 69.574219 L 909.816406 93.730469 Z M 808.800781 123.394531 C 800.144531 125.714844 788.851562 121.964844 788.746094 121.933594 L 788.609375 121.890625 C 788.609375 121.890625 788.59375 121.875 788.578125 121.875 L 706.210938 96.453125 C 710.191406 92.421875 714.0625 88.285156 717.824219 84.046875 L 844.117188 110.019531 C 844.390625 110.0625 846.980469 110.597656 850.609375 111.105469 Z M 744.457031 142.304688 C 738.609375 143.894531 729.988281 140.519531 727.128906 139.074219 C 727.128906 139.074219 705.085938 128.75 682.453125 118.15625 C 689.042969 112.753906 695.402344 107.070312 701.515625 101.128906 L 786.933594 127.5 C 787.097656 127.5625 788.652344 128.070312 791.03125 128.605469 Z M 731.269531 155.203125 C 728.78125 161.582031 726.183594 168.15625 708.660156 174.746094 C 701.429688 176.992188 692.824219 170.59375 692.75 170.523438 C 692.722656 170.492188 673.214844 156.523438 651 140.621094 C 660.125 134.980469 668.929688 128.839844 677.371094 122.21875 L 724.566406 144.324219 C 724.828125 144.457031 729.695312 146.917969 735.59375 148.015625 C 732.773438 151.230469 731.5 154.546875 731.269531 155.203125 Z M 665.25 187.128906 L 658.671875 188.914062 C 653.132812 190.238281 646.375 184.75 644.214844 182.46875 C 644.214844 182.46875 633.597656 171.414062 619.957031 157.164062 C 628.707031 153.195312 637.246094 148.773438 645.535156 143.910156 L 689.28125 175.226562 C 689.457031 175.375 691.957031 177.246094 695.628906 178.839844 C 685.910156 181.488281 665.25 187.125 665.25 187.128906 Z M 607.414062 202.914062 C 602.796875 203.640625 597.4375 196.054688 595.882812 193.226562 L 582.691406 170.886719 C 593.429688 167.800781 603.964844 164.054688 614.242188 159.667969 L 639.976562 186.535156 C 640.203125 186.761719 643.050781 189.71875 647.183594 192.054688 Z M 563.617188 214.855469 C 560.507812 215.570312 557.882812 215.257812 555.628906 213.894531 C 550.789062 210.929688 549.175781 204.117188 549.085938 203.71875 L 542.355469 179.421875 C 553.984375 177.816406 565.503906 175.507812 576.851562 172.507812 L 590.8125 196.148438 C 591.289062 196.992188 594.121094 201.933594 598.367188 205.382812 Z M 535.230469 206.039062 C 535.230469 206.039062 516.515625 188.167969 510.167969 182.125 C 519.074219 181.816406 527.867188 181.164062 536.496094 180.148438 L 543.375 204.992188 C 543.574219 205.855469 544.949219 211.300781 548.769531 215.632812 C 543.496094 214.128906 541.898438 212.566406 535.230469 206.039062 Z M 502.421875 176.441406 L 502.421875 100.753906 L 514.496094 100.753906 L 534.910156 174.453125 C 524.285156 175.671875 513.460938 176.339844 502.421875 176.441406 Z M 464.074219 174.453125 L 484.5 100.753906 L 496.578125 100.753906 L 496.578125 176.433594 C 485.519531 176.339844 474.695312 175.660156 464.074219 174.453125 Z M 458.710938 210.839844 C 456.339844 213.144531 453.410156 214.796875 450.214844 215.632812 C 454.0625 211.289062 455.398438 205.828125 455.601562 204.980469 L 462.484375 180.183594 C 471.117188 181.179688 479.90625 181.832031 488.808594 182.128906 C 481.679688 188.910156 458.710938 210.839844 458.710938 210.839844 Z M 449.898438 203.671875 C 449.898438 203.746094 448.308594 210.855469 443.34375 213.894531 C 441.09375 215.257812 438.476562 215.574219 435.367188 214.855469 L 400.613281 205.382812 C 404.859375 201.910156 407.722656 196.972656 408.214844 196.066406 C 408.199219 196.082031 414.101562 186.101562 422.105469 172.519531 C 433.460938 175.523438 444.988281 177.828125 456.625 179.417969 Z M 391.566406 202.914062 L 351.800781 192.050781 C 355.925781 189.703125 358.785156 186.742188 359.003906 186.519531 C 359.003906 186.519531 370.371094 174.644531 384.734375 159.664062 C 395.011719 164.050781 405.546875 167.800781 416.277344 170.898438 L 403.140625 193.167969 C 401.542969 196.050781 396.183594 203.640625 391.566406 202.914062 Z M 340.300781 188.914062 L 303.351562 178.839844 C 305.617188 177.867188 307.769531 176.636719 309.757812 175.179688 C 309.730469 175.210938 330.402344 160.40625 353.445312 143.914062 C 361.742188 148.769531 370.28125 153.191406 379.035156 157.164062 L 354.761719 182.46875 C 352.605469 184.75 345.84375 190.238281 340.300781 188.914062 Z M 290.277344 174.746094 C 272.828125 168.15625 270.210938 161.601562 267.730469 155.238281 C 266.722656 152.59375 265.253906 150.148438 263.390625 148.019531 C 267.238281 147.257812 270.972656 146 274.503906 144.28125 C 274.453125 144.296875 298.101562 133.246094 321.625 122.21875 C 330.050781 128.847656 338.851562 134.992188 347.976562 140.621094 L 306.289062 170.464844 C 306.152344 170.597656 297.511719 177.027344 290.277344 174.746094 Z M 254.542969 142.304688 C 252.78125 141.78125 233.195312 136.027344 207.953125 128.605469 C 209.363281 128.300781 210.753906 127.921875 212.121094 127.472656 C 212.046875 127.5 281.339844 106.109375 297.476562 101.128906 C 303.589844 107.0625 309.949219 112.742188 316.539062 118.144531 L 271.941406 139.03125 C 268.992188 140.519531 260.386719 143.894531 254.542969 142.304688 Z M 190.230469 123.410156 C 176.273438 119.3125 162.316406 115.214844 148.363281 111.105469 C 150.546875 110.8125 152.722656 110.441406 154.882812 110.003906 C 154.867188 110.023438 244.039062 91.679688 281.171875 84.050781 C 284.9375 88.28125 288.808594 92.417969 292.773438 96.457031 L 210.3125 121.910156 C 210.125 121.964844 198.882812 125.703125 190.230469 123.410156 Z M 129.238281 105.503906 C 115.886719 101.5625 102.53125 97.636719 89.171875 93.730469 L 269.050781 69.574219 C 271.507812 72.667969 274.078125 75.804688 276.769531 78.976562 L 153.691406 104.300781 C 149.125 105.25 135.996094 107.273438 129.238281 105.503906 Z M 85.820312 88.273438 C 79.015625 89.183594 76.878906 86.933594 76.484375 86.398438 L 67.535156 70.628906 C 66.964844 69.546875 66.269531 68.53125 65.460938 67.613281 C 66.605469 67.507812 257.96875 54.757812 257.96875 54.757812 C 260.230469 57.953125 262.546875 61.113281 264.914062 64.234375 Z M 51.285156 61.332031 C 46.15625 59.5625 44.527344 56.480469 43.480469 54.484375 C 40.34375 49.148438 36.214844 41.171875 34.1875 38.628906 L 247.257812 38.628906 C 249.429688 42.105469 251.660156 45.542969 253.957031 48.933594 L 67.03125 61.359375 C 64.097656 61.722656 55.566406 62.402344 51.285156 61.332031 Z M 24.003906 32.792969 C 18.871094 32.410156 17.777344 31.800781 16.164062 29.148438 C 16.183594 29.167969 9.46875 18 8.933594 17.117188 C 7.820312 15.066406 7.453125 13.546875 7.5 12.476562 C 7.625 9.738281 9.488281 7.625 14.382812 7.550781 L 215.691406 7.570312 C 229.316406 7.570312 237.351562 21.566406 237.351562 21.566406 C 239.390625 25.351562 241.507812 29.097656 243.703125 32.792969 Z M 418.074219 7.550781 C 427.433594 7.550781 434.894531 10.289062 440.273438 15.675781 C 444.15625 19.558594 446.847656 24.691406 448.28125 30.957031 C 448.28125 30.957031 448.566406 32.027344 448.9375 32.796875 L 250.527344 32.796875 C 247.496094 27.816406 242.496094 18.773438 242.496094 18.773438 C 242.277344 18.375 238.921875 12.332031 232.542969 7.554688 Z M 705.386719 46.320312 L 705.386719 38.628906 L 744.835938 38.628906 C 742.714844 41.957031 740.53125 45.246094 738.289062 48.492188 Z M 705.386719 60.390625 L 705.386719 52.390625 L 734.191406 54.296875 C 732.066406 57.253906 729.789062 60.269531 727.417969 63.355469 Z M 705.386719 75.539062 L 705.386719 66.285156 L 723.203125 68.679688 C 720.8125 71.640625 718.296875 74.628906 715.679688 77.648438 C 711.085938 76.699219 707.542969 75.984375 705.386719 75.539062 Z M 705.386719 81.503906 L 711.203125 82.691406 C 709.296875 84.800781 707.359375 86.878906 705.386719 88.925781 Z M 645.289062 100.753906 L 693.4375 100.753906 C 688.527344 105.636719 676.945312 115.078125 676.566406 115.394531 C 664.859375 109.898438 653.445312 104.574219 645.289062 100.753906 Z M 595.320312 100.753906 L 631.503906 100.753906 L 671.414062 119.441406 C 663.207031 125.734375 654.667969 131.570312 645.828125 136.933594 C 626.566406 123.128906 606.273438 108.59375 595.320312 100.753906 Z M 565.882812 100.753906 L 585.292969 100.753906 L 640.3125 140.175781 C 632.3125 144.765625 624.082031 148.9375 615.65625 152.671875 C 597.539062 133.78125 575.714844 111.003906 565.882812 100.753906 Z M 541.292969 100.753906 L 557.777344 100.753906 L 609.90625 155.144531 C 600.027344 159.253906 589.910156 162.769531 579.613281 165.675781 Z M 534.5 100.753906 L 573.773438 167.25 C 562.910156 170.0625 551.894531 172.222656 540.777344 173.722656 L 520.558594 100.753906 Z M 464.484375 100.753906 L 478.425781 100.753906 L 458.207031 173.726562 C 447.09375 172.222656 436.074219 170.066406 425.210938 167.265625 C 439.925781 142.367188 459.558594 109.097656 464.484375 100.753906 Z M 441.207031 100.753906 L 457.695312 100.753906 L 419.371094 165.675781 C 409.066406 162.777344 398.949219 159.253906 389.070312 155.125 C 409.976562 133.332031 435.132812 107.089844 441.207031 100.753906 Z M 413.691406 100.753906 L 433.101562 100.753906 L 383.347656 152.671875 C 374.914062 148.933594 366.675781 144.765625 358.667969 140.175781 C 382.542969 123.070312 407.433594 105.234375 413.691406 100.753906 Z M 322.414062 115.394531 C 321.976562 115.039062 310.445312 105.339844 305.546875 100.753906 L 353.6875 100.753906 Z M 367.480469 100.753906 L 403.65625 100.753906 L 353.152344 136.917969 C 344.3125 131.570312 335.773438 125.734375 327.574219 119.441406 C 346.53125 110.558594 364.089844 102.347656 367.480469 100.753906 Z M 293.546875 81.503906 L 293.546875 88.867188 C 291.597656 86.835938 289.679688 84.777344 287.792969 82.6875 C 290.105469 82.207031 292.039062 81.816406 293.546875 81.503906 Z M 293.546875 66.285156 L 293.546875 75.535156 L 283.304688 77.648438 C 280.753906 74.699219 278.253906 71.710938 275.800781 68.679688 Z M 293.546875 52.390625 L 293.546875 60.390625 L 271.582031 63.355469 C 269.277344 60.371094 267.027344 57.351562 264.824219 54.296875 Z M 293.546875 46.320312 L 260.730469 48.492188 C 258.480469 45.25 256.292969 41.960938 254.175781 38.628906 L 293.546875 38.628906 Z M 293.546875 46.320312 "/>
<path style=" stroke:none;fill-rule:nonzero;fill:url(#linear0);" d="M 299.488281 94.910156 L 299.402344 94.820312 L 299.402344 38.660156 L 699.554688 38.660156 L 699.554688 94.847656 C 699.542969 94.878906 699.523438 94.878906 699.511719 94.894531 Z M 299.488281 94.910156 "/>
<path style=" stroke:none;fill-rule:nonzero;fill:rgb(100%,100%,100%);fill-opacity:1;" d="M 325.988281 47.628906 L 324.320312 47.628906 L 307.21875 85.90625 L 311.847656 85.90625 L 311.921875 85.683594 C 313.308594 81.027344 315.089844 76.566406 316.820312 72.285156 L 317.179688 71.375 L 330.40625 71.375 C 332.445312 76.078125 334.304688 80.855469 335.980469 85.695312 L 336.058594 85.90625 L 342.449219 85.90625 Z M 318.476562 68.453125 C 318.824219 67.609375 323.3125 57.089844 323.847656 55.84375 C 324.375 57.089844 328.949219 67.609375 329.308594 68.453125 Z M 344.292969 83.183594 L 344.433594 83.328125 C 346.453125 85.535156 351.007812 86.5625 353.457031 86.5625 C 361.476562 86.5625 367.097656 81.382812 367.097656 73.953125 C 367.097656 67.789062 362.4375 65.972656 357.929688 64.191406 C 353.929688 62.597656 350.125 61.125 350.125 56.574219 C 350.125 53.121094 352.84375 50.625 356.578125 50.625 C 359.558594 50.625 361.8125 52.199219 362.953125 55.082031 L 363.03125 55.289062 L 364.050781 55.289062 L 365.648438 50.457031 L 365.472656 50.292969 C 363.292969 48.328125 359.9375 47.628906 357.550781 47.628906 C 350.070312 47.628906 345.246094 51.808594 345.246094 58.296875 C 345.246094 64.902344 350.167969 66.816406 354.503906 68.546875 C 358.421875 70.0625 362.097656 71.523438 362.097656 76.0625 C 362.097656 80.269531 358.960938 83.585938 354.964844 83.585938 C 351.304688 83.585938 348.878906 82.007812 346.511719 78.144531 L 346.417969 77.996094 L 345.398438 77.996094 Z M 397.289062 48.417969 L 369.160156 48.417969 L 369.160156 52.359375 L 369.523438 52.332031 C 373.320312 51.894531 377.136719 51.675781 380.957031 51.671875 L 380.957031 86.027344 L 386.363281 86.027344 L 386.363281 51.691406 C 390.183594 51.691406 393.832031 51.910156 397.246094 52.332031 L 397.625 52.375 L 397.625 48.417969 Z M 416.671875 47.628906 C 404.738281 47.628906 396.390625 55.675781 396.390625 67.175781 C 396.390625 78.777344 404.507812 86.558594 416.566406 86.558594 C 429.035156 86.558594 437.425781 78.433594 437.425781 66.359375 C 437.425781 53.414062 426.996094 47.628906 416.671875 47.628906 Z M 426.660156 79.882812 C 424.007812 82.691406 420.675781 84.121094 416.714844 84.121094 C 407.980469 84.121094 402.332031 77.726562 402.332031 67.835938 C 402.332031 56.871094 408.039062 50.070312 417.207031 50.070312 C 421.53125 50.070312 425.613281 51.972656 428.132812 55.15625 C 430.90625 58.695312 431.46875 62.386719 431.46875 66.804688 C 431.484375 67.046875 431.5 67.3125 431.5 67.566406 C 431.5 71.164062 430.039062 76.265625 426.660156 79.882812 Z M 474.894531 48.417969 L 471.542969 48.417969 L 471.542969 76.164062 L 471.480469 76.164062 C 471.289062 75.9375 445.886719 48.417969 445.886719 48.417969 L 443.300781 48.417969 L 443.300781 85.90625 L 446.988281 85.90625 L 446.988281 56.898438 L 447.0625 56.898438 C 447.261719 57.121094 470.21875 82.546875 470.21875 82.546875 L 473.09375 85.910156 L 475.230469 85.910156 L 475.230469 48.417969 Z M 535.433594 48.417969 L 534.109375 48.417969 L 525.03125 64.882812 C 525.03125 64.882812 519.289062 75.359375 518.769531 76.296875 C 513.171875 66.953125 508.128906 57.121094 503.839844 48.597656 L 503.75 48.417969 L 501.84375 48.417969 L 501.8125 48.730469 C 501.277344 54.269531 498.054688 76.832031 496.648438 85.535156 L 496.574219 85.90625 L 501.117188 85.90625 L 501.117188 85.582031 C 501.117188 80.300781 502.050781 72.429688 503.046875 64.082031 L 503.644531 58.921875 C 504.28125 60.136719 511.328125 73.53125 514.019531 79.046875 L 517.070312 85.328125 L 518.085938 85.328125 L 518.171875 85.121094 C 521.308594 77.914062 525.734375 69.691406 531.789062 58.863281 C 532.644531 65.320312 533.78125 78.214844 534.410156 85.609375 L 534.441406 85.910156 L 540.179688 85.910156 L 540.132812 85.539062 C 538.835938 76.445312 537.421875 64.410156 535.769531 48.734375 L 535.734375 48.421875 L 535.433594 48.421875 Z M 561.128906 47.628906 L 559.445312 47.628906 L 542.339844 85.90625 L 546.996094 85.90625 L 547.058594 85.683594 C 548.449219 80.984375 550.242188 76.507812 551.980469 72.1875 C 551.980469 72.1875 552.195312 71.65625 552.300781 71.371094 L 565.535156 71.371094 C 567.570312 76.074219 569.425781 80.851562 571.101562 85.695312 L 571.175781 85.902344 L 577.574219 85.902344 Z M 553.605469 68.453125 C 553.957031 67.609375 558.445312 57.089844 558.980469 55.84375 L 564.445312 68.453125 Z M 594.027344 67.386719 C 600.789062 66.019531 604.832031 62.164062 604.832031 56.957031 C 604.832031 51.234375 600.816406 48.421875 592.539062 48.421875 L 580.796875 48.421875 L 580.796875 85.910156 L 586.1875 85.910156 L 586.1875 67.9375 L 587.761719 67.9375 C 589.160156 69.59375 590.558594 71.242188 591.957031 72.890625 C 591.941406 72.875 598.308594 81.117188 598.308594 81.117188 L 601.796875 85.910156 L 608.855469 85.910156 C 608.855469 85.90625 594.667969 68.175781 594.027344 67.386719 Z M 586.1875 65.246094 L 586.1875 51.082031 C 588.410156 50.980469 591.859375 50.832031 593.726562 51.132812 C 597.46875 51.738281 599.367188 53.925781 599.367188 57.597656 C 599.367188 61.363281 596.898438 64.113281 592.730469 64.949219 C 590.390625 65.421875 587.5625 65.335938 586.1875 65.246094 Z M 636.023438 48.417969 L 607.882812 48.417969 L 607.882812 52.359375 L 608.25 52.332031 C 612.042969 51.894531 615.855469 51.675781 619.671875 51.671875 L 619.671875 86.027344 L 625.105469 86.027344 L 625.105469 51.691406 C 628.910156 51.691406 632.566406 51.910156 635.984375 52.332031 L 636.363281 52.375 L 636.363281 48.417969 Z M 640.800781 85.90625 L 645.898438 85.90625 L 645.898438 48.417969 L 640.800781 48.417969 Z M 682.089844 48.417969 L 682.089844 76.164062 L 682.042969 76.164062 C 681.84375 75.9375 656.449219 48.417969 656.449219 48.417969 L 653.859375 48.417969 L 653.859375 85.90625 L 657.546875 85.90625 L 657.546875 56.898438 L 657.613281 56.898438 C 657.808594 57.121094 680.792969 82.546875 680.792969 82.546875 L 683.671875 85.910156 L 685.777344 85.910156 L 685.777344 48.417969 Z M 682.089844 48.417969 "/>
<path style=" stroke:none;fill-rule:nonzero;fill:rgb(0%,0%,0%);fill-opacity:1;" d="M 192.453125 445.683594 C 190.433594 445.5625 188.714844 445.355469 186.886719 445.355469 C 184.855469 445.355469 183.035156 445.5625 181.203125 445.683594 C 178.109375 436.785156 174.246094 426.519531 169.957031 416.777344 L 142.761719 416.777344 C 139.011719 426.191406 135.152344 435.609375 132.15625 445.683594 C 130.65625 445.5625 129.480469 445.355469 128.1875 445.355469 C 126.796875 445.355469 125.613281 445.5625 124.441406 445.683594 L 157.859375 370.882812 L 160.324219 370.882812 Z M 870.78125 445.683594 L 867.546875 445.683594 C 865.761719 443.449219 863.910156 441.269531 861.988281 439.148438 L 815.703125 387.972656 L 814.652344 387.972656 L 814.652344 445.679688 C 813.578125 445.5625 812.617188 445.355469 811.636719 445.355469 C 810.574219 445.355469 809.601562 445.5625 808.640625 445.679688 L 808.640625 372.472656 L 812.824219 372.472656 L 863.695312 427.585938 L 864.777344 427.585938 L 864.777344 372.472656 C 865.734375 372.558594 866.691406 372.789062 867.78125 372.789062 C 868.75 372.789062 869.714844 372.5625 870.777344 372.472656 Z M 784.054688 372.472656 C 785.558594 372.558594 787.171875 372.789062 788.769531 372.789062 C 790.265625 372.789062 791.773438 372.5625 793.476562 372.472656 L 793.476562 445.683594 C 791.769531 445.5625 790.261719 445.355469 788.769531 445.355469 C 787.171875 445.355469 785.558594 445.5625 784.054688 445.683594 Z M 749.734375 445.890625 C 748.015625 445.785156 746.507812 445.5625 745 445.5625 C 743.402344 445.5625 741.804688 445.785156 740.300781 445.890625 L 740.300781 377.605469 C 729.492188 377.605469 722.964844 378.246094 716.828125 378.882812 C 716.964844 377.8125 717.164062 376.742188 717.164062 375.683594 C 717.164062 374.597656 716.964844 373.648438 716.828125 372.472656 L 772.113281 372.472656 C 772.007812 373.648438 771.804688 374.597656 771.804688 375.683594 C 771.804688 376.742188 772.003906 377.8125 772.113281 378.882812 C 764.6875 378.011719 757.214844 377.585938 749.738281 377.605469 L 749.738281 445.890625 Z M 662.957031 372.472656 L 685.664062 372.472656 C 702.171875 372.472656 709.449219 377.914062 709.449219 388.734375 C 709.449219 401.140625 698.320312 407.152344 687.496094 409.066406 L 709.5625 437.003906 L 714.707031 443 L 716.726562 445.683594 C 714.488281 445.5625 712.554688 445.355469 710.519531 445.355469 C 708.492188 445.355469 706.355469 445.5625 704.394531 445.683594 C 702.199219 442.535156 699.953125 439.421875 697.648438 436.351562 L 685.027344 419.992188 L 676.457031 409.945312 L 672.402344 409.945312 L 672.402344 445.6875 C 670.679688 445.5625 669.179688 445.359375 667.679688 445.359375 C 666.070312 445.359375 664.460938 445.5625 662.960938 445.6875 L 662.960938 372.472656 Z M 672.402344 405.851562 C 673.882812 405.957031 680.738281 406.390625 686.207031 405.320312 C 694.046875 403.722656 699.921875 398.359375 699.921875 390.023438 C 699.921875 382.632812 696.15625 377.8125 688.136719 376.519531 C 684.183594 375.898438 676.875 376.207031 672.402344 376.433594 Z M 655.539062 445.683594 C 653.488281 445.5625 651.796875 445.355469 649.953125 445.355469 C 647.929688 445.355469 646.105469 445.5625 644.308594 445.683594 C 641.183594 436.785156 637.320312 426.519531 633.039062 416.777344 L 605.847656 416.777344 C 602.085938 426.191406 598.222656 435.609375 595.234375 445.683594 C 593.734375 445.5625 592.558594 445.355469 591.277344 445.355469 C 589.886719 445.355469 588.695312 445.5625 587.53125 445.683594 L 620.9375 370.882812 L 623.402344 370.882812 Z M 619.550781 384.894531 L 607.871094 412.28125 L 631.4375 412.28125 Z M 573.933594 372.472656 C 576.722656 398.890625 579.730469 425.242188 582.609375 445.683594 C 580.675781 445.5625 579.171875 445.355469 577.578125 445.355469 C 575.851562 445.355469 574.148438 445.5625 572.546875 445.683594 C 570.738281 424.15625 568.554688 401.050781 567.0625 390.460938 C 554.644531 412.613281 545.429688 429.71875 539.003906 444.507812 L 537.832031 444.507812 L 531.945312 432.398438 C 525.074219 418.296875 517.578125 404.371094 510.300781 390.460938 C 507.941406 411.320312 505.050781 432.5 505.050781 445.6875 C 503.671875 445.5625 502.476562 445.359375 501.320312 445.359375 C 499.925781 445.359375 498.734375 445.5625 497.453125 445.6875 C 500.226562 428.457031 506.652344 383.703125 507.730469 372.472656 L 510.515625 372.472656 C 519.089844 389.511719 529.371094 409.605469 540.816406 428.5625 C 551.019531 410.230469 560.867188 391.640625 571.679688 372.472656 Z M 453.234375 445.683594 L 450 445.683594 C 448.222656 443.445312 446.367188 441.265625 444.445312 439.148438 L 398.164062 387.972656 L 397.097656 387.972656 L 397.097656 445.679688 C 396.027344 445.5625 395.054688 445.355469 394.09375 445.355469 C 393.03125 445.355469 392.074219 445.5625 391.097656 445.679688 L 391.097656 372.472656 L 395.285156 372.472656 L 446.148438 427.585938 L 447.234375 427.585938 L 447.234375 372.472656 C 448.191406 372.558594 449.152344 372.789062 450.214844 372.789062 C 451.171875 372.789062 452.148438 372.5625 453.234375 372.472656 Z M 299.609375 409.066406 C 299.609375 385.625 317.058594 370.878906 339.242188 370.878906 C 359.386719 370.878906 379.832031 381.765625 379.832031 407.460938 C 379.832031 431.320312 362.917969 446.96875 339.046875 446.96875 C 315.371094 446.972656 299.609375 431.980469 299.609375 409.066406 Z M 362.597656 384.773438 C 357.253906 378.039062 348.894531 374.394531 340.300781 374.394531 C 321.472656 374.394531 310.117188 388.628906 310.117188 410.34375 C 310.117188 432.09375 323.390625 443.421875 339.355469 443.421875 C 361.960938 443.421875 370.097656 420.09375 369.339844 408.324219 C 369.339844 399.457031 368.164062 391.945312 362.597656 384.773438 Z M 278.480469 445.890625 C 276.757812 445.785156 275.269531 445.5625 273.761719 445.5625 C 272.148438 445.5625 270.535156 445.785156 269.054688 445.890625 L 269.054688 377.605469 C 258.230469 377.605469 251.683594 378.246094 245.59375 378.882812 C 245.695312 377.8125 245.910156 376.742188 245.910156 375.683594 C 245.910156 374.597656 245.695312 373.648438 245.59375 372.472656 L 300.855469 372.472656 C 300.738281 373.648438 300.535156 374.597656 300.535156 375.683594 C 300.535156 376.742188 300.738281 377.8125 300.855469 378.882812 C 293.429688 378.011719 285.957031 377.585938 278.476562 377.605469 L 278.476562 445.890625 Z M 199.960938 431.21875 C 204.128906 438.078125 208.941406 442.359375 217.320312 442.359375 C 225.980469 442.359375 232.195312 435.175781 232.195312 426.730469 C 232.195312 406.824219 198.667969 415.613281 198.667969 391.410156 C 198.667969 377.605469 209.597656 370.878906 222.453125 370.878906 C 227.578125 370.878906 233.808594 372.472656 237.75 376 C 236.472656 378.777344 235.726562 381.765625 234.871094 384.773438 L 233.808594 384.773438 C 231.558594 378.984375 226.851562 375.460938 220.53125 375.460938 C 213.132812 375.460938 207.039062 380.398438 207.039062 387.972656 C 207.039062 407.683594 240.769531 399.753906 240.769531 422.5625 C 240.769531 437.867188 228.855469 446.96875 214.304688 446.96875 C 209.066406 446.96875 200.496094 444.726562 196.851562 440.753906 C 197.910156 437.644531 198.453125 434.429688 198.882812 431.21875 Z M 156.464844 384.894531 L 144.800781 412.28125 L 168.355469 412.28125 Z M 156.464844 384.894531 "/>
</g>
</svg>
