<?xml version="1.0" encoding="UTF-8"?>
<svg xmlns="http://www.w3.org/2000/svg" xmlns:xlink="http://www.w3.org/1999/xlink" width="1000px" height="1000px" viewBox="0 0 1000 1000" version="1.1">
<g id="surface1">
<rect x="0" y="0" width="1000" height="1000" style="fill:rgb(100%,100%,100%);fill-opacity:1;stroke:none;"/>
<path style=" stroke:none;fill-rule:evenodd;fill:rgb(100%,100%,100%);fill-opacity:1;" d="M 46.074219 500 C 46.074219 372.726562 248.59375 269.546875 500.003906 269.546875 C 751.40625 269.546875 953.929688 372.726562 953.929688 500 C 953.929688 627.28125 751.410156 730.457031 500.003906 730.457031 C 248.59375 730.457031 46.074219 627.28125 46.074219 500 Z M 46.074219 500 "/>
<path style=" stroke:none;fill-rule:evenodd;fill:rgb(80%,12.941176%,19.607843%);fill-opacity:1;" d="M 500 311.445312 C 756.640625 311.445312 912.023438 416.464844 912.023438 500 C 912.023438 583.539062 756.640625 688.554688 500 688.554688 C 243.347656 688.554688 87.972656 583.539062 87.972656 500 C 87.976562 416.464844 243.355469 311.445312 500 311.445312 Z M 500 311.445312 "/>
<path style=" stroke:none;fill-rule:evenodd;fill:rgb(0%,0%,0%);fill-opacity:1;" d="M 500 267.59375 C 751.160156 267.59375 955.882812 370.679688 955.882812 500 C 955.882812 629.324219 751.160156 732.414062 500 732.414062 C 248.839844 732.414062 44.113281 629.324219 44.113281 500 C 44.117188 370.679688 248.839844 267.59375 500 267.59375 Z M 500 271.503906 C 248.34375 271.503906 48.023438 374.765625 48.023438 500 C 48.023438 625.234375 248.34375 728.5 500 728.5 C 751.644531 728.5 951.96875 625.234375 951.96875 500 C 951.96875 374.765625 751.648438 271.503906 500 271.503906 Z M 500 271.503906 "/>
<path style=" stroke:none;fill-rule:evenodd;fill:rgb(0%,0%,0%);fill-opacity:1;" d="M 913.984375 500 C 913.984375 585.558594 756.445312 690.511719 500.003906 690.511719 C 243.566406 690.511719 86.019531 585.558594 86.019531 500 C 86.019531 414.441406 243.566406 309.488281 500.003906 309.488281 C 756.445312 309.488281 913.984375 414.441406 913.984375 500 Z M 910.074219 500 C 910.074219 418.488281 756.859375 313.402344 500.003906 313.402344 C 243.140625 313.402344 89.933594 418.488281 89.933594 500 C 89.933594 581.511719 243.140625 686.597656 500.003906 686.597656 C 756.859375 686.597656 910.074219 581.511719 910.074219 500 Z M 910.074219 500 "/>
<path style=" stroke:none;fill-rule:evenodd;fill:rgb(80%,12.941176%,19.607843%);fill-opacity:1;" d="M 510.46875 290.496094 C 510.46875 296.28125 505.78125 300.972656 499.996094 300.972656 C 494.210938 300.972656 489.519531 296.28125 489.519531 290.496094 C 489.519531 284.710938 494.210938 280.023438 499.996094 280.023438 C 505.78125 280.023438 510.46875 284.710938 510.46875 290.496094 Z M 475.875 290.789062 C 476.070312 294.570312 474.210938 298.160156 471.011719 300.183594 C 467.8125 302.207031 463.769531 302.347656 460.4375 300.550781 C 457.105469 298.753906 455 295.300781 454.933594 291.511719 C 454.832031 285.796875 459.332031 281.050781 465.046875 280.855469 C 470.761719 280.65625 475.582031 285.074219 475.875 290.789062 Z M 441.3125 292.40625 C 441.71875 298.179688 437.367188 303.183594 431.59375 303.589844 C 425.824219 303.992188 420.816406 299.640625 420.414062 293.867188 C 420.007812 288.097656 424.359375 283.089844 430.132812 282.6875 C 435.902344 282.28125 440.910156 286.632812 441.3125 292.40625 Z M 406.824219 295.253906 C 407.363281 299.007812 405.828125 302.757812 402.816406 305.058594 C 399.804688 307.363281 395.785156 307.855469 392.304688 306.355469 C 388.824219 304.851562 386.425781 301.582031 386.039062 297.8125 C 385.453125 292.136719 389.515625 287.039062 395.175781 286.34375 C 400.839844 285.644531 406.015625 289.605469 406.824219 295.253906 Z M 372.523438 299.746094 C 373.429688 305.460938 369.53125 310.824219 363.816406 311.730469 C 358.105469 312.636719 352.738281 308.738281 351.832031 303.027344 C 350.929688 297.3125 354.824219 291.945312 360.539062 291.035156 C 366.253906 290.132812 371.617188 294.035156 372.523438 299.746094 Z M 338.421875 305.605469 C 339.234375 309.28125 338.007812 313.109375 335.21875 315.632812 C 332.425781 318.15625 328.496094 318.992188 324.917969 317.816406 C 321.34375 316.640625 318.671875 313.640625 317.921875 309.953125 C 316.773438 304.3125 320.386719 298.800781 326.015625 297.609375 C 331.644531 296.414062 337.183594 299.984375 338.421875 305.605469 Z M 304.644531 313.109375 C 305.695312 316.753906 304.695312 320.679688 302.03125 323.378906 C 299.363281 326.078125 295.449219 327.125 291.792969 326.117188 C 288.136719 325.113281 285.308594 322.207031 284.402344 318.527344 C 283.03125 312.984375 286.351562 307.367188 291.867188 305.890625 C 297.382812 304.414062 303.0625 307.625 304.644531 313.109375 Z M 271.3125 322.402344 C 273.101562 327.902344 270.09375 333.8125 264.59375 335.601562 C 259.09375 337.390625 253.183594 334.382812 251.394531 328.882812 C 249.605469 323.382812 252.613281 317.472656 258.113281 315.683594 C 263.613281 313.894531 269.523438 316.902344 271.3125 322.402344 Z M 238.597656 333.648438 C 240.058594 337.167969 239.496094 341.207031 237.125 344.191406 C 234.753906 347.175781 230.949219 348.636719 227.1875 348.007812 C 223.429688 347.378906 220.308594 344.757812 219.039062 341.160156 C 217.148438 335.808594 219.863281 329.921875 225.164062 327.886719 C 230.460938 325.851562 236.417969 328.40625 238.597656 333.648438 Z M 206.554688 346.71875 C 208.257812 350.089844 208.011719 354.113281 205.914062 357.253906 C 203.816406 360.394531 200.191406 362.160156 196.425781 361.878906 C 192.664062 361.601562 189.339844 359.316406 187.730469 355.902344 C 185.285156 350.71875 187.460938 344.53125 192.613281 342.019531 C 197.761719 339.507812 203.976562 341.601562 206.554688 346.71875 Z M 175.636719 362.257812 C 177.625 365.46875 177.730469 369.5 175.910156 372.8125 C 174.09375 376.121094 170.636719 378.199219 166.859375 378.25 C 163.082031 378.296875 159.574219 376.308594 157.671875 373.046875 C 154.785156 368.09375 156.414062 361.738281 161.328125 358.785156 C 166.246094 355.832031 172.621094 357.378906 175.636719 362.257812 Z M 146.328125 380.640625 C 149.734375 385.320312 148.695312 391.875 144.011719 395.273438 C 139.328125 398.675781 132.773438 397.640625 129.371094 392.957031 C 125.96875 388.273438 127.007812 381.71875 131.691406 378.316406 C 136.375 374.914062 142.929688 375.957031 146.328125 380.640625 Z M 118.957031 401.835938 C 123.042969 405.921875 123.042969 412.550781 118.953125 416.636719 C 114.867188 420.726562 108.238281 420.726562 104.152344 416.636719 C 100.0625 412.550781 100.0625 405.921875 104.148438 401.835938 C 108.238281 397.742188 114.871094 397.742188 118.957031 401.835938 Z M 95.191406 426.992188 C 98.386719 429.085938 100.1875 432.753906 99.894531 436.558594 C 99.597656 440.367188 97.253906 443.714844 93.777344 445.292969 C 90.300781 446.875 86.238281 446.4375 83.175781 444.152344 C 78.636719 440.765625 77.609375 434.382812 80.859375 429.742188 C 84.109375 425.101562 90.457031 423.882812 95.191406 426.992188 Z M 76.558594 456.214844 C 82.03125 458.097656 84.941406 464.0625 83.054688 469.535156 C 81.171875 475.007812 75.207031 477.914062 69.734375 476.03125 C 64.261719 474.148438 61.355469 468.183594 63.238281 462.710938 C 65.121094 457.238281 71.085938 454.332031 76.558594 456.214844 Z M 510.488281 709.507812 C 510.488281 715.296875 505.796875 719.988281 500.007812 719.984375 C 494.21875 719.984375 489.53125 715.289062 489.53125 709.503906 C 489.53125 703.714844 494.226562 699.023438 500.011719 699.027344 C 505.800781 699.027344 510.492188 703.71875 510.488281 709.507812 Z M 475.886719 709.210938 C 475.933594 713.074219 473.855469 716.652344 470.472656 718.515625 C 467.089844 720.382812 462.957031 720.238281 459.714844 718.140625 C 456.472656 716.042969 454.644531 712.332031 454.964844 708.480469 C 455.425781 702.90625 460.183594 698.675781 465.773438 698.871094 C 471.367188 699.066406 475.816406 703.617188 475.886719 709.210938 Z M 441.324219 707.59375 C 441.09375 711.351562 438.863281 714.691406 435.488281 716.351562 C 432.109375 718.011719 428.101562 717.730469 424.988281 715.617188 C 421.875 713.503906 420.132812 709.882812 420.429688 706.132812 C 420.878906 700.398438 425.863281 696.097656 431.601562 696.5 C 437.339844 696.902344 441.679688 701.855469 441.324219 707.59375 Z M 406.839844 704.75 C 406.453125 708.523438 404.054688 711.792969 400.574219 713.300781 C 397.089844 714.804688 393.066406 714.308594 390.050781 712.003906 C 387.039062 709.703125 385.503906 705.949219 386.042969 702.195312 C 386.851562 696.542969 392.03125 692.582031 397.695312 693.277344 C 403.359375 693.976562 407.425781 699.074219 406.839844 704.75 Z M 372.53125 700.253906 C 371.996094 703.996094 369.484375 707.15625 365.964844 708.527344 C 362.441406 709.902344 358.453125 709.269531 355.527344 706.878906 C 352.601562 704.488281 351.191406 700.703125 351.832031 696.980469 C 352.808594 691.335938 358.136719 687.519531 363.796875 688.414062 C 369.457031 689.308594 373.347656 694.582031 372.53125 700.253906 Z M 338.429688 694.402344 C 337.222656 700.058594 331.660156 703.671875 326.003906 702.46875 C 320.34375 701.265625 316.730469 695.703125 317.9375 690.042969 C 319.140625 684.382812 324.703125 680.773438 330.359375 681.976562 C 336.019531 683.179688 339.632812 688.742188 338.429688 694.402344 Z M 304.648438 686.890625 C 303.761719 690.59375 300.933594 693.527344 297.261719 694.546875 C 293.589844 695.566406 289.652344 694.511719 286.980469 691.792969 C 284.3125 689.074219 283.328125 685.121094 284.410156 681.46875 C 286.027344 676.023438 291.683594 672.859375 297.167969 674.328125 C 302.652344 675.796875 305.972656 681.367188 304.648438 686.890625 Z M 271.316406 677.597656 C 269.53125 683.097656 263.621094 686.109375 258.121094 684.324219 C 252.621094 682.539062 249.609375 676.628906 251.394531 671.128906 C 253.183594 665.628906 259.089844 662.617188 264.589844 664.402344 C 270.09375 666.1875 273.105469 672.097656 271.316406 677.597656 Z M 238.597656 666.351562 C 237.328125 669.945312 234.207031 672.566406 230.445312 673.195312 C 226.6875 673.824219 222.882812 672.363281 220.511719 669.378906 C 218.140625 666.394531 217.574219 662.359375 219.039062 658.839844 C 221.21875 653.59375 227.171875 651.042969 232.472656 653.078125 C 237.773438 655.113281 240.488281 660.996094 238.597656 666.351562 Z M 206.554688 653.28125 C 204.023438 658.480469 197.753906 660.644531 192.550781 658.109375 C 187.351562 655.574219 185.191406 649.304688 187.722656 644.105469 C 190.257812 638.902344 196.527344 636.742188 201.730469 639.277344 C 206.929688 641.8125 209.089844 648.082031 206.554688 653.28125 Z M 175.632812 637.75 C 172.652344 642.707031 166.21875 644.3125 161.253906 641.328125 C 156.289062 638.347656 154.6875 631.917969 157.675781 626.953125 C 160.65625 621.996094 167.09375 620.390625 172.050781 623.375 C 177.011719 626.355469 178.613281 632.792969 175.632812 637.75 Z M 146.328125 619.359375 C 144.160156 622.46875 140.480469 624.164062 136.707031 623.789062 C 132.933594 623.417969 129.65625 621.035156 128.136719 617.5625 C 126.617188 614.089844 127.089844 610.066406 129.375 607.042969 C 132.820312 602.488281 139.273438 601.527344 143.894531 604.882812 C 148.515625 608.238281 149.597656 614.675781 146.328125 619.359375 Z M 118.953125 598.171875 C 116.328125 600.914062 112.417969 602.023438 108.742188 601.066406 C 105.066406 600.109375 102.195312 597.234375 101.238281 593.558594 C 100.285156 589.878906 101.394531 585.972656 104.140625 583.347656 C 108.261719 579.414062 114.769531 579.488281 118.796875 583.515625 C 122.820312 587.546875 122.890625 594.054688 118.953125 598.171875 Z M 95.175781 573.015625 C 90.4375 576.332031 83.902344 575.183594 80.582031 570.441406 C 77.265625 565.699219 78.417969 559.167969 83.15625 555.847656 C 87.898438 552.527344 94.429688 553.679688 97.75 558.421875 C 101.070312 563.160156 99.917969 569.695312 95.175781 573.015625 Z M 76.542969 543.792969 C 72.980469 545.085938 69 544.359375 66.125 541.890625 C 63.253906 539.417969 61.9375 535.589844 62.683594 531.875 C 63.433594 528.164062 66.125 525.140625 69.730469 523.972656 C 75.167969 522.210938 81.011719 525.132812 82.871094 530.535156 C 84.726562 535.941406 81.914062 541.835938 76.542969 543.792969 Z M 67.390625 510.46875 C 63.609375 510.664062 60.015625 508.804688 57.992188 505.605469 C 55.96875 502.402344 55.828125 498.359375 57.625 495.027344 C 59.425781 491.691406 62.882812 489.589844 66.667969 489.527344 C 72.386719 489.429688 77.125 493.929688 77.320312 499.644531 C 77.519531 505.355469 73.101562 510.171875 67.390625 510.46875 Z M 933.355469 489.53125 C 939.136719 489.730469 943.65625 494.578125 943.457031 500.359375 C 943.257812 506.136719 938.410156 510.660156 932.628906 510.457031 C 926.851562 510.257812 922.328125 505.410156 922.527344 499.632812 C 922.730469 493.851562 927.578125 489.332031 933.355469 489.53125 Z M 930.285156 523.976562 C 933.859375 525.167969 936.519531 528.1875 937.253906 531.882812 C 937.984375 535.578125 936.675781 539.382812 933.824219 541.84375 C 930.972656 544.308594 927.019531 545.046875 923.46875 543.785156 C 918.058594 541.859375 915.207031 535.9375 917.074219 530.507812 C 918.941406 525.078125 924.835938 522.164062 930.285156 523.976562 Z M 916.851562 555.851562 C 920.046875 557.949219 921.847656 561.613281 921.554688 565.421875 C 921.257812 569.230469 918.917969 572.578125 915.4375 574.15625 C 911.960938 575.734375 907.898438 575.296875 904.839844 573.015625 C 900.296875 569.628906 899.273438 563.246094 902.519531 558.605469 C 905.769531 553.964844 912.117188 552.746094 916.851562 555.851562 Z M 895.878906 583.355469 C 899.96875 587.445312 899.96875 594.074219 895.878906 598.164062 C 891.789062 602.253906 885.15625 602.253906 881.066406 598.164062 C 876.976562 594.074219 876.976562 587.445312 881.066406 583.355469 C 885.15625 579.265625 891.789062 579.265625 895.878906 583.355469 Z M 870.632812 607.046875 C 872.929688 610.070312 873.414062 614.097656 871.894531 617.578125 C 870.375 621.054688 867.09375 623.441406 863.316406 623.808594 C 859.539062 624.179688 855.855469 622.476562 853.691406 619.359375 C 850.441406 614.679688 851.53125 608.261719 856.136719 604.910156 C 860.746094 601.5625 867.1875 602.511719 870.632812 607.046875 Z M 842.335938 626.957031 C 845.3125 631.914062 843.710938 638.347656 838.753906 641.324219 C 833.800781 644.304688 827.367188 642.703125 824.386719 637.746094 C 821.410156 632.789062 823.011719 626.355469 827.96875 623.378906 C 830.347656 621.945312 833.199219 621.515625 835.894531 622.1875 C 838.589844 622.859375 840.90625 624.574219 842.335938 626.957031 Z M 812.28125 644.09375 C 814.816406 649.292969 812.65625 655.5625 807.457031 658.097656 C 802.257812 660.632812 795.988281 658.476562 793.453125 653.277344 C 791.011719 648.09375 793.1875 641.910156 798.335938 639.398438 C 803.488281 636.882812 809.699219 638.976562 812.28125 644.09375 Z M 780.972656 658.84375 C 782.511719 662.378906 781.988281 666.472656 779.609375 669.507812 C 777.226562 672.539062 773.371094 674.019531 769.570312 673.359375 C 765.773438 672.699219 762.640625 670.003906 761.421875 666.34375 C 759.652344 661.027344 762.378906 655.257812 767.613281 653.25 C 772.84375 651.242188 778.730469 653.707031 780.972656 658.84375 Z M 748.621094 671.125 C 750.410156 676.625 747.402344 682.535156 741.902344 684.328125 C 736.402344 686.117188 730.488281 683.109375 728.699219 677.609375 C 726.90625 672.105469 729.914062 666.195312 735.417969 664.40625 C 740.917969 662.613281 746.828125 665.621094 748.621094 671.125 Z M 715.597656 681.46875 C 717.097656 687.054688 713.777344 692.800781 708.191406 694.296875 C 702.601562 695.792969 696.859375 692.476562 695.359375 686.890625 C 694.039062 681.367188 697.355469 675.796875 702.839844 674.328125 C 708.324219 672.859375 713.984375 676.023438 715.597656 681.46875 Z M 682.078125 690.042969 C 682.9375 693.734375 681.734375 697.601562 678.933594 700.15625 C 676.132812 702.710938 672.167969 703.550781 668.570312 702.359375 C 664.976562 701.164062 662.300781 698.121094 661.582031 694.402344 C 660.5 688.792969 664.105469 683.347656 669.691406 682.160156 C 675.28125 680.972656 680.789062 684.480469 682.078125 690.042969 Z M 648.171875 696.972656 C 649.078125 702.6875 645.183594 708.054688 639.472656 708.964844 C 633.757812 709.871094 628.390625 705.976562 627.480469 700.261719 C 626.574219 694.550781 630.46875 689.183594 636.183594 688.273438 C 641.894531 687.367188 647.261719 691.261719 648.171875 696.972656 Z M 613.96875 702.199219 C 614.671875 707.941406 610.589844 713.167969 604.847656 713.871094 C 599.105469 714.578125 593.878906 710.492188 593.175781 704.75 C 592.835938 701.992188 593.605469 699.214844 595.316406 697.023438 C 597.027344 694.835938 599.539062 693.414062 602.296875 693.078125 C 605.054688 692.738281 607.832031 693.507812 610.023438 695.21875 C 612.210938 696.929688 613.632812 699.441406 613.96875 702.199219 Z M 579.585938 706.125 C 579.785156 708.898438 578.871094 711.632812 577.046875 713.730469 C 575.226562 715.828125 572.644531 717.113281 569.871094 717.304688 C 564.101562 717.710938 559.09375 713.359375 558.691406 707.589844 C 558.285156 701.816406 562.636719 696.8125 568.40625 696.410156 C 574.179688 696.003906 579.183594 700.355469 579.585938 706.125 Z M 545.0625 708.480469 C 545.253906 712.257812 543.394531 715.84375 540.203125 717.863281 C 537.007812 719.882812 532.972656 720.027344 529.640625 718.238281 C 526.3125 716.449219 524.207031 713.003906 524.128906 709.222656 C 524.011719 703.5 528.511719 698.746094 534.230469 698.542969 C 539.949219 698.339844 544.773438 702.765625 545.0625 708.480469 Z M 545.0625 708.480469 "/>
<path style=" stroke:none;fill-rule:evenodd;fill:rgb(80%,12.941176%,19.607843%);fill-opacity:1;" d="M 489.542969 290.496094 C 489.542969 284.710938 494.234375 280.015625 500.019531 280.015625 C 505.808594 280.015625 510.5 284.710938 510.5 290.496094 C 510.5 296.285156 505.808594 300.976562 500.019531 300.976562 C 494.234375 300.976562 489.542969 296.285156 489.542969 290.496094 Z M 524.140625 290.789062 C 524.214844 287.007812 526.324219 283.558594 529.65625 281.769531 C 532.984375 279.976562 537.023438 280.121094 540.21875 282.144531 C 543.414062 284.164062 545.273438 287.753906 545.082031 291.527344 C 544.792969 297.246094 539.96875 301.675781 534.246094 301.472656 C 528.523438 301.269531 524.023438 296.511719 524.140625 290.789062 Z M 558.699219 292.40625 C 558.933594 288.648438 561.160156 285.308594 564.539062 283.648438 C 567.917969 281.988281 571.925781 282.269531 575.039062 284.382812 C 578.152344 286.496094 579.890625 290.117188 579.597656 293.867188 C 579.148438 299.601562 574.160156 303.902344 568.425781 303.5 C 562.6875 303.097656 558.347656 298.144531 558.699219 292.40625 Z M 593.183594 295.253906 C 593.890625 289.511719 599.117188 285.429688 604.859375 286.132812 C 610.601562 286.839844 614.683594 292.066406 613.976562 297.804688 C 613.273438 303.546875 608.046875 307.632812 602.304688 306.925781 C 596.5625 306.222656 592.480469 300.996094 593.183594 295.253906 Z M 627.492188 299.746094 C 628.039062 296.015625 630.550781 292.863281 634.070312 291.5 C 637.585938 290.136719 641.5625 290.765625 644.488281 293.148438 C 647.410156 295.535156 648.824219 299.308594 648.191406 303.027344 C 647.230469 308.6875 641.890625 312.519531 636.222656 311.621094 C 630.550781 310.722656 626.660156 305.425781 627.492188 299.746094 Z M 661.585938 305.605469 C 662.890625 300.054688 668.390625 296.5625 673.96875 297.746094 C 679.542969 298.929688 683.152344 304.355469 682.085938 309.957031 C 680.785156 315.507812 675.28125 319 669.707031 317.816406 C 664.128906 316.628906 660.519531 311.203125 661.585938 305.605469 Z M 695.371094 313.109375 C 696.988281 307.667969 702.644531 304.5 708.128906 305.972656 C 713.613281 307.441406 716.929688 313.011719 715.609375 318.53125 C 713.992188 323.976562 708.335938 327.140625 702.851562 325.671875 C 697.367188 324.203125 694.050781 318.632812 695.371094 313.109375 Z M 728.699219 322.402344 C 729.792969 318.761719 732.769531 316 736.480469 315.183594 C 740.191406 314.367188 744.054688 315.621094 746.578125 318.464844 C 749.097656 321.308594 749.882812 325.296875 748.625 328.882812 C 746.742188 334.257812 740.910156 337.144531 735.496094 335.382812 C 730.078125 333.621094 727.058594 327.855469 728.699219 322.402344 Z M 761.417969 333.648438 C 763.492188 328.242188 769.554688 325.550781 774.953125 327.621094 C 780.355469 329.691406 783.050781 335.757812 780.972656 341.152344 C 779.980469 343.746094 777.996094 345.839844 775.460938 346.972656 C 772.921875 348.101562 770.039062 348.175781 767.445312 347.179688 C 764.851562 346.1875 762.757812 344.203125 761.625 341.664062 C 760.496094 339.125 760.421875 336.242188 761.417969 333.648438 Z M 793.453125 346.71875 C 795.988281 341.519531 802.261719 339.359375 807.460938 341.894531 C 812.660156 344.429688 814.820312 350.699219 812.285156 355.902344 C 809.75 361.101562 803.480469 363.261719 798.277344 360.726562 C 793.078125 358.191406 790.917969 351.917969 793.453125 346.71875 Z M 824.378906 362.257812 C 826.257812 358.953125 829.78125 356.925781 833.582031 356.964844 C 837.378906 357 840.863281 359.089844 842.679688 362.425781 C 844.5 365.765625 844.367188 369.824219 842.335938 373.035156 C 839.292969 377.84375 832.96875 379.347656 828.089844 376.417969 C 823.210938 373.488281 821.566406 367.199219 824.378906 362.257812 Z M 853.683594 380.640625 C 857.085938 375.964844 863.632812 374.925781 868.3125 378.324219 C 872.992188 381.726562 874.027344 388.273438 870.628906 392.953125 C 867.230469 397.632812 860.679688 398.667969 856 395.269531 C 851.324219 391.871094 850.285156 385.320312 853.683594 380.640625 Z M 881.050781 401.835938 C 885.140625 397.75 891.769531 397.75 895.855469 401.839844 C 899.941406 405.925781 899.941406 412.554688 895.855469 416.640625 C 891.769531 420.730469 885.140625 420.730469 881.050781 416.644531 C 876.960938 412.558594 876.960938 405.921875 881.050781 401.835938 Z M 904.824219 426.992188 C 909.5625 423.671875 916.09375 424.824219 919.410156 429.5625 C 922.730469 434.304688 921.578125 440.835938 916.835938 444.152344 C 912.097656 447.46875 905.566406 446.316406 902.25 441.578125 C 898.929688 436.839844 900.082031 430.308594 904.824219 426.992188 Z M 923.457031 456.214844 C 928.925781 454.332031 934.886719 457.238281 936.769531 462.710938 C 938.652344 468.179688 935.746094 474.140625 930.273438 476.023438 C 924.804688 477.902344 918.84375 474.996094 916.960938 469.527344 C 915.078125 464.054688 917.988281 458.097656 923.457031 456.214844 Z M 923.457031 456.214844 "/>
<path style=" stroke:none;fill-rule:evenodd;fill:rgb(100%,100%,100%);fill-opacity:1;" d="M 163.910156 572.988281 L 209.164062 572.988281 C 228.082031 572.988281 241.394531 552.800781 241.394531 536.191406 C 241.394531 520.339844 233.929688 510.910156 225.328125 506.226562 L 221.90625 504.363281 L 225.234375 502.335938 C 232.957031 497.628906 237.949219 484.691406 237.949219 475.855469 C 237.949219 464.675781 231.226562 449.210938 216.148438 444.226562 L 216.695312 442.679688 C 220.632812 443.992188 223.828125 445.84375 226.238281 447.554688 C 228.761719 449.34375 230.429688 450.980469 231.199219 451.675781 C 233.132812 453.433594 236.449219 456.472656 239.449219 459.867188 C 242.050781 462.8125 244.195312 465.574219 245.6875 467.78125 C 250.128906 474.371094 252.203125 482.089844 252.203125 488.378906 C 252.203125 497.140625 247.53125 510.011719 239.742188 515.601562 L 239.226562 515.96875 L 245.140625 521.882812 C 251.214844 527.5625 255.65625 536.292969 255.65625 548.714844 C 255.65625 565.882812 241.925781 587.207031 221.722656 587.207031 L 173.679688 587.207031 L 161.671875 575.230469 Z M 200.492188 556.183594 L 186.234375 556.183594 L 186.234375 512.652344 L 202.269531 512.652344 C 209.273438 512.652344 215.089844 519.050781 217.332031 527.222656 C 216.515625 526.996094 215.671875 526.882812 214.824219 526.882812 L 200.492188 526.882812 Z M 200.492188 495.78125 C 199.9375 495.828125 199.382812 495.851562 198.828125 495.851562 L 186.242188 495.851562 L 186.242188 459.414062 L 198.828125 459.414062 C 206.390625 459.414062 213.21875 464.523438 214.609375 474 C 213.550781 473.757812 212.46875 473.640625 211.382812 473.640625 L 200.496094 473.640625 L 200.496094 495.78125 Z M 311.195312 576.207031 C 332.316406 576.207031 350.324219 558.664062 350.324219 537.316406 L 350.324219 443.378906 L 352.570312 441.132812 L 364.582031 453.113281 L 364.582031 549.835938 C 364.582031 572.148438 345.789062 590.429688 323.75 590.429688 C 314.246094 590.429688 304.332031 586.488281 294.480469 579.132812 C 287.523438 573.933594 280.632812 564.984375 279.5625 562.714844 C 279.167969 561.890625 277.507812 559.132812 275.695312 555.4375 L 276.566406 555.199219 C 283.203125 567.632812 296.433594 576.207031 311.195312 576.207031 Z M 297.40625 441.132812 L 309.417969 453.113281 L 309.417969 549.835938 C 309.417969 550.902344 309.53125 551.945312 309.753906 552.953125 C 301.082031 552.269531 295.160156 545.382812 295.160156 537.316406 L 295.15625 443.378906 Z M 390.976562 561.804688 C 390.554688 560.917969 388.785156 558 386.945312 554.113281 L 387.859375 553.820312 C 394.300781 566.996094 408.089844 576.214844 423.410156 576.214844 C 450.097656 576.214844 462.261719 560.746094 462.261719 537.316406 L 462.261719 507.261719 L 464.507812 505.015625 L 476.519531 516.996094 L 476.519531 549.835938 C 476.519531 574.097656 463.691406 590.425781 435.960938 590.425781 C 425.921875 590.425781 416.34375 586.542969 406.421875 579.132812 C 399.148438 573.703125 392.054688 564.082031 390.976562 561.804688 Z M 439.214844 537.507812 L 427.203125 525.53125 L 429.449219 523.277344 L 442.621094 523.277344 L 442.621094 537.503906 L 439.214844 537.503906 Z M 407.101562 537.328125 L 407.101562 478.289062 C 407.101562 468.949219 413.710938 460.976562 423.207031 460.136719 C 433.671875 459.21875 441.210938 466.007812 442.441406 475.511719 C 440.5 474.761719 438.300781 474.144531 435.910156 474.355469 C 427.363281 475.109375 421.351562 482.386719 421.351562 490.808594 L 421.351562 549.84375 C 421.351562 551.433594 421.617188 553.003906 422.109375 554.503906 C 413.257812 553.175781 407.101562 545.410156 407.101562 537.328125 Z M 453.195312 447.234375 C 456.59375 449.847656 460.191406 452.832031 463.886719 457.144531 C 467.257812 461.082031 469.71875 464.933594 471.433594 468.09375 C 474.839844 474.363281 476.519531 482.058594 476.519531 490.808594 L 476.519531 493.058594 L 453.152344 493.058594 L 441.144531 481.078125 L 443.390625 478.828125 L 462.261719 478.828125 L 462.261719 478.289062 C 462.261719 460.324219 455.109375 446.964844 439.570312 441.765625 L 439.960938 440.121094 C 445.273438 441.875 449.480469 444.417969 453.195312 447.234375 Z M 538.703125 528.980469 L 521.566406 528.980469 L 535.691406 466.496094 C 536.574219 462.664062 539.351562 462.773438 540.09375 466.542969 L 546.109375 496.21875 Z M 560.609375 575.234375 L 562.863281 572.988281 L 585.417969 572.988281 L 555.578125 443.289062 L 557.257812 441.179688 L 569.273438 453.164062 L 601.222656 587.207031 L 572.613281 587.207031 Z M 531.152344 562.367188 L 525.539062 587.207031 L 497.585938 587.207031 L 485.628906 575.28125 L 488.589844 572.988281 L 511.617188 572.988281 L 517.238281 548.144531 L 556.636719 548.144531 L 559.527344 562.367188 Z M 622.230469 575.488281 L 624.484375 573.242188 L 646.808594 573.242188 L 646.808594 462.964844 L 674.386719 462.964844 L 674.386719 443.378906 L 676.628906 441.132812 L 688.644531 453.113281 L 688.644531 477.1875 L 661.0625 477.1875 L 661.0625 587.46875 L 634.242188 587.46875 Z M 606.664062 477.1875 L 594.660156 465.210938 L 596.910156 462.964844 L 623.722656 462.964844 L 623.722656 477.1875 Z M 707.59375 477.1875 L 695.589844 465.210938 L 697.839844 462.964844 L 724.652344 462.964844 L 724.652344 477.1875 Z M 777.558594 441.132812 L 789.5625 453.113281 L 789.5625 477.1875 L 761.984375 477.1875 L 761.984375 587.46875 L 735.171875 587.46875 L 723.167969 575.484375 L 725.417969 573.238281 L 747.734375 573.238281 L 747.734375 462.964844 L 775.3125 462.964844 L 775.3125 443.378906 Z M 826.375 441.132812 L 838.386719 453.113281 L 838.386719 587.207031 L 811.574219 587.207031 L 799.566406 575.234375 L 801.804688 572.988281 L 824.125 572.988281 L 824.125 443.378906 Z M 826.375 441.132812 "/>
<path style=" stroke:none;fill-rule:evenodd;fill:rgb(59.607843%,58.039216%,77.647059%);fill-opacity:1;" d="M 240.507812 475.859375 C 240.507812 468.773438 237.941406 459.90625 232.386719 452.769531 C 234.332031 454.5625 236.992188 457.101562 239.441406 459.871094 C 242.046875 462.816406 244.191406 465.578125 245.683594 467.789062 C 250.125 474.375 252.199219 482.097656 252.199219 488.382812 C 252.199219 497.148438 247.523438 510.019531 239.738281 515.605469 L 239.21875 515.972656 L 245.132812 521.886719 C 251.207031 527.570312 255.648438 536.300781 255.648438 548.71875 C 255.648438 565.886719 241.921875 587.214844 221.714844 587.214844 L 173.675781 587.214844 L 161.980469 575.550781 L 209.164062 575.550781 C 230.015625 575.550781 243.957031 553.644531 243.957031 536.195312 C 243.957031 519.675781 236.230469 509.453125 227.015625 504.238281 C 235.511719 498.699219 240.507812 485.042969 240.507812 475.859375 Z M 200.492188 553.628906 L 188.796875 553.628906 L 188.796875 515.214844 L 202.269531 515.214844 C 207.40625 515.214844 212.394531 520.035156 214.582031 526.882812 L 200.492188 526.882812 Z M 198.820312 461.976562 C 204.828125 461.976562 210.515625 465.835938 211.953125 473.652344 L 211.375 473.640625 L 200.492188 473.640625 L 200.492188 493.210938 C 199.953125 493.261719 199.398438 493.292969 198.828125 493.292969 L 188.796875 493.292969 L 188.796875 461.976562 Z M 309.417969 549.835938 L 309.425781 550.347656 C 302.394531 549.539062 297.722656 543.894531 297.722656 537.316406 L 297.71875 441.449219 L 309.417969 453.117188 Z M 282.941406 567.574219 C 290.449219 574.507812 300.445312 578.769531 311.195312 578.769531 C 333.703125 578.769531 352.882812 560.105469 352.882812 537.316406 L 352.882812 441.449219 L 364.574219 453.117188 L 364.574219 549.839844 C 364.574219 572.152344 345.785156 590.4375 323.746094 590.4375 C 314.242188 590.4375 304.328125 586.492188 294.476562 579.136719 C 290.144531 575.898438 285.832031 571.203125 282.941406 567.574219 Z M 394.878906 567.4375 C 402.460938 574.460938 412.582031 578.785156 423.410156 578.785156 C 451.664062 578.785156 464.820312 562.003906 464.820312 537.320312 L 464.820312 505.339844 L 476.519531 517 L 476.519531 549.839844 C 476.519531 574.105469 463.691406 590.429688 435.960938 590.429688 C 425.921875 590.429688 416.34375 586.550781 406.421875 579.136719 C 402.097656 575.910156 397.84375 571.203125 394.878906 567.4375 Z M 427.519531 525.847656 L 440.058594 525.847656 L 440.058594 537.507812 L 439.214844 537.507812 Z M 423.4375 462.695312 C 431.972656 461.941406 438.210938 467.058594 439.714844 474.664062 C 438.472656 474.363281 437.191406 474.261719 435.917969 474.363281 C 427.375 475.113281 421.363281 482.390625 421.363281 490.8125 L 421.363281 549.851562 C 421.363281 550.503906 421.402344 551.148438 421.492188 551.789062 C 414.460938 550.238281 409.664062 543.875 409.664062 537.332031 L 409.664062 478.292969 C 409.664062 470.164062 415.371094 463.398438 423.4375 462.695312 Z M 441.460938 481.394531 L 464.820312 481.394531 L 464.820312 478.289062 C 464.820312 466.183594 461.65625 455.980469 455.097656 448.726562 C 457.925781 450.996094 460.878906 453.625 463.886719 457.144531 C 467.257812 461.082031 469.71875 464.933594 471.433594 468.09375 C 474.839844 474.363281 476.519531 482.058594 476.519531 490.808594 L 476.519531 493.058594 L 453.152344 493.058594 Z M 539.277344 526.417969 L 524.777344 526.417969 L 537.867188 468.488281 L 544.730469 502.308594 Z M 560.921875 575.546875 L 588.636719 575.546875 L 557.859375 441.777344 L 569.269531 453.160156 L 601.214844 587.203125 L 572.609375 587.203125 Z M 485.894531 575.546875 L 513.664062 575.546875 L 519.289062 550.707031 L 554.550781 550.707031 L 556.910156 562.367188 L 531.152344 562.367188 L 525.539062 587.207031 L 497.585938 587.207031 Z M 622.546875 575.804688 L 649.371094 575.804688 L 649.371094 465.527344 L 676.949219 465.527344 L 676.949219 441.445312 L 688.644531 453.113281 L 688.644531 477.1875 L 661.0625 477.1875 L 661.0625 587.46875 L 634.242188 587.46875 Z M 594.980469 465.527344 L 621.152344 465.527344 L 621.152344 477.1875 L 606.664062 477.1875 Z M 695.902344 465.527344 L 722.082031 465.527344 L 722.082031 477.1875 L 707.59375 477.1875 Z M 723.480469 575.804688 L 750.289062 575.804688 L 750.289062 465.527344 L 777.871094 465.527344 L 777.871094 441.445312 L 789.5625 453.113281 L 789.5625 477.1875 L 761.984375 477.1875 L 761.984375 587.46875 L 735.171875 587.46875 Z M 799.882812 575.546875 L 826.691406 575.546875 L 826.691406 441.449219 L 838.386719 453.113281 L 838.386719 587.207031 L 811.574219 587.207031 Z M 799.882812 575.546875 "/>
<path style=" stroke:none;fill-rule:evenodd;fill:rgb(0%,0%,0%);fill-opacity:1;" d="M 160.898438 575.234375 L 163.6875 572.449219 L 209.164062 572.449219 C 227.675781 572.449219 240.855469 552.632812 240.855469 536.195312 C 240.855469 520.542969 233.496094 511.292969 225.070312 506.703125 L 220.824219 504.390625 L 224.953125 501.878906 C 232.453125 497.300781 237.402344 484.585938 237.402344 475.859375 C 237.402344 464.710938 230.609375 449.277344 215.449219 444.578125 L 216.355469 442.003906 C 224.816406 444.6875 230.003906 449.871094 231.5625 451.28125 C 233.496094 453.039062 236.832031 456.101562 239.851562 459.507812 C 242.472656 462.476562 244.628906 465.25 246.136719 467.488281 C 250.644531 474.164062 252.746094 481.988281 252.746094 488.382812 C 252.746094 497.261719 248.027344 510.324219 240.054688 516.039062 L 245.511719 521.503906 C 251.703125 527.289062 256.1875 536.164062 256.1875 548.71875 C 256.1875 566.0625 242.328125 587.757812 221.714844 587.757812 L 173.453125 587.757812 Z M 201.03125 527.417969 L 201.03125 556.730469 L 185.691406 556.730469 L 185.691406 512.101562 L 202.269531 512.101562 C 209.914062 512.101562 216.035156 519.320312 218.097656 528.03125 C 217.054688 527.628906 215.945312 527.417969 214.824219 527.414062 L 201.03125 527.414062 Z M 201.03125 474.183594 L 201.03125 496.28125 C 200.296875 496.359375 199.558594 496.398438 198.820312 496.394531 L 185.691406 496.394531 L 185.691406 458.875 L 198.820312 458.875 C 206.871094 458.875 214.09375 464.492188 215.246094 474.730469 C 213.988281 474.367188 212.683594 474.183594 211.375 474.183594 Z M 276.847656 554.566406 C 283.320312 567.042969 296.492188 575.664062 311.195312 575.664062 C 332.027344 575.664062 349.777344 558.359375 349.777344 537.316406 L 349.777344 443.15625 L 352.570312 440.371094 L 365.121094 452.886719 L 365.121094 549.839844 C 365.121094 572.453125 346.085938 590.980469 323.746094 590.980469 C 314.089844 590.980469 304.066406 586.976562 294.148438 579.578125 C 287.136719 574.335938 280.1875 565.324219 279.066406 562.960938 C 278.652344 562.089844 276.835938 559.078125 274.917969 555.09375 Z M 294.617188 443.15625 L 297.40625 440.371094 L 309.957031 452.886719 L 309.960938 549.839844 C 309.960938 551.117188 310.132812 552.363281 310.460938 553.542969 C 301.089844 553.179688 294.617188 545.890625 294.617188 537.320312 Z M 546.65625 496.21875 L 539.136719 529.519531 L 520.886719 529.519531 L 535.164062 466.371094 C 536.1875 461.941406 539.777344 462.117188 540.617188 466.433594 Z M 572.390625 587.757812 L 559.835938 575.234375 L 562.632812 572.449219 L 584.734375 572.449219 L 554.996094 443.15625 L 557.21875 440.371094 L 569.773438 452.886719 L 601.910156 587.757812 Z M 560.183594 562.914062 L 531.589844 562.914062 L 525.964844 587.757812 L 497.363281 587.757812 L 484.808594 575.234375 L 488.398438 572.449219 L 511.191406 572.449219 L 516.804688 547.605469 L 557.082031 547.605469 Z M 634.019531 588.011719 L 621.464844 575.488281 L 624.261719 572.703125 L 646.257812 572.703125 L 646.257812 462.425781 L 673.835938 462.425781 L 673.835938 443.15625 L 676.621094 440.371094 L 689.175781 452.886719 L 689.175781 477.734375 L 661.597656 477.734375 L 661.597656 588.011719 Z M 624.261719 477.734375 L 606.433594 477.734375 L 593.878906 465.210938 L 596.675781 462.417969 L 624.253906 462.417969 L 624.253906 477.734375 Z M 725.179688 477.734375 L 707.367188 477.734375 L 694.8125 465.210938 L 697.597656 462.417969 L 725.175781 462.417969 L 725.175781 477.734375 Z M 774.773438 443.15625 L 777.558594 440.371094 L 790.113281 452.886719 L 790.113281 477.734375 L 762.535156 477.734375 L 762.535156 588.011719 L 734.953125 588.011719 L 722.398438 575.488281 L 725.1875 572.703125 L 747.191406 572.703125 L 747.191406 462.425781 L 774.773438 462.425781 Z M 823.589844 443.15625 L 826.375 440.371094 L 838.929688 452.886719 L 838.929688 587.757812 L 811.351562 587.757812 L 798.796875 575.234375 L 801.582031 572.449219 L 823.589844 572.449219 Z M 406.097656 579.570312 C 398.757812 574.089844 391.609375 564.402344 390.488281 562.035156 C 390.050781 561.109375 388.121094 557.949219 386.199219 553.78125 L 388.144531 553.160156 C 394.410156 566.390625 408.148438 575.675781 423.410156 575.675781 C 449.765625 575.675781 461.71875 560.480469 461.71875 537.316406 L 461.71875 507.039062 L 464.507812 504.25 L 477.058594 516.773438 L 477.058594 549.835938 C 477.058594 574.367188 464.027344 590.976562 435.960938 590.976562 C 425.769531 590.976562 416.085938 587.027344 406.097656 579.570312 Z M 443.167969 538.054688 L 438.984375 538.054688 L 426.433594 525.535156 L 429.222656 522.75 L 443.160156 522.75 L 443.160156 537.320312 Z M 422.929688 555.15625 C 413.320312 554.1875 406.554688 545.945312 406.554688 537.328125 L 406.554688 478.289062 C 406.554688 468.695312 413.355469 460.457031 423.160156 459.601562 C 434.265625 458.625 442.1875 466.113281 443.078125 476.355469 C 440.957031 475.476562 438.558594 474.671875 435.957031 474.902344 C 427.710938 475.628906 421.894531 482.644531 421.894531 490.8125 L 421.894531 549.851562 C 421.902344 551.667969 422.257812 553.464844 422.929688 555.15625 Z M 439.566406 439.425781 C 445.214844 441.207031 449.644531 443.863281 453.527344 446.804688 C 456.941406 449.429688 460.578125 452.4375 464.300781 456.789062 C 467.21875 460.195312 469.769531 463.898438 471.917969 467.835938 C 475.371094 474.207031 477.0625 481.992188 477.0625 490.8125 L 477.0625 493.601562 L 452.929688 493.601562 L 440.378906 481.085938 L 443.171875 478.289062 L 461.730469 478.289062 C 461.730469 460.296875 454.511719 447.113281 438.9375 442.128906 Z M 439.566406 439.425781 "/>
<path style=" stroke:none;fill-rule:evenodd;fill:rgb(100%,100%,100%);fill-opacity:1;" d="M 188.480469 514.898438 L 188.480469 553.9375 L 202.269531 553.9375 C 211.019531 553.9375 216.0625 544.320312 216.0625 534.417969 C 216.0625 523.765625 209.410156 514.894531 202.269531 514.894531 L 188.480469 514.894531 Z M 188.480469 461.660156 L 188.480469 493.601562 L 198.828125 493.601562 C 207.574219 493.601562 212.617188 487.539062 212.617188 477.628906 C 212.617188 466.984375 205.964844 461.65625 198.828125 461.65625 L 188.480469 461.65625 Z M 226.40625 504.25 C 235.71875 509.328125 243.644531 519.507812 243.644531 536.191406 C 243.644531 553.539062 229.78125 575.230469 209.164062 575.230469 L 160.898438 575.230469 L 160.898438 440.371094 L 205.714844 440.371094 C 229.851562 440.371094 240.191406 461.660156 240.191406 475.859375 C 240.191406 485.140625 235.039062 498.992188 226.40625 504.25 Z M 324.984375 537.316406 L 324.984375 440.371094 L 352.566406 440.371094 L 352.566406 537.320312 C 352.566406 559.9375 333.53125 578.457031 311.191406 578.457031 C 288.851562 578.457031 269.816406 559.941406 269.816406 537.320312 L 269.816406 440.371094 L 297.398438 440.371094 L 297.402344 537.320312 C 297.402344 544.605469 302.996094 550.769531 311.1875 550.769531 C 319.378906 550.769531 324.984375 544.605469 324.984375 537.316406 Z M 440.375 537.316406 L 440.375 525.535156 L 426.441406 525.535156 L 426.441406 504.242188 L 464.507812 504.25 L 464.507812 537.316406 C 464.507812 561.84375 451.472656 578.46875 423.410156 578.46875 C 401.078125 578.46875 381.769531 559.9375 381.769531 537.316406 L 381.769531 478.289062 C 381.769531 455.675781 401.078125 437.152344 423.410156 437.152344 C 451.472656 437.152344 464.507812 453.761719 464.507812 478.289062 L 464.507812 481.085938 L 440.375 481.085938 L 440.375 478.289062 C 440.375 468.578125 433.4375 461.496094 423.410156 462.378906 C 415.167969 463.105469 409.347656 470.015625 409.347656 478.289062 L 409.347656 537.328125 C 409.347656 544.609375 415.167969 551.675781 423.410156 552.398438 C 433.433594 553.28125 440.375 547.027344 440.375 537.316406 Z M 550 526.726562 L 537.882812 466.984375 L 524.382812 526.726562 Z M 484.808594 575.234375 L 519.289062 440.371094 L 557.21875 440.371094 L 588.242188 575.234375 L 559.835938 575.234375 L 554.800781 550.390625 L 519.027344 550.390625 L 513.40625 575.234375 Z M 649.042969 575.488281 L 621.464844 575.488281 L 621.464844 465.210938 L 593.886719 465.210938 L 593.886719 440.371094 L 676.628906 440.371094 L 676.628906 465.210938 L 649.042969 465.210938 Z M 749.972656 575.488281 L 722.394531 575.488281 L 722.394531 465.210938 L 694.816406 465.210938 L 694.816406 440.371094 L 777.558594 440.371094 L 777.558594 465.210938 L 749.972656 465.210938 Z M 798.796875 440.371094 L 826.375 440.371094 L 826.375 575.234375 L 798.796875 575.234375 Z M 798.796875 440.371094 "/>
<path style=" stroke:none;fill-rule:evenodd;fill:rgb(59.607843%,58.039216%,77.647059%);fill-opacity:1;" d="M 507.746094 380.53125 L 507.746094 403.1875 L 530.15625 403.1875 C 537.226562 403.1875 541.488281 398.09375 541.488281 391.863281 C 541.488281 385.632812 537.234375 380.53125 530.15625 380.53125 Z M 507.746094 345.40625 L 507.746094 365.589844 L 530.15625 365.589844 C 536.417969 365.589844 540.257812 361.050781 540.257812 355.496094 C 540.257812 349.949219 536.417969 345.40625 530.15625 345.40625 Z M 464.460938 381.074219 L 464.460938 360.253906 L 476.929688 360.253906 L 476.929688 365.589844 L 490.957031 365.589844 L 490.957031 345.40625 L 457.273438 345.40625 L 457.273438 352.1875 L 444.800781 352.1875 L 444.800781 332.933594 L 530.15625 332.933594 C 539.5 332.933594 547.976562 338.394531 551.835938 346.902344 C 555.695312 355.410156 554.21875 365.386719 548.0625 372.414062 L 547.738281 372.789062 L 548.082031 373.144531 C 555.113281 380.351562 557.140625 391.070312 553.226562 400.347656 C 549.316406 409.625 540.226562 415.65625 530.15625 415.65625 L 444.800781 415.65625 L 444.800781 396.402344 L 457.273438 396.402344 L 457.273438 403.183594 L 490.957031 403.183594 L 490.957031 380.53125 L 476.929688 380.53125 L 476.929688 385.875 L 464.460938 385.875 Z M 464.460938 381.074219 "/>
<path style=" stroke:none;fill-rule:evenodd;fill:rgb(0%,0%,0%);fill-opacity:1;" d="M 530.15625 402.636719 C 536.90625 402.636719 540.949219 397.8125 540.949219 391.859375 C 540.949219 385.902344 536.90625 381.074219 530.15625 381.074219 L 508.28125 381.074219 L 508.28125 402.636719 Z M 530.15625 365.050781 C 536.097656 365.050781 539.714844 360.773438 539.714844 355.496094 C 539.714844 350.21875 536.097656 345.945312 530.15625 345.945312 L 508.28125 345.945312 L 508.28125 365.050781 Z M 477.472656 381.074219 L 477.472656 386.410156 L 463.921875 386.410156 L 463.921875 359.707031 L 477.472656 359.707031 L 477.472656 365.050781 L 490.417969 365.050781 L 490.417969 345.945312 L 457.816406 345.945312 L 457.816406 352.726562 L 444.261719 352.726562 L 444.261719 332.390625 L 530.164062 332.390625 C 539.714844 332.394531 548.382812 337.984375 552.324219 346.683594 C 556.269531 355.382812 554.761719 365.585938 548.46875 372.773438 C 555.644531 380.136719 557.710938 391.082031 553.714844 400.558594 C 549.71875 410.03125 540.441406 416.191406 530.15625 416.195312 L 444.261719 416.195312 L 444.261719 395.859375 L 457.816406 395.859375 L 457.816406 402.636719 L 490.417969 402.636719 L 490.417969 381.074219 Z M 477.472656 381.074219 "/>
</g>
</svg>
