<?xml version="1.0" encoding="UTF-8"?>
<svg xmlns="http://www.w3.org/2000/svg" xmlns:xlink="http://www.w3.org/1999/xlink" width="1000px" height="142px" viewBox="0 0 1070 142" version="1.1">
<g id="surface1">
<path style=" stroke:none;fill-rule:nonzero;fill:rgb(93.333333%,14.901961%,16.078431%);fill-opacity:1;" d="M 976.800781 1.878906 C 985.253906 0.414062 993.859375 0.164062 1002.425781 0.0429688 C 1010.980469 0 1019.875 0.917969 1027.496094 5.125 C 1034.5 8 1038.34375 16.53125 1035.78125 23.679688 C 1032.449219 34.710938 1024.527344 43.5 1016.480469 51.40625 C 996.121094 72.367188 970.886719 87.492188 946.632812 103.410156 C 950.695312 97.484375 954.007812 91.042969 956.519531 84.308594 C 958.460938 79.015625 960.304688 73.578125 960.53125 67.890625 C 960.839844 62.039062 959.585938 55.820312 955.828125 51.179688 C 952.019531 46.910156 946.664062 44.355469 941.21875 42.875 C 933.355469 40.679688 925.136719 40.4375 917.023438 40.460938 C 898.585938 40.601562 880.316406 43.621094 862.296875 47.3125 C 855.972656 48.460938 849.746094 50.390625 843.289062 50.644531 C 848.777344 48.832031 853.617188 45.632812 858.769531 43.109375 C 883.035156 30.800781 908.15625 20.089844 934.160156 12.019531 C 948.09375 7.566406 962.390625 4.355469 976.800781 1.878906 Z M 976.800781 1.878906 "/>
<path style=" stroke:none;fill-rule:nonzero;fill:rgb(0.392157%,0.392157%,0.392157%);fill-opacity:1;" d="M 135.058594 58.78125 C 135.960938 57.796875 137.335938 57.960938 138.539062 57.933594 C 148.933594 58.003906 159.332031 58.03125 169.730469 57.925781 C 169.921875 72.652344 170.242188 87.382812 170.425781 102.109375 C 189.140625 87.875 206.621094 72.089844 225.285156 57.789062 C 236.671875 58.238281 248.066406 57.828125 259.460938 58.039062 C 259.386719 85.960938 259.417969 113.878906 259.460938 141.800781 C 244.691406 141.914062 229.925781 141.6875 215.167969 141.921875 L 214.875 141.921875 C 214.710938 128.847656 214.824219 115.765625 214.832031 102.691406 C 199.546875 115.347656 185.269531 129.160156 170.085938 141.921875 L 167.914062 141.921875 C 153.996094 141.636719 140.074219 141.972656 126.15625 141.773438 C 126.398438 128.648438 126.078125 115.523438 126.332031 102.402344 C 111.160156 115.296875 96.660156 128.953125 81.550781 141.921875 L 31.65625 141.921875 C 33.074219 140.421875 34.746094 139.210938 36.433594 138.042969 C 44.964844 131.695312 52.898438 124.597656 61.320312 118.109375 C 85.925781 98.371094 110.558594 78.652344 135.058594 58.78125 Z M 393.367188 57.890625 C 408.054688 58.066406 422.742188 57.976562 437.429688 57.949219 C 437.636719 79.449219 437.515625 100.949219 437.515625 122.449219 C 447.4375 122.457031 457.363281 122.472656 467.285156 122.449219 C 467.121094 128.90625 467.09375 135.359375 467.292969 141.808594 C 442.605469 141.785156 417.917969 141.957031 393.238281 141.722656 C 393.316406 113.78125 393.054688 85.832031 393.367188 57.890625 Z M 274.574219 85.890625 C 278.496094 78.402344 286.488281 72.828125 295.089844 72.886719 C 324.4375 72.90625 353.785156 72.886719 383.140625 72.898438 C 382.992188 79.417969 383.121094 85.9375 383.121094 92.457031 C 363.75 92.679688 344.371094 92.289062 324.992188 92.636719 C 319.992188 92.847656 316.003906 97.019531 314.609375 101.609375 C 312.660156 107.730469 313.777344 115.273438 318.738281 119.679688 C 320.480469 121.140625 322.660156 122.257812 324.980469 122.257812 C 344.371094 122.742188 363.769531 122.257812 383.15625 122.5 C 383.019531 128.898438 383.027344 135.296875 383.191406 141.695312 C 353.351562 142 323.507812 141.742188 293.660156 141.820312 C 287.132812 141.628906 281.0625 137.972656 277.113281 132.882812 C 267.65625 119.332031 267.125 100.472656 274.574219 85.890625 Z M 482.25 72.820312 C 511.183594 73 540.128906 72.851562 569.070312 72.894531 C 575.054688 72.878906 581.019531 75.261719 585.257812 79.503906 C 592.398438 86.421875 595.632812 96.535156 595.75 106.308594 C 595.804688 115.476562 593.871094 125.097656 588.035156 132.414062 C 584.132812 137.566406 578.226562 141.003906 571.835938 141.921875 L 488.796875 141.921875 C 482.621094 140.925781 479.117188 134.703125 477.980469 129.074219 C 476.535156 122.15625 477.148438 114.605469 480.699219 108.394531 C 482.691406 104.847656 486.675781 102.523438 490.753906 102.59375 C 510.964844 102.722656 531.183594 102.535156 551.398438 102.699219 C 551.414062 99.285156 551.421875 95.875 551.40625 92.457031 C 528.371094 92.613281 505.328125 92.445312 482.292969 92.542969 C 482.050781 85.96875 482.09375 79.390625 482.25 72.820312 M 516.472656 112.507812 C 516.472656 115.816406 516.457031 119.132812 516.480469 122.449219 C 528.09375 122.484375 539.714844 122.320312 551.328125 122.585938 C 551.398438 119.195312 551.449219 115.800781 551.484375 112.414062 C 539.8125 112.398438 528.144531 112.316406 516.472656 112.507812 Z M 606.023438 83.597656 C 605.605469 77.980469 610.984375 72.378906 616.664062 73.007812 C 636.140625 72.730469 655.625 72.972656 675.109375 72.921875 C 674.980469 79.441406 675.015625 85.960938 675.066406 92.488281 C 666.777344 92.550781 658.492188 92.464844 650.203125 92.535156 C 650.28125 108.960938 650.203125 125.390625 650.257812 141.816406 C 635.515625 141.859375 620.769531 141.792969 606.023438 141.84375 C 606.054688 122.429688 606.066406 103.011719 606.023438 83.597656 Z M 693.96875 76.871094 C 698.195312 73.867188 703.46875 72.894531 708.5625 72.859375 C 734.902344 72.90625 761.246094 72.921875 787.582031 72.871094 C 792.800781 74.066406 796.203125 79.171875 797.667969 84.046875 C 799.558594 90.878906 799.445312 98.566406 796.207031 104.976562 C 794.1875 109.035156 790.203125 112.5625 785.441406 112.40625 C 765.175781 112.40625 744.90625 112.378906 724.640625 112.394531 C 724.648438 115.738281 724.652344 119.074219 724.632812 122.414062 C 747.753906 122.5625 770.867188 122.328125 793.988281 122.507812 C 793.917969 128.976562 794.007812 135.453125 793.859375 141.921875 L 704.507812 141.921875 C 697.527344 141.109375 691.09375 137.089844 687.214844 131.253906 C 680.824219 121.617188 678.960938 109.367188 681.25 98.125 C 682.859375 89.882812 686.910156 81.734375 693.96875 76.871094 M 724.632812 92.585938 C 724.609375 95.867188 724.730469 99.148438 724.597656 102.429688 C 736.117188 102.777344 747.667969 102.414062 759.195312 102.613281 C 759.210938 99.246094 759.21875 95.882812 759.238281 92.507812 C 747.703125 92.601562 736.167969 92.421875 724.632812 92.585938 Z M 808.820312 72.84375 C 838.488281 72.941406 868.160156 72.914062 897.835938 72.851562 C 902.304688 72.660156 906.847656 73.460938 910.867188 75.484375 C 916.988281 78.429688 922.246094 84.351562 922.503906 91.390625 C 922.921875 108.199219 922.402344 125.011719 922.722656 141.820312 C 909.492188 141.742188 896.265625 141.964844 883.035156 141.714844 C 883.214844 130.15625 883.132812 118.597656 883.105469 107.039062 C 883.214844 102.601562 880.445312 98.363281 876.480469 96.445312 C 869.371094 92.921875 861.257812 92.707031 853.503906 92.328125 C 853.507812 108.75 853.296875 125.167969 853.585938 141.585938 C 850.847656 141.652344 848.113281 141.664062 845.398438 141.921875 L 819.992188 141.921875 C 816.253906 141.664062 812.511719 141.800781 808.777344 141.722656 C 808.882812 118.761719 808.8125 95.804688 808.820312 72.84375 Z M 808.820312 72.84375 "/>
</g>
</svg>
