<?xml version="1.0" encoding="UTF-8"?>
<svg xmlns="http://www.w3.org/2000/svg" xmlns:xlink="http://www.w3.org/1999/xlink" width="1000px" height="1695px" viewBox="0 0 1000 1694" version="1.1">
<defs>
<linearGradient id="linear0" gradientUnits="userSpaceOnUse" x1="34.64" y1="-0.217" x2="34.64" y2="117.12" gradientTransform="matrix(14.467383,0,0,14.459571,0,0.240298)">
<stop offset="0" style="stop-color:rgb(90.980392%,90.980392%,90.980392%);stop-opacity:1;"/>
<stop offset="1" style="stop-color:rgb(61.176471%,61.176471%,61.176471%);stop-opacity:1;"/>
</linearGradient>
<linearGradient id="linear1" gradientUnits="userSpaceOnUse" x1="58.492" y1="480.644" x2="115.826" y2="600.647" gradientTransform="matrix(14.467383,0,0,14.459571,-723.369164,-6895.239871)">
<stop offset="0.083" style="stop-color:rgb(100%,100%,100%);stop-opacity:1;"/>
<stop offset="0.611" style="stop-color:rgb(65.882353%,65.882353%,65.882353%);stop-opacity:1;"/>
<stop offset="1" style="stop-color:rgb(100%,100%,100%);stop-opacity:1;"/>
</linearGradient>
</defs>
<g id="surface1">
<path style=" stroke:none;fill-rule:nonzero;fill:url(#linear0);" d="M 878.257812 11.578125 L 124.753906 11.5625 C 66.390625 11.5625 18.953125 58.988281 18.953125 117.320312 L 18.953125 1570.085938 C 18.9375 1628.503906 66.304688 1675.871094 124.753906 1675.886719 L 878.980469 1675.886719 C 907.121094 1675.886719 933.144531 1664.8125 953.039062 1644.957031 C 973.03125 1624.933594 983.363281 1598.269531 983.363281 1570.085938 L 983.363281 117.304688 C 983.363281 59.0625 936.71875 11.578125 878.257812 11.578125 Z M 945.515625 1570.085938 C 945.515625 1588.160156 939.179688 1605.265625 926.304688 1618.179688 C 913.5 1630.949219 897.066406 1638.03125 878.980469 1638.03125 L 124.753906 1638.03125 C 106.726562 1638.0625 89.433594 1630.90625 76.707031 1618.152344 C 63.941406 1605.410156 56.785156 1588.113281 56.8125 1570.085938 L 56.8125 117.320312 C 56.851562 79.824219 87.25 49.4375 124.765625 49.386719 L 878.269531 49.402344 C 915.886719 49.402344 945.515625 79.941406 945.515625 117.304688 Z M 945.515625 1570.085938 "/>
<path style=" stroke:none;fill-rule:nonzero;fill:url(#linear1);" d="M 898.394531 1591.402344 C 904.125 1585.675781 906.511719 1578.097656 906.511719 1570.058594 L 906.511719 117.304688 C 906.511719 100.835938 893.796875 87.230469 877.128906 87.230469 L 123.59375 87.214844 C 106.976562 87.253906 93.519531 100.710938 93.488281 117.320312 L 93.488281 1570.085938 C 93.464844 1578.074219 96.628906 1585.738281 102.273438 1591.390625 C 107.921875 1597.039062 115.589844 1600.207031 123.582031 1600.191406 L 877.78125 1600.191406 C 885.894531 1600.191406 892.710938 1597.070312 898.394531 1591.402344 "/>
<path style="fill:none;stroke-width:0.216;stroke-linecap:butt;stroke-linejoin:miter;stroke:rgb(92.54902%,0%,54.901961%);stroke-opacity:1;stroke-miterlimit:22.926;" d="M 65.269934 113.141023 C 64.054917 114.352104 62.475124 115.028019 60.754929 115.028019 L 8.623115 115.028019 C 6.90967 115.0291 5.266426 114.347512 4.057079 113.133999 C 2.846381 111.923458 2.166241 110.281217 2.167051 108.569008 L 2.167051 8.09706 C 2.170291 4.532704 5.058793 1.643992 8.623115 1.63994 L 60.706058 1.64102 C 64.27308 1.64102 67.111091 4.541078 67.111091 8.095979 L 67.111091 108.567927 C 67.112981 110.289051 66.491972 111.915893 65.269934 113.141023 Z M 65.269934 113.141023 " transform="matrix(14.467383,0,0,14.459571,0,0.240298)"/>
<path style="fill-rule:nonzero;fill:rgb(0%,0%,0%);fill-opacity:1;stroke-width:0.216;stroke-linecap:butt;stroke-linejoin:miter;stroke:rgb(0%,0%,0%);stroke-opacity:1;stroke-miterlimit:22.926;" d="M 10.327109 107.541088 L 12.001134 107.538927 C 11.885032 107.234198 11.822121 106.911909 11.815101 106.586108 L 11.815101 101.147993 C 11.815101 100.730071 12.069985 100.753034 12.257097 100.985903 L 17.809998 107.540007 L 19.506972 107.540007 L 13.744009 100.754925 C 13.604957 100.593105 13.626017 100.337003 13.835 100.337003 L 14.441969 100.337003 C 16.020142 100.336733 17.29915 99.057034 17.29888 97.479089 C 17.29861 95.900874 16.019062 94.621714 14.440889 94.621985 L 10.327919 94.621985 C 10.419991 94.878087 10.489112 95.109875 10.513952 95.576964 L 10.513952 106.590971 C 10.505852 106.915961 10.442671 107.237169 10.327109 107.541088 Z M 11.811051 95.896011 L 14.436029 95.896011 C 15.298421 95.895741 15.997731 96.594618 15.998001 97.456937 C 15.998271 98.319525 15.299501 99.018672 14.437109 99.018943 L 11.811051 99.01489 Z M 47.650019 51.971006 C 45.353096 57.744107 40.038879 59.581126 40.038879 59.581126 L 41.941057 63.518019 C 41.941057 63.518019 42.211061 63.452102 42.670067 63.288932 C 43.845934 64.616988 48.472991 70.426019 48.700875 79.530877 C 48.700875 79.528986 49.027039 83.271101 45.680881 85.893985 L 55.853008 85.893985 C 55.853008 85.893985 54.538899 85.041122 54.015091 82.678933 C 53.489934 80.318094 53.618996 76.182911 51.390113 71.194865 C 49.591887 67.18098 47.117032 63.039043 46.220079 61.578073 C 48.933078 59.918003 52.260876 56.996873 54.079892 52.099868 C 57.490042 42.915045 50.931107 36.089981 44.762868 34.908886 C 44.762868 34.908886 46.467132 37.995077 46.732006 40.224894 C 46.732006 40.224083 50.618982 44.505957 47.650019 51.971006 Z M 56.896033 15.150941 C 56.457007 14.82487 55.000066 13.554896 54.457088 13.126979 C 54.039122 12.803069 53.363032 10.501933 55.436122 10.454927 C 56.481037 10.430074 57.412011 11.221883 57.757886 11.430979 L 58.340014 9.967037 C 57.988469 9.894907 57.645564 9.785496 57.316969 9.640966 C 56.904943 9.46699 56.154872 9.151995 55.436122 9.151995 C 54.714942 9.151995 52.735003 9.572888 52.622951 11.707882 C 52.53007 13.477093 53.715117 14.334008 54.157924 14.686013 C 54.784873 15.150131 56.387076 16.380933 57.107986 17.381028 C 57.829977 18.380042 58.200962 20.472082 55.621075 20.774109 C 54.737082 20.773028 53.765068 20.334035 53.22695 19.983921 L 53.435933 21.796896 C 53.971081 21.702073 54.274025 21.816887 54.504069 21.843902 C 54.899894 21.887937 55.436122 22.007073 55.942919 21.983029 C 56.457007 21.960067 59.083875 21.518912 59.083875 18.984096 C 59.083065 16.75401 57.522982 15.662065 56.896033 15.150941 Z M 47.108932 107.984133 C 48.495942 107.984133 49.78089 107.964953 50.833905 107.216908 L 50.780985 105.63302 C 49.842991 106.57206 48.545082 106.736041 47.108932 106.736041 C 44.24203 106.736041 41.915946 104.132068 41.915946 101.264968 C 41.915946 98.397868 44.24203 95.883044 47.108932 95.883044 C 48.41197 95.883044 49.621048 96.243964 50.608992 97.019024 L 50.43511 95.458909 C 49.433125 94.821895 48.38308 94.636032 47.108932 94.636032 C 43.5519 94.636032 40.667988 97.707095 40.667988 101.264968 C 40.666908 104.823921 43.5519 107.984133 47.108932 107.984133 Z M 25.488099 107.70696 C 29.04486 107.70696 31.928502 104.823381 31.928502 101.266589 C 31.928502 97.709527 29.04486 94.825948 25.488099 94.825948 C 21.931067 94.825948 19.047426 97.709527 19.047426 101.266589 C 19.047426 104.823381 21.931067 107.70696 25.488099 107.70696 Z M 25.488099 96.07404 C 28.30613 96.141847 30.555262 98.445685 30.555262 101.264428 C 30.555262 104.083441 28.30613 106.387278 25.488099 106.455086 C 22.620657 106.455626 20.295654 104.132338 20.294034 101.264968 C 20.295114 98.397328 22.620387 96.073499 25.488099 96.07404 Z M 58.152091 107.726951 L 59.104935 106.194121 C 58.459086 106.542074 57.083956 106.542074 56.222103 106.542074 C 55.367001 106.542074 54.967935 106.10308 54.967935 105.730004 L 54.967935 101.499998 C 54.967935 100.985903 55.29302 100.825974 55.689116 100.825974 L 57.964979 100.825974 L 57.964979 99.52007 L 55.691006 99.52007 C 55.29491 99.52007 54.970095 99.362033 54.970095 98.847938 L 54.970095 96.799932 C 54.970095 96.430097 55.365921 95.988943 56.223993 95.988943 C 57.086116 95.988943 57.852927 95.988943 58.502016 96.336895 L 58.151011 94.804876 L 53.481024 94.804876 C 53.576065 95.060978 53.643026 95.291956 53.665976 95.756884 L 53.667866 106.774133 C 53.661116 107.100744 53.597935 107.423843 53.481024 107.729112 Z M 35.720977 106.773052 C 35.714497 107.098312 35.651856 107.420061 35.536024 107.723979 L 37.207888 107.72587 C 37.093407 107.420061 37.030226 107.097502 37.021046 106.770891 L 37.022936 106.770891 L 37.022936 100.915934 L 40.554047 94.804876 L 39.043915 94.804876 L 36.420017 99.430111 L 33.793959 94.804876 L 32.283017 94.804876 L 35.722057 100.915934 Z M 35.96803 65.164041 C 35.688036 64.219057 34.663101 62.174024 34.150904 61.330076 C 32.251967 61.649933 30.482901 61.756102 29.085901 61.756102 L 29.086981 60.734936 C 28.437081 60.965103 25.55209 61.383025 24.344902 61.525934 L 24.344902 81.930077 C 24.344902 84.069124 23.413929 85.088128 22.762949 86.019875 L 30.664884 86.019875 C 30.013904 85.088128 29.085091 84.069124 29.085091 81.931969 L 29.086981 65.754049 C 31.535106 65.715957 33.889 65.510914 35.96803 65.164041 Z M 36.938964 19.772123 L 36.938964 9.800084 C 36.961105 9.334886 37.032926 9.103908 37.126887 8.848887 L 35.453133 8.849968 C 35.544934 9.10607 35.612975 9.335967 35.641056 9.800084 L 35.641056 20.817873 C 35.631065 21.143944 35.567615 21.465692 35.453133 21.770962 L 40.12312 21.770962 L 41.075964 20.235971 C 40.426065 20.583924 39.054985 20.583113 38.195023 20.583924 C 37.3329 20.583924 36.938964 20.14412 36.938964 19.772123 Z M 26.328081 8.868878 C 23.999837 8.828356 21.830896 10.047271 20.655029 12.057186 C 19.479162 14.0671 19.479702 16.55518 20.656109 18.564554 C 21.832516 20.574198 24.001727 21.792304 26.329971 21.750971 C 29.842992 21.688566 32.658052 18.822547 32.657512 15.308979 C 32.656972 11.795411 29.841102 8.930472 26.328081 8.868878 Z M 26.328891 20.502068 C 24.444534 20.547183 22.683568 19.56789 21.727754 17.942939 C 20.772211 16.317988 20.772211 14.302941 21.727754 12.67799 C 22.683568 11.053039 24.444534 10.073746 26.328891 10.119131 C 29.147462 10.186669 31.397134 12.491046 31.397134 15.3106 C 31.397134 18.129883 29.147462 20.434261 26.328891 20.502068 Z M 45.815883 19.772123 L 45.813993 9.800084 C 45.836133 9.335967 45.910114 9.104989 46.001916 8.848887 L 44.327891 8.849968 C 44.419963 9.10607 44.492054 9.335967 44.516084 9.800084 L 44.516084 20.817873 C 44.507444 21.143944 44.443993 21.466233 44.327891 21.770962 L 49.000039 21.770962 L 49.950993 20.235971 C 49.301093 20.583924 47.930013 20.583113 47.070051 20.583924 C 46.210089 20.583924 45.815883 20.14412 45.815883 19.772123 Z M 14.677952 14.563906 L 15.280871 14.566877 C 16.831504 14.526085 18.067311 13.257191 18.067311 11.705991 C 18.067311 10.154791 16.831504 8.885897 15.280871 8.845105 L 11.170062 8.849968 C 11.262943 9.104989 11.332064 9.335967 11.353934 9.800895 L 11.353934 20.818954 C 11.347184 21.145295 11.284543 21.467854 11.168982 21.773123 L 12.843006 21.773123 L 12.843006 21.770962 C 12.726904 21.466233 12.663453 21.143944 12.655083 20.817873 L 12.655083 15.378948 C 12.655083 14.961026 12.911047 14.982908 13.097889 15.216047 L 18.65295 21.769881 L 20.346954 21.769881 L 14.583991 14.982098 C 14.444939 14.818927 14.468969 14.563906 14.677952 14.563906 Z M 12.652923 13.246115 L 12.652923 10.126966 L 15.277901 10.126966 C 16.118963 10.157222 16.785063 10.847455 16.785063 11.688972 C 16.785063 12.530488 16.118963 13.220991 15.277901 13.250978 Z M 12.652923 13.246115 " transform="matrix(14.467383,0,0,14.459571,0,0.240298)"/>
<path style="fill-rule:nonzero;fill:rgb(0%,0%,0%);fill-opacity:1;stroke-width:0.216;stroke-linecap:butt;stroke-linejoin:miter;stroke:rgb(0%,0%,0%);stroke-opacity:1;stroke-miterlimit:22.926;" d="M 13.472115 80.908101 L 21.372969 80.90594 C 20.72307 79.973923 19.792906 78.954918 19.792906 76.815872 L 19.793986 60.640113 C 25.120083 60.550964 29.568938 59.671896 33.135959 58.254961 C 38.571948 64.076959 39.222117 72.539941 39.316079 74.859987 C 39.40788 77.187868 38.200963 79.232902 36.340096 80.90702 L 46.659915 80.90702 C 45.077962 80.069016 44.520944 77.838929 44.429953 75.699883 C 43.406908 66.032033 38.01601 58.502958 36.711081 56.548965 C 42.83612 52.876008 45.542909 47.246897 45.542909 42.048945 C 45.542909 33.403071 37.919889 29.311923 31.319913 29.311923 L 13.937062 29.311923 C 14.586961 30.240968 15.051098 30.612964 15.051098 32.75093 L 15.051098 76.815061 C 15.051098 78.954918 14.123094 79.976895 13.472115 80.908101 Z M 19.793986 32.380014 L 30.019034 32.380014 C 37.082876 32.380014 39.40788 36.843969 39.316079 41.582937 C 38.851132 54.691955 25.835054 56.645948 19.793986 56.645948 Z M 19.793986 32.380014 " transform="matrix(14.467383,0,0,14.459571,0,0.240298)"/>
<path style="fill-rule:nonzero;fill:rgb(0%,0%,0%);fill-opacity:1;stroke-width:0.216;stroke-linecap:butt;stroke-linejoin:miter;stroke:rgb(0%,0%,0%);stroke-opacity:1;stroke-miterlimit:22.926;" d="M 60.706868 5.158911 L 8.623115 5.158911 C 7.001471 5.161883 5.687632 6.475621 5.684932 8.09706 L 5.684932 108.567927 C 5.684932 109.354873 5.991117 110.089951 6.547055 110.64808 C 7.096513 111.200267 7.844153 111.509048 8.623115 111.506076 L 60.754929 111.506076 C 61.5401 111.506076 62.22888 111.201077 62.784008 110.64808 C 63.338866 110.089951 63.59591 109.354873 63.59591 108.567927 L 63.59591 8.095979 C 63.59591 6.478052 62.327972 5.158911 60.706868 5.158911 Z M 61.834945 108.785128 C 61.834945 109.378917 61.351908 109.864916 60.754929 109.864916 L 8.623115 109.864916 C 8.336641 109.865186 8.062317 109.750643 7.860894 109.54695 C 7.657311 109.345688 7.543099 109.071216 7.543909 108.785128 L 7.544989 92.361101 L 61.836025 92.361101 Z M 61.834945 90.286891 L 7.544989 90.286891 L 7.544989 25.453914 L 61.836025 25.403936 Z M 61.834945 23.328916 L 7.544989 23.328916 L 7.544989 7.88094 C 7.544989 7.592961 7.657041 7.32092 7.860894 7.118037 C 8.065017 6.914885 8.335021 6.800881 8.623115 6.800881 L 60.754929 6.800881 C 61.351368 6.802232 61.834405 7.28553 61.834945 7.882021 Z M 61.834945 23.328916 " transform="matrix(14.467383,0,0,14.459571,0,0.240298)"/>
<path style="fill-rule:nonzero;fill:rgb(0%,0%,0%);fill-opacity:1;stroke-width:0.216;stroke-linecap:butt;stroke-linejoin:miter;stroke:rgb(0%,0%,0%);stroke-opacity:1;stroke-miterlimit:22.926;" d="M 34.808904 34.281058 L 23.233026 34.281868 C 23.885896 35.210103 24.350032 35.582099 24.350032 37.720065 L 24.350032 55.196055 C 25.882034 55.058008 28.019115 54.359941 29.086981 53.987945 L 29.086981 37.348879 L 37.458992 37.348879 C 36.991885 36.189126 35.737987 34.839998 34.808904 34.281058 Z M 34.808904 34.281058 " transform="matrix(14.467383,0,0,14.459571,0,0.240298)"/>
</g>
</svg>
