<?xml version="1.0" encoding="UTF-8"?>
<svg xmlns="http://www.w3.org/2000/svg" xmlns:xlink="http://www.w3.org/1999/xlink" width="1000px" height="525px" viewBox="0 0 999 525" version="1.1">
<defs>
<linearGradient id="linear0" gradientUnits="userSpaceOnUse" x1="174.665" y1="-3.865" x2="292.683" y2="249.225" gradientTransform="matrix(2.137356,0,0,2.13868,0,0.0839218)">
<stop offset="0" style="stop-color:rgb(0%,53.72549%,28.235294%);stop-opacity:1;"/>
<stop offset="0.042" style="stop-color:rgb(0%,53.333333%,27.843137%);stop-opacity:1;"/>
<stop offset="0.096" style="stop-color:rgb(0%,50.980392%,26.666667%);stop-opacity:1;"/>
<stop offset="0.157" style="stop-color:rgb(0%,47.45098%,24.705882%);stop-opacity:1;"/>
<stop offset="0.222" style="stop-color:rgb(0%,41.568627%,21.568627%);stop-opacity:1;"/>
<stop offset="0.291" style="stop-color:rgb(0%,34.117647%,16.862745%);stop-opacity:1;"/>
<stop offset="0.319" style="stop-color:rgb(0%,30.588235%,14.117647%);stop-opacity:1;"/>
<stop offset="1" style="stop-color:rgb(0%,0%,0%);stop-opacity:1;"/>
</linearGradient>
</defs>
<g id="surface1">
<path style=" stroke:none;fill-rule:nonzero;fill:rgb(34.509804%,34.901961%,35.686275%);fill-opacity:1;" d="M 499.5 0.0820312 C 223.566406 0.0820312 0 117.496094 0 262.5 C 0 407.289062 223.566406 524.917969 499.5 524.917969 C 775.21875 524.917969 999 407.503906 999 262.5 C 999 117.496094 775.21875 0.0820312 499.5 0.0820312 "/>
<path style=" stroke:none;fill-rule:nonzero;fill:rgb(34.901961%,35.294118%,36.078431%);fill-opacity:1;" d="M 499.5 0.0820312 C 223.566406 0.0820312 0 117.496094 0 262.5 C 0 407.289062 223.566406 524.703125 499.285156 524.703125 C 775.003906 524.703125 998.785156 407.289062 998.785156 262.5 C 998.785156 117.496094 775.21875 0.0820312 499.5 0.0820312 "/>
<path style=" stroke:none;fill-rule:nonzero;fill:rgb(35.294118%,35.686275%,36.470588%);fill-opacity:1;" d="M 499.5 0.296875 C 223.78125 0.296875 0.214844 117.710938 0.214844 262.5 C 0.214844 407.289062 223.78125 524.703125 499.5 524.703125 C 775.21875 524.703125 998.785156 407.289062 998.785156 262.5 C 998.785156 117.710938 775.21875 0.296875 499.5 0.296875 "/>
<path style=" stroke:none;fill-rule:nonzero;fill:rgb(35.686275%,36.078431%,36.862745%);fill-opacity:1;" d="M 499.5 0.296875 C 223.78125 0.296875 0.214844 117.710938 0.214844 262.5 C 0.214844 407.289062 223.78125 524.703125 499.5 524.703125 C 775.21875 524.703125 998.785156 407.289062 998.785156 262.5 C 998.785156 117.710938 775.21875 0.296875 499.5 0.296875 "/>
<path style=" stroke:none;fill-rule:nonzero;fill:rgb(36.078431%,36.078431%,37.254902%);fill-opacity:1;" d="M 499.5 0.296875 C 223.78125 0.296875 0.214844 117.710938 0.214844 262.5 C 0.214844 407.289062 223.78125 524.703125 499.5 524.703125 C 775.21875 524.703125 998.785156 407.289062 998.785156 262.5 C 998.785156 117.710938 775.21875 0.296875 499.5 0.296875 "/>
<path style=" stroke:none;fill-rule:nonzero;fill:rgb(36.078431%,36.470588%,37.647059%);fill-opacity:1;" d="M 499.5 0.296875 C 223.78125 0.296875 0.214844 117.710938 0.214844 262.5 C 0.214844 407.289062 223.78125 524.703125 499.285156 524.703125 C 775.003906 524.703125 998.574219 407.289062 998.574219 262.5 C 998.574219 117.710938 775.21875 0.296875 499.5 0.296875 "/>
<path style=" stroke:none;fill-rule:nonzero;fill:rgb(36.470588%,36.862745%,37.647059%);fill-opacity:1;" d="M 499.5 0.296875 C 223.78125 0.296875 0.425781 117.710938 0.425781 262.5 C 0.425781 407.289062 223.996094 524.488281 499.5 524.488281 C 775.21875 524.488281 998.574219 407.074219 998.574219 262.5 C 998.574219 117.710938 775.21875 0.296875 499.5 0.296875 "/>
<path style=" stroke:none;fill-rule:nonzero;fill:rgb(36.862745%,37.254902%,38.039216%);fill-opacity:1;" d="M 499.5 0.511719 C 223.78125 0.511719 0.425781 117.710938 0.425781 262.5 C 0.425781 407.289062 223.78125 524.488281 499.5 524.488281 C 775.21875 524.488281 998.574219 407.074219 998.574219 262.5 C 998.574219 117.710938 775.003906 0.511719 499.5 0.511719 "/>
<path style=" stroke:none;fill-rule:nonzero;fill:rgb(37.254902%,37.647059%,38.431373%);fill-opacity:1;" d="M 499.5 0.511719 C 223.996094 0.511719 0.425781 117.710938 0.425781 262.5 C 0.425781 407.074219 223.78125 524.488281 499.5 524.488281 C 775.003906 524.488281 998.574219 407.289062 998.574219 262.5 C 998.574219 117.710938 775.003906 0.511719 499.5 0.511719 "/>
<path style=" stroke:none;fill-rule:nonzero;fill:rgb(37.647059%,38.039216%,38.823529%);fill-opacity:1;" d="M 499.5 0.511719 C 223.996094 0.511719 0.640625 117.925781 0.640625 262.5 C 0.640625 407.074219 223.996094 524.488281 499.5 524.488281 C 775.003906 524.488281 998.574219 407.289062 998.574219 262.5 C 998.574219 117.925781 775.003906 0.511719 499.5 0.511719 "/>
<path style=" stroke:none;fill-rule:nonzero;fill:rgb(38.039216%,38.431373%,39.215686%);fill-opacity:1;" d="M 499.5 0.726562 C 223.996094 0.726562 0.640625 117.925781 0.640625 262.5 C 0.640625 407.074219 223.996094 524.273438 499.5 524.273438 C 775.003906 524.273438 998.359375 407.074219 998.359375 262.5 C 998.359375 117.925781 775.003906 0.726562 499.5 0.726562 "/>
<path style=" stroke:none;fill-rule:nonzero;fill:rgb(38.039216%,38.431373%,39.607843%);fill-opacity:1;" d="M 499.5 0.726562 C 223.996094 0.726562 0.640625 117.925781 0.640625 262.5 C 0.640625 407.074219 223.996094 524.273438 499.5 524.273438 C 775.003906 524.273438 998.359375 407.074219 998.359375 262.5 C 998.359375 117.925781 775.003906 0.726562 499.5 0.726562 "/>
<path style=" stroke:none;fill-rule:nonzero;fill:rgb(38.431373%,38.823529%,40%);fill-opacity:1;" d="M 499.5 0.726562 C 223.996094 0.726562 0.640625 117.925781 0.640625 262.5 C 0.640625 407.074219 223.996094 524.273438 499.5 524.273438 C 775.003906 524.273438 998.359375 407.074219 998.359375 262.5 C 998.359375 117.925781 775.003906 0.726562 499.5 0.726562 "/>
<path style=" stroke:none;fill-rule:nonzero;fill:rgb(38.823529%,39.215686%,40.392157%);fill-opacity:1;" d="M 499.5 0.726562 C 223.996094 0.726562 0.855469 117.925781 0.855469 262.5 C 0.855469 407.074219 224.207031 524.273438 499.5 524.273438 C 775.003906 524.273438 998.359375 407.074219 998.359375 262.5 C 998.359375 117.925781 775.003906 0.726562 499.5 0.726562 "/>
<path style=" stroke:none;fill-rule:nonzero;fill:rgb(39.215686%,39.607843%,40.392157%);fill-opacity:1;" d="M 499.5 0.726562 C 224.207031 0.726562 0.855469 117.925781 0.855469 262.5 C 0.855469 407.074219 224.207031 524.0625 499.5 524.0625 C 775.003906 524.0625 998.144531 407.074219 998.144531 262.5 C 998.144531 117.925781 775.003906 0.726562 499.5 0.726562 "/>
<path style=" stroke:none;fill-rule:nonzero;fill:rgb(39.607843%,40%,40.784314%);fill-opacity:1;" d="M 499.5 0.9375 C 224.207031 0.9375 0.855469 117.925781 0.855469 262.5 C 0.855469 407.074219 224.207031 524.0625 499.5 524.0625 C 774.792969 524.0625 998.144531 407.074219 998.144531 262.5 C 998.144531 117.925781 774.792969 0.9375 499.5 0.9375 "/>
<path style=" stroke:none;fill-rule:nonzero;fill:rgb(39.607843%,40.392157%,41.176471%);fill-opacity:1;" d="M 499.5 0.9375 C 224.207031 0.9375 0.855469 118.140625 0.855469 262.5 C 0.855469 406.859375 224.207031 524.0625 499.5 524.0625 C 774.792969 524.0625 998.144531 406.859375 998.144531 262.5 C 998.144531 118.140625 774.792969 0.9375 499.5 0.9375 "/>
<path style=" stroke:none;fill-rule:nonzero;fill:rgb(40%,40.784314%,41.568627%);fill-opacity:1;" d="M 499.5 0.9375 C 224.207031 0.9375 1.070312 118.140625 1.070312 262.5 C 1.070312 406.859375 224.207031 524.0625 499.5 524.0625 C 774.792969 524.0625 998.144531 406.859375 998.144531 262.5 C 998.144531 118.140625 774.792969 0.9375 499.5 0.9375 "/>
<path style=" stroke:none;fill-rule:nonzero;fill:rgb(40.392157%,40.784314%,41.960784%);fill-opacity:1;" d="M 499.5 0.9375 C 224.207031 0.9375 1.070312 118.140625 1.070312 262.5 C 1.070312 406.859375 224.207031 524.0625 499.5 524.0625 C 774.792969 524.0625 998.144531 406.859375 998.144531 262.5 C 998.144531 118.140625 774.792969 0.9375 499.5 0.9375 "/>
<path style=" stroke:none;fill-rule:nonzero;fill:rgb(40.784314%,41.176471%,42.352941%);fill-opacity:1;" d="M 499.5 1.152344 C 224.207031 1.152344 1.070312 118.140625 1.070312 262.5 C 1.070312 406.859375 224.207031 523.847656 499.5 523.847656 C 774.792969 523.847656 997.929688 406.859375 997.929688 262.5 C 997.929688 118.140625 774.792969 1.152344 499.5 1.152344 "/>
<path style=" stroke:none;fill-rule:nonzero;fill:rgb(41.176471%,41.568627%,42.352941%);fill-opacity:1;" d="M 499.5 1.152344 C 224.421875 1.152344 1.28125 118.140625 1.28125 262.5 C 1.28125 406.859375 224.421875 523.847656 499.714844 523.847656 C 775.003906 523.847656 998.144531 406.859375 998.144531 262.5 C 997.929688 118.140625 774.792969 1.152344 499.5 1.152344 "/>
<path style=" stroke:none;fill-rule:nonzero;fill:rgb(41.176471%,41.960784%,42.745098%);fill-opacity:1;" d="M 499.5 1.152344 C 224.421875 1.152344 1.28125 118.140625 1.28125 262.5 C 1.28125 406.859375 224.421875 523.847656 499.5 523.847656 C 774.792969 523.847656 997.929688 406.859375 997.929688 262.5 C 997.929688 118.140625 774.792969 1.152344 499.5 1.152344 "/>
<path style=" stroke:none;fill-rule:nonzero;fill:rgb(41.568627%,42.352941%,43.137255%);fill-opacity:1;" d="M 499.5 1.152344 C 224.421875 1.152344 1.28125 118.140625 1.28125 262.5 C 1.28125 406.859375 224.421875 523.632812 499.5 523.632812 C 774.578125 523.632812 997.71875 406.648438 997.71875 262.5 C 997.929688 118.140625 774.792969 1.152344 499.5 1.152344 "/>
<path style=" stroke:none;fill-rule:nonzero;fill:rgb(41.960784%,42.352941%,43.529412%);fill-opacity:1;" d="M 499.5 1.367188 C 224.421875 1.367188 1.28125 118.351562 1.28125 262.5 C 1.28125 406.648438 224.421875 523.632812 499.5 523.632812 C 774.578125 523.632812 997.71875 406.648438 997.71875 262.5 C 997.71875 118.351562 774.792969 1.367188 499.5 1.367188 "/>
<path style=" stroke:none;fill-rule:nonzero;fill:rgb(42.352941%,42.745098%,43.921569%);fill-opacity:1;" d="M 499.5 1.367188 C 224.421875 1.367188 1.496094 118.351562 1.496094 262.5 C 1.496094 406.648438 224.636719 523.632812 499.714844 523.632812 C 774.792969 523.632812 997.929688 406.648438 997.929688 262.5 C 997.71875 118.351562 774.578125 1.367188 499.5 1.367188 "/>
<path style=" stroke:none;fill-rule:nonzero;fill:rgb(42.745098%,43.137255%,43.921569%);fill-opacity:1;" d="M 499.5 1.367188 C 224.421875 1.367188 1.496094 118.351562 1.496094 262.5 C 1.496094 406.648438 224.421875 523.632812 499.5 523.632812 C 774.578125 523.632812 997.71875 406.648438 997.71875 262.5 C 997.71875 118.351562 774.578125 1.367188 499.5 1.367188 "/>
<path style=" stroke:none;fill-rule:nonzero;fill:rgb(42.745098%,43.529412%,44.313725%);fill-opacity:1;" d="M 499.5 1.367188 C 224.421875 1.367188 1.496094 118.140625 1.496094 262.5 C 1.496094 406.648438 224.421875 523.632812 499.5 523.632812 C 774.578125 523.632812 997.503906 406.648438 997.503906 262.5 C 997.71875 118.351562 774.578125 1.367188 499.5 1.367188 "/>
<path style=" stroke:none;fill-rule:nonzero;fill:rgb(43.137255%,43.921569%,44.705882%);fill-opacity:1;" d="M 499.5 1.582031 C 224.421875 1.582031 1.496094 118.351562 1.496094 262.5 C 1.496094 406.648438 224.421875 523.417969 499.5 523.417969 C 774.578125 523.417969 997.503906 406.648438 997.503906 262.5 C 997.503906 118.351562 774.578125 1.582031 499.5 1.582031 "/>
<path style=" stroke:none;fill-rule:nonzero;fill:rgb(43.529412%,43.921569%,45.098039%);fill-opacity:1;" d="M 499.5 1.582031 C 224.421875 1.582031 1.496094 118.351562 1.496094 262.5 C 1.496094 406.648438 224.421875 523.417969 499.5 523.417969 C 774.578125 523.417969 997.503906 406.648438 997.503906 262.5 C 997.503906 118.351562 774.578125 1.582031 499.5 1.582031 "/>
<path style=" stroke:none;fill-rule:nonzero;fill:rgb(43.921569%,44.313725%,45.490196%);fill-opacity:1;" d="M 499.5 1.582031 C 224.636719 1.582031 1.710938 118.351562 1.710938 262.5 C 1.710938 406.648438 224.636719 523.417969 499.5 523.417969 C 774.363281 523.417969 997.503906 406.648438 997.503906 262.5 C 997.503906 118.351562 774.578125 1.582031 499.5 1.582031 "/>
<path style=" stroke:none;fill-rule:nonzero;fill:rgb(43.921569%,44.705882%,45.490196%);fill-opacity:1;" d="M 499.5 1.582031 C 224.636719 1.582031 1.710938 118.566406 1.710938 262.5 C 1.710938 406.433594 224.636719 523.417969 499.5 523.417969 C 774.363281 523.417969 997.289062 406.648438 997.289062 262.5 C 997.503906 118.566406 774.578125 1.582031 499.5 1.582031 "/>
<path style=" stroke:none;fill-rule:nonzero;fill:rgb(44.313725%,45.098039%,45.882353%);fill-opacity:1;" d="M 499.714844 1.792969 C 224.636719 1.792969 1.921875 118.566406 1.921875 262.5 C 1.921875 406.433594 224.851562 523.207031 499.714844 523.207031 C 774.578125 523.207031 997.503906 406.433594 997.503906 262.5 C 997.503906 118.566406 774.578125 1.792969 499.714844 1.792969 "/>
<path style=" stroke:none;fill-rule:nonzero;fill:rgb(44.705882%,45.490196%,46.27451%);fill-opacity:1;" d="M 499.714844 1.792969 C 224.851562 1.792969 1.921875 118.566406 1.921875 262.5 C 1.921875 406.433594 224.851562 523.207031 499.714844 523.207031 C 774.578125 523.207031 997.503906 406.433594 997.503906 262.5 C 997.289062 118.566406 774.578125 1.792969 499.714844 1.792969 "/>
<path style=" stroke:none;fill-rule:nonzero;fill:rgb(45.098039%,45.490196%,46.666667%);fill-opacity:1;" d="M 499.714844 1.792969 C 224.851562 1.792969 1.921875 118.566406 1.921875 262.5 C 1.921875 406.433594 224.636719 523.207031 499.5 523.207031 C 774.363281 523.207031 997.289062 406.433594 997.289062 262.5 C 997.289062 118.566406 774.363281 1.792969 499.714844 1.792969 "/>
<path style=" stroke:none;fill-rule:nonzero;fill:rgb(45.490196%,45.882353%,47.058824%);fill-opacity:1;" d="M 499.714844 1.792969 C 224.851562 1.792969 1.921875 118.566406 1.921875 262.5 C 1.921875 406.433594 224.636719 523.207031 499.5 523.207031 C 774.363281 523.207031 997.078125 406.433594 997.078125 262.5 C 997.289062 118.566406 774.363281 1.792969 499.714844 1.792969 "/>
<path style=" stroke:none;fill-rule:nonzero;fill:rgb(45.490196%,46.27451%,47.058824%);fill-opacity:1;" d="M 499.714844 2.007812 C 224.851562 2.007812 2.136719 118.566406 2.136719 262.5 C 2.136719 406.433594 224.851562 523.207031 499.714844 523.207031 C 774.578125 523.207031 997.289062 406.433594 997.289062 262.714844 C 997.289062 118.566406 774.363281 2.007812 499.714844 2.007812 "/>
<path style=" stroke:none;fill-rule:nonzero;fill:rgb(45.882353%,46.666667%,47.45098%);fill-opacity:1;" d="M 499.714844 2.007812 C 224.851562 2.007812 2.136719 118.566406 2.136719 262.5 C 2.136719 406.433594 224.851562 522.992188 499.714844 522.992188 C 774.363281 522.992188 997.289062 406.433594 997.289062 262.5 C 997.078125 118.566406 774.363281 2.007812 499.714844 2.007812 "/>
<path style=" stroke:none;fill-rule:nonzero;fill:rgb(46.27451%,46.666667%,47.843137%);fill-opacity:1;" d="M 499.714844 2.007812 C 224.851562 2.007812 2.136719 118.78125 2.136719 262.5 C 2.136719 406.433594 224.851562 522.992188 499.714844 522.992188 C 774.363281 522.992188 997.289062 406.433594 997.289062 262.5 C 997.078125 118.78125 774.363281 2.007812 499.714844 2.007812 "/>
<path style=" stroke:none;fill-rule:nonzero;fill:rgb(46.666667%,47.058824%,48.235294%);fill-opacity:1;" d="M 499.714844 2.007812 C 225.0625 2.007812 2.351562 118.78125 2.351562 262.5 C 2.351562 406.21875 225.0625 522.992188 499.714844 522.992188 C 774.363281 522.992188 997.078125 406.433594 997.078125 262.5 C 997.078125 118.78125 774.363281 2.007812 499.714844 2.007812 "/>
<path style=" stroke:none;fill-rule:nonzero;fill:rgb(46.666667%,47.45098%,48.235294%);fill-opacity:1;" d="M 499.714844 2.222656 C 225.0625 2.222656 2.351562 118.78125 2.351562 262.5 C 2.351562 406.21875 225.0625 522.777344 499.714844 522.777344 C 774.363281 522.777344 997.078125 406.21875 997.078125 262.5 C 997.078125 118.78125 774.363281 2.222656 499.714844 2.222656 "/>
<path style=" stroke:none;fill-rule:nonzero;fill:rgb(47.058824%,47.843137%,48.627451%);fill-opacity:1;" d="M 499.714844 2.222656 C 225.0625 2.222656 2.351562 118.78125 2.351562 262.5 C 2.351562 406.21875 225.0625 522.777344 499.714844 522.777344 C 774.363281 522.777344 997.078125 406.21875 997.078125 262.5 C 997.078125 118.78125 774.363281 2.222656 499.714844 2.222656 "/>
<path style=" stroke:none;fill-rule:nonzero;fill:rgb(47.45098%,47.843137%,49.019608%);fill-opacity:1;" d="M 499.714844 2.222656 C 225.0625 2.222656 2.351562 118.78125 2.351562 262.5 C 2.351562 406.21875 225.0625 522.777344 499.5 522.777344 C 774.148438 522.777344 996.863281 406.21875 996.863281 262.5 C 996.863281 118.78125 774.363281 2.222656 499.714844 2.222656 "/>
<path style=" stroke:none;fill-rule:nonzero;fill:rgb(47.843137%,48.235294%,49.411765%);fill-opacity:1;" d="M 499.714844 2.222656 C 225.0625 2.222656 2.566406 118.78125 2.566406 262.5 C 2.566406 406.21875 225.0625 522.777344 499.714844 522.777344 C 774.363281 522.777344 996.863281 406.21875 996.863281 262.5 C 996.863281 118.78125 774.148438 2.222656 499.714844 2.222656 "/>
<path style=" stroke:none;fill-rule:nonzero;fill:rgb(47.843137%,48.627451%,49.803922%);fill-opacity:1;" d="M 499.714844 2.4375 C 225.0625 2.4375 2.566406 118.78125 2.566406 262.5 C 2.566406 406.21875 225.0625 522.5625 499.714844 522.5625 C 774.148438 522.5625 996.863281 406.003906 996.863281 262.5 C 996.863281 118.78125 774.148438 2.4375 499.714844 2.4375 "/>
<path style=" stroke:none;fill-rule:nonzero;fill:rgb(48.235294%,49.019608%,49.803922%);fill-opacity:1;" d="M 499.714844 2.4375 C 225.277344 2.4375 2.566406 118.78125 2.566406 262.5 C 2.566406 406.21875 225.0625 522.5625 499.714844 522.5625 C 774.148438 522.5625 996.863281 406.003906 996.863281 262.5 C 996.863281 118.78125 774.148438 2.4375 499.714844 2.4375 "/>
<path style=" stroke:none;fill-rule:nonzero;fill:rgb(48.627451%,49.019608%,50.196078%);fill-opacity:1;" d="M 499.714844 2.4375 C 225.277344 2.4375 2.777344 118.996094 2.777344 262.5 C 2.777344 406.21875 225.277344 522.5625 499.714844 522.5625 C 774.148438 522.5625 996.648438 406.21875 996.648438 262.5 C 996.648438 118.996094 774.148438 2.4375 499.714844 2.4375 "/>
<path style=" stroke:none;fill-rule:nonzero;fill:rgb(48.627451%,49.411765%,50.588235%);fill-opacity:1;" d="M 499.714844 2.4375 C 225.277344 2.4375 2.777344 118.996094 2.777344 262.5 C 2.777344 406.003906 225.277344 522.5625 499.714844 522.5625 C 774.148438 522.5625 996.648438 406.21875 996.648438 262.5 C 996.648438 118.996094 774.148438 2.4375 499.714844 2.4375 "/>
<path style=" stroke:none;fill-rule:nonzero;fill:rgb(49.019608%,49.803922%,50.980392%);fill-opacity:1;" d="M 499.714844 2.648438 C 225.277344 2.648438 2.777344 118.996094 2.777344 262.5 C 2.777344 406.003906 225.277344 522.5625 499.714844 522.5625 C 774.148438 522.5625 996.648438 406.21875 996.648438 262.5 C 996.648438 118.996094 774.148438 2.648438 499.714844 2.648438 "/>
<path style=" stroke:none;fill-rule:nonzero;fill:rgb(49.411765%,50.196078%,50.980392%);fill-opacity:1;" d="M 499.714844 2.648438 C 225.277344 2.648438 2.777344 118.996094 2.777344 262.5 C 2.777344 406.003906 225.277344 522.351562 499.714844 522.351562 C 774.148438 522.351562 996.648438 406.003906 996.648438 262.5 C 996.648438 118.996094 774.148438 2.648438 499.714844 2.648438 "/>
<path style=" stroke:none;fill-rule:nonzero;fill:rgb(49.803922%,50.196078%,51.372549%);fill-opacity:1;" d="M 499.714844 2.648438 C 225.277344 2.648438 2.992188 118.996094 2.992188 262.5 C 2.992188 406.003906 225.492188 522.351562 499.714844 522.351562 C 774.148438 522.351562 996.648438 406.003906 996.648438 262.5 C 996.433594 118.996094 774.148438 2.648438 499.714844 2.648438 "/>
<path style=" stroke:none;fill-rule:nonzero;fill:rgb(49.803922%,50.588235%,51.764706%);fill-opacity:1;" d="M 499.714844 2.648438 C 225.492188 2.648438 2.992188 118.996094 2.992188 262.5 C 2.992188 406.003906 225.492188 522.351562 499.714844 522.351562 C 774.148438 522.351562 996.433594 406.003906 996.433594 262.5 C 996.433594 118.996094 773.9375 2.648438 499.714844 2.648438 "/>
<path style=" stroke:none;fill-rule:nonzero;fill:rgb(50.196078%,50.980392%,52.156863%);fill-opacity:1;" d="M 499.714844 2.863281 C 225.492188 2.863281 2.992188 118.996094 2.992188 262.5 C 2.992188 406.003906 225.277344 522.351562 499.714844 522.351562 C 773.9375 522.351562 996.433594 406.003906 996.433594 262.5 C 996.433594 118.996094 773.9375 2.863281 499.714844 2.863281 "/>
<path style=" stroke:none;fill-rule:nonzero;fill:rgb(50.588235%,51.372549%,52.156863%);fill-opacity:1;" d="M 499.714844 2.863281 C 225.492188 2.863281 3.207031 119.207031 3.207031 262.5 C 3.207031 406.003906 225.492188 522.136719 499.925781 522.136719 C 774.148438 522.136719 996.648438 405.792969 996.648438 262.5 C 996.433594 119.207031 773.9375 2.863281 499.714844 2.863281 "/>
<path style=" stroke:none;fill-rule:nonzero;fill:rgb(50.980392%,51.372549%,52.54902%);fill-opacity:1;" d="M 499.714844 2.863281 C 225.492188 2.863281 3.207031 119.207031 3.207031 262.5 C 3.207031 405.792969 225.492188 522.136719 499.714844 522.136719 C 773.9375 522.136719 996.222656 405.792969 996.222656 262.5 C 996.433594 119.207031 773.9375 2.863281 499.714844 2.863281 "/>
<path style=" stroke:none;fill-rule:nonzero;fill:rgb(50.980392%,51.764706%,52.941176%);fill-opacity:1;" d="M 499.714844 2.863281 C 225.492188 2.863281 3.207031 119.207031 3.207031 262.5 C 3.207031 405.792969 225.492188 522.136719 499.714844 522.136719 C 773.9375 522.136719 996.222656 405.792969 996.222656 262.5 C 996.222656 119.207031 773.9375 2.863281 499.714844 2.863281 "/>
<path style=" stroke:none;fill-rule:nonzero;fill:rgb(51.372549%,52.156863%,53.333333%);fill-opacity:1;" d="M 499.714844 3.078125 C 225.492188 3.078125 3.207031 119.207031 3.207031 262.5 C 3.207031 405.792969 225.492188 522.136719 499.714844 522.136719 C 773.9375 522.136719 996.222656 406.003906 996.222656 262.5 C 996.222656 119.207031 773.9375 3.078125 499.714844 3.078125 "/>
<path style=" stroke:none;fill-rule:nonzero;fill:rgb(51.764706%,52.54902%,53.333333%);fill-opacity:1;" d="M 499.714844 3.078125 C 225.703125 3.078125 3.417969 119.207031 3.417969 262.5 C 3.417969 405.792969 225.703125 521.921875 499.714844 521.921875 C 773.9375 521.921875 996.222656 405.792969 996.222656 262.5 C 996.222656 119.207031 773.9375 3.078125 499.714844 3.078125 "/>
<path style=" stroke:none;fill-rule:nonzero;fill:rgb(52.156863%,52.54902%,53.72549%);fill-opacity:1;" d="M 499.714844 3.078125 C 225.703125 3.078125 3.417969 119.207031 3.417969 262.5 C 3.417969 405.792969 225.703125 521.921875 499.714844 521.921875 C 773.9375 521.921875 996.007812 405.792969 996.007812 262.5 C 996.222656 119.207031 773.9375 3.078125 499.714844 3.078125 "/>
<path style=" stroke:none;fill-rule:nonzero;fill:rgb(52.156863%,52.941176%,54.117647%);fill-opacity:1;" d="M 499.714844 3.078125 C 225.703125 3.078125 3.417969 119.207031 3.417969 262.5 C 3.417969 405.792969 225.703125 521.921875 499.714844 521.921875 C 773.9375 521.921875 996.007812 405.792969 996.007812 262.5 C 996.007812 119.207031 773.9375 3.078125 499.714844 3.078125 "/>
<path style=" stroke:none;fill-rule:nonzero;fill:rgb(52.54902%,53.333333%,54.509804%);fill-opacity:1;" d="M 499.714844 3.292969 C 225.703125 3.292969 3.417969 119.421875 3.417969 262.5 C 3.417969 405.792969 225.703125 521.921875 499.714844 521.921875 C 773.722656 521.921875 996.007812 405.792969 996.007812 262.5 C 996.007812 119.421875 773.722656 3.292969 499.714844 3.292969 "/>
<path style=" stroke:none;fill-rule:nonzero;fill:rgb(52.941176%,53.72549%,54.509804%);fill-opacity:1;" d="M 499.714844 3.292969 C 225.703125 3.292969 3.632812 119.421875 3.632812 262.5 C 3.632812 405.792969 225.703125 521.707031 499.714844 521.707031 C 773.722656 521.921875 996.007812 405.792969 996.007812 262.5 C 996.007812 119.421875 773.722656 3.292969 499.714844 3.292969 "/>
<path style=" stroke:none;fill-rule:nonzero;fill:rgb(53.333333%,53.72549%,54.901961%);fill-opacity:1;" d="M 499.714844 3.292969 C 225.703125 3.292969 3.632812 119.421875 3.632812 262.5 C 3.632812 405.792969 225.703125 521.921875 499.714844 521.921875 C 773.722656 521.921875 996.007812 405.792969 996.007812 262.5 C 996.007812 119.421875 773.722656 3.292969 499.714844 3.292969 "/>
<path style=" stroke:none;fill-rule:nonzero;fill:rgb(53.333333%,54.117647%,55.294118%);fill-opacity:1;" d="M 499.714844 3.292969 C 225.703125 3.292969 3.632812 119.421875 3.632812 262.714844 C 3.632812 405.792969 225.703125 521.921875 499.714844 521.921875 C 773.722656 521.921875 995.792969 405.792969 995.792969 262.714844 C 995.792969 119.421875 773.722656 3.292969 499.714844 3.292969 "/>
<path style=" stroke:none;fill-rule:nonzero;fill:rgb(53.72549%,54.509804%,55.686275%);fill-opacity:1;" d="M 499.714844 3.503906 C 225.917969 3.503906 3.847656 119.421875 3.847656 262.714844 C 3.847656 405.792969 225.917969 521.921875 499.925781 521.921875 C 773.9375 521.921875 996.007812 405.792969 996.007812 262.714844 C 995.792969 119.421875 773.722656 3.503906 499.714844 3.503906 "/>
<path style=" stroke:none;fill-rule:nonzero;fill:rgb(54.117647%,54.901961%,55.686275%);fill-opacity:1;" d="M 499.714844 3.503906 C 225.917969 3.503906 3.847656 119.421875 3.847656 262.714844 C 3.847656 405.792969 225.917969 521.707031 499.714844 521.707031 C 773.722656 521.707031 995.792969 405.792969 995.792969 262.714844 C 995.792969 119.421875 773.722656 3.503906 499.714844 3.503906 "/>
<path style=" stroke:none;fill-rule:nonzero;fill:rgb(54.117647%,54.901961%,56.078431%);fill-opacity:1;" d="M 499.714844 3.503906 C 225.917969 3.503906 3.847656 119.421875 3.847656 262.5 C 3.847656 405.578125 225.917969 521.496094 499.714844 521.496094 C 773.507812 521.496094 995.582031 405.578125 995.582031 262.5 C 995.792969 119.421875 773.722656 3.503906 499.714844 3.503906 "/>
<path style=" stroke:none;fill-rule:nonzero;fill:rgb(54.509804%,55.294118%,56.470588%);fill-opacity:1;" d="M 499.714844 3.503906 C 225.917969 3.503906 3.847656 119.421875 3.847656 262.5 C 3.847656 405.578125 225.917969 521.496094 499.714844 521.496094 C 773.507812 521.496094 995.582031 405.578125 995.582031 262.5 C 995.792969 119.636719 773.722656 3.503906 499.714844 3.503906 "/>
<path style=" stroke:none;fill-rule:nonzero;fill:rgb(54.901961%,55.686275%,56.862745%);fill-opacity:1;" d="M 499.714844 3.71875 C 225.917969 3.71875 3.847656 119.636719 3.847656 262.714844 C 3.847656 405.792969 225.917969 521.707031 499.714844 521.707031 C 773.507812 521.707031 995.582031 405.792969 995.582031 262.714844 C 995.582031 119.636719 773.722656 3.71875 499.714844 3.71875 "/>
<path style=" stroke:none;fill-rule:nonzero;fill:rgb(55.294118%,56.078431%,56.862745%);fill-opacity:1;" d="M 499.714844 3.71875 C 225.917969 3.71875 4.0625 119.636719 4.0625 262.714844 C 4.0625 405.578125 226.132812 521.496094 499.714844 521.496094 C 773.507812 521.496094 995.582031 405.578125 995.582031 262.714844 C 995.582031 119.636719 773.507812 3.71875 499.714844 3.71875 "/>
<path style=" stroke:none;fill-rule:nonzero;fill:rgb(55.294118%,56.078431%,57.254902%);fill-opacity:1;" d="M 499.714844 3.71875 C 226.132812 3.71875 4.0625 119.636719 4.0625 262.714844 C 4.0625 405.578125 225.917969 521.496094 499.714844 521.496094 C 773.507812 521.496094 995.367188 405.578125 995.367188 262.714844 C 995.582031 119.636719 773.507812 3.71875 499.714844 3.71875 "/>
<path style=" stroke:none;fill-rule:nonzero;fill:rgb(55.686275%,56.470588%,57.647059%);fill-opacity:1;" d="M 499.714844 3.71875 C 226.132812 3.71875 4.273438 119.636719 4.273438 262.714844 C 4.273438 405.578125 226.132812 521.496094 499.925781 521.496094 C 773.722656 521.496094 995.582031 405.578125 995.582031 262.714844 C 995.582031 119.636719 773.507812 3.71875 499.714844 3.71875 "/>
<path style=" stroke:none;fill-rule:nonzero;fill:rgb(56.078431%,56.862745%,58.039216%);fill-opacity:1;" d="M 499.714844 3.933594 C 226.132812 3.933594 4.273438 119.636719 4.273438 262.714844 C 4.273438 405.578125 226.132812 521.496094 499.925781 521.496094 C 773.722656 521.496094 995.582031 405.578125 995.582031 262.714844 C 995.367188 119.636719 773.507812 3.933594 499.714844 3.933594 "/>
<path style=" stroke:none;fill-rule:nonzero;fill:rgb(56.470588%,57.254902%,58.039216%);fill-opacity:1;" d="M 499.925781 3.933594 C 226.132812 3.933594 4.273438 119.636719 4.273438 262.714844 C 4.273438 405.578125 226.132812 521.496094 499.714844 521.496094 C 773.296875 521.496094 995.367188 405.578125 995.367188 262.714844 C 995.367188 119.636719 773.507812 3.933594 499.925781 3.933594 "/>
<path style=" stroke:none;fill-rule:nonzero;fill:rgb(56.470588%,57.647059%,58.431373%);fill-opacity:1;" d="M 499.925781 3.933594 C 226.132812 3.933594 4.273438 119.851562 4.273438 262.714844 C 4.273438 405.578125 226.132812 521.28125 499.714844 521.28125 C 773.296875 521.28125 995.152344 405.578125 995.152344 262.714844 C 995.367188 119.851562 773.507812 3.933594 499.925781 3.933594 "/>
<path style=" stroke:none;fill-rule:nonzero;fill:rgb(56.862745%,57.647059%,58.823529%);fill-opacity:1;" d="M 499.925781 3.933594 C 226.132812 3.933594 4.488281 119.851562 4.488281 262.714844 C 4.488281 405.578125 226.347656 521.28125 499.925781 521.28125 C 773.507812 521.28125 995.367188 405.578125 995.367188 262.714844 C 995.367188 119.851562 773.507812 3.933594 499.925781 3.933594 "/>
<path style=" stroke:none;fill-rule:nonzero;fill:rgb(57.254902%,58.039216%,59.215686%);fill-opacity:1;" d="M 499.925781 4.148438 C 226.347656 4.148438 4.488281 119.851562 4.488281 262.714844 C 4.488281 405.578125 226.347656 521.28125 499.925781 521.28125 C 773.507812 521.28125 995.367188 405.578125 995.367188 262.714844 C 995.367188 119.851562 773.507812 4.148438 499.925781 4.148438 "/>
<path style=" stroke:none;fill-rule:nonzero;fill:rgb(57.647059%,58.431373%,59.215686%);fill-opacity:1;" d="M 499.925781 4.148438 C 226.347656 4.148438 4.488281 119.851562 4.488281 262.714844 C 4.488281 405.363281 226.347656 521.28125 499.714844 521.28125 C 773.296875 521.28125 995.152344 405.578125 995.152344 262.714844 C 995.152344 119.851562 773.296875 4.148438 499.925781 4.148438 "/>
<path style=" stroke:none;fill-rule:nonzero;fill:rgb(57.647059%,58.823529%,59.607843%);fill-opacity:1;" d="M 499.925781 4.148438 C 226.347656 4.148438 4.488281 119.851562 4.488281 262.714844 C 4.488281 405.363281 226.132812 521.066406 499.714844 521.066406 C 773.296875 521.066406 994.9375 405.363281 994.9375 262.714844 C 995.152344 119.851562 773.296875 4.148438 499.925781 4.148438 "/>
<path style=" stroke:none;fill-rule:nonzero;fill:rgb(58.039216%,58.823529%,60%);fill-opacity:1;" d="M 499.925781 4.148438 C 226.347656 4.148438 4.703125 119.851562 4.703125 262.714844 C 4.703125 405.363281 226.347656 521.066406 499.925781 521.066406 C 773.507812 521.066406 995.152344 405.363281 995.152344 262.714844 C 995.152344 119.851562 773.296875 4.148438 499.925781 4.148438 "/>
<path style=" stroke:none;fill-rule:nonzero;fill:rgb(58.431373%,59.215686%,60.392157%);fill-opacity:1;" d="M 499.925781 4.359375 C 226.347656 4.359375 4.703125 119.851562 4.703125 262.714844 C 4.703125 405.363281 226.347656 521.066406 499.925781 521.066406 C 773.296875 521.066406 995.152344 405.363281 995.152344 262.714844 C 995.152344 119.851562 773.296875 4.359375 499.925781 4.359375 "/>
<path style=" stroke:none;fill-rule:nonzero;fill:rgb(58.823529%,59.607843%,60.392157%);fill-opacity:1;" d="M 499.925781 4.359375 C 226.347656 4.359375 4.703125 120.0625 4.703125 262.714844 C 4.703125 405.363281 226.347656 521.066406 499.714844 521.066406 C 773.082031 521.066406 994.9375 405.363281 994.9375 262.714844 C 994.9375 120.0625 773.296875 4.359375 499.925781 4.359375 "/>
<path style=" stroke:none;fill-rule:nonzero;fill:rgb(59.215686%,60%,60.784314%);fill-opacity:1;" d="M 499.925781 4.359375 C 226.558594 4.359375 4.914062 120.0625 4.914062 262.714844 C 4.914062 405.363281 226.558594 520.851562 499.925781 520.851562 C 773.296875 520.851562 994.9375 405.148438 994.9375 262.714844 C 994.9375 120.0625 773.296875 4.359375 499.925781 4.359375 "/>
<path style=" stroke:none;fill-rule:nonzero;fill:rgb(59.215686%,60%,61.176471%);fill-opacity:1;" d="M 499.925781 4.359375 C 226.558594 4.359375 4.914062 120.0625 4.914062 262.714844 C 4.914062 405.363281 226.558594 520.851562 499.925781 520.851562 C 773.296875 520.851562 994.9375 405.148438 994.9375 262.714844 C 994.9375 120.0625 773.296875 4.359375 499.925781 4.359375 "/>
<path style=" stroke:none;fill-rule:nonzero;fill:rgb(59.607843%,60.392157%,61.568627%);fill-opacity:1;" d="M 499.925781 4.574219 C 226.558594 4.574219 4.914062 120.0625 4.914062 262.714844 C 4.914062 405.148438 226.558594 520.851562 499.925781 520.851562 C 773.296875 520.851562 994.9375 405.363281 994.9375 262.714844 C 994.9375 120.0625 773.296875 4.574219 499.925781 4.574219 "/>
<path style=" stroke:none;fill-rule:nonzero;fill:rgb(60%,60.784314%,61.960784%);fill-opacity:1;" d="M 499.925781 4.574219 C 226.558594 4.574219 4.914062 120.0625 4.914062 262.714844 C 4.914062 405.148438 226.558594 520.851562 499.714844 520.851562 C 773.082031 520.851562 994.726562 405.363281 994.726562 262.714844 C 994.726562 120.0625 773.296875 4.574219 499.925781 4.574219 "/>
<path style=" stroke:none;fill-rule:nonzero;fill:rgb(60.392157%,61.176471%,61.960784%);fill-opacity:1;" d="M 499.925781 4.574219 C 226.558594 4.574219 5.128906 120.0625 5.128906 262.714844 C 5.128906 405.148438 226.773438 520.640625 499.925781 520.640625 C 773.296875 520.640625 994.726562 405.148438 994.726562 262.714844 C 994.726562 120.0625 773.082031 4.574219 499.925781 4.574219 "/>
<path style=" stroke:none;fill-rule:nonzero;fill:rgb(60.392157%,61.176471%,62.352941%);fill-opacity:1;" d="M 499.925781 4.574219 C 226.558594 4.574219 5.128906 120.0625 5.128906 262.714844 C 5.128906 405.148438 226.558594 520.640625 499.925781 520.640625 C 773.082031 520.640625 994.726562 405.148438 994.726562 262.714844 C 994.726562 120.0625 773.082031 4.574219 499.925781 4.574219 "/>
<path style=" stroke:none;fill-rule:nonzero;fill:rgb(60.784314%,61.568627%,62.745098%);fill-opacity:1;" d="M 499.925781 4.789062 C 226.773438 4.789062 5.128906 120.277344 5.128906 262.714844 C 5.128906 405.148438 226.558594 520.640625 499.925781 520.640625 C 773.082031 520.640625 994.726562 405.148438 994.726562 262.714844 C 994.726562 120.277344 773.082031 4.789062 499.925781 4.789062 "/>
<path style=" stroke:none;fill-rule:nonzero;fill:rgb(61.176471%,61.960784%,63.137255%);fill-opacity:1;" d="M 499.925781 4.789062 C 226.773438 4.789062 5.34375 120.277344 5.34375 262.714844 C 5.34375 405.148438 226.773438 520.640625 499.925781 520.640625 C 773.082031 520.640625 994.726562 405.148438 994.726562 262.714844 C 994.726562 120.277344 773.082031 4.789062 499.925781 4.789062 "/>
<path style=" stroke:none;fill-rule:nonzero;fill:rgb(61.568627%,62.352941%,63.137255%);fill-opacity:1;" d="M 499.925781 4.789062 C 226.773438 4.789062 5.34375 120.277344 5.34375 262.714844 C 5.34375 405.148438 226.773438 520.425781 499.925781 520.425781 C 773.082031 520.425781 994.511719 404.9375 994.511719 262.714844 C 994.511719 120.277344 773.082031 4.789062 499.925781 4.789062 "/>
<path style=" stroke:none;fill-rule:nonzero;fill:rgb(61.568627%,62.745098%,63.529412%);fill-opacity:1;" d="M 499.925781 4.789062 C 226.773438 4.789062 5.34375 120.277344 5.34375 262.714844 C 5.34375 405.148438 226.773438 520.425781 499.925781 520.425781 C 773.082031 520.425781 994.511719 404.9375 994.511719 262.714844 C 994.511719 120.277344 773.082031 4.789062 499.925781 4.789062 "/>
<path style=" stroke:none;fill-rule:nonzero;fill:rgb(61.960784%,62.745098%,63.921569%);fill-opacity:1;" d="M 499.925781 5.003906 C 226.773438 5.003906 5.34375 120.277344 5.34375 262.714844 C 5.34375 404.9375 226.773438 520.425781 499.925781 520.425781 C 773.082031 520.425781 994.511719 404.9375 994.511719 262.714844 C 994.511719 120.277344 773.082031 5.003906 499.925781 5.003906 "/>
<path style=" stroke:none;fill-rule:nonzero;fill:rgb(62.352941%,63.137255%,64.313725%);fill-opacity:1;" d="M 499.925781 5.003906 C 226.773438 5.003906 5.558594 120.277344 5.558594 262.714844 C 5.558594 404.9375 226.988281 520.425781 499.925781 520.425781 C 773.082031 520.425781 994.511719 405.148438 994.511719 262.714844 C 994.511719 120.277344 773.082031 5.003906 499.925781 5.003906 "/>
<path style=" stroke:none;fill-rule:nonzero;fill:rgb(62.745098%,63.529412%,64.313725%);fill-opacity:1;" d="M 499.925781 5.003906 C 226.988281 5.003906 5.558594 120.277344 5.558594 262.714844 C 5.558594 404.9375 226.988281 520.425781 499.925781 520.425781 C 773.082031 520.425781 994.296875 405.148438 994.296875 262.714844 C 994.296875 120.277344 773.082031 5.003906 499.925781 5.003906 "/>
<path style=" stroke:none;fill-rule:nonzero;fill:rgb(63.137255%,63.921569%,64.705882%);fill-opacity:1;" d="M 499.925781 5.003906 C 226.988281 5.003906 5.558594 120.492188 5.558594 262.714844 C 5.558594 404.9375 226.988281 520.210938 499.925781 520.210938 C 772.867188 520.210938 994.296875 404.9375 994.296875 262.714844 C 994.296875 120.492188 772.867188 5.003906 499.925781 5.003906 "/>
<path style=" stroke:none;fill-rule:nonzero;fill:rgb(63.137255%,63.921569%,65.098039%);fill-opacity:1;" d="M 499.925781 5.214844 C 226.988281 5.214844 5.558594 120.492188 5.558594 262.714844 C 5.558594 404.9375 226.773438 520.210938 499.925781 520.210938 C 772.867188 520.210938 994.296875 404.9375 994.296875 262.714844 C 994.296875 120.492188 772.867188 5.214844 499.925781 5.214844 "/>
<path style=" stroke:none;fill-rule:nonzero;fill:rgb(63.529412%,64.313725%,65.490196%);fill-opacity:1;" d="M 499.925781 5.214844 C 226.988281 5.214844 5.769531 120.492188 5.769531 262.714844 C 5.769531 404.9375 226.988281 520.210938 499.925781 520.210938 C 772.867188 520.210938 994.296875 404.9375 994.296875 262.714844 C 994.296875 120.492188 772.867188 5.214844 499.925781 5.214844 "/>
<path style=" stroke:none;fill-rule:nonzero;fill:rgb(63.921569%,64.705882%,65.882353%);fill-opacity:1;" d="M 499.925781 5.214844 C 226.988281 5.214844 5.769531 120.492188 5.769531 262.714844 C 5.769531 404.9375 226.988281 520.210938 499.925781 520.210938 C 772.867188 520.210938 994.085938 404.9375 994.085938 262.714844 C 994.085938 120.492188 772.867188 5.214844 499.925781 5.214844 "/>
<path style=" stroke:none;fill-rule:nonzero;fill:rgb(64.313725%,65.098039%,65.882353%);fill-opacity:1;" d="M 499.925781 5.214844 C 226.988281 5.214844 5.769531 120.492188 5.769531 262.714844 C 5.769531 404.9375 226.988281 519.996094 499.925781 519.996094 C 772.867188 519.996094 994.085938 404.722656 994.085938 262.714844 C 994.085938 120.492188 772.867188 5.214844 499.925781 5.214844 "/>
<path style=" stroke:none;fill-rule:nonzero;fill:rgb(64.313725%,65.490196%,66.27451%);fill-opacity:1;" d="M 499.925781 5.429688 C 227.199219 5.429688 5.984375 120.492188 5.984375 262.714844 C 5.984375 404.722656 227.199219 519.996094 500.140625 519.996094 C 773.082031 519.996094 994.296875 404.722656 994.296875 262.714844 C 994.085938 120.492188 772.867188 5.429688 499.925781 5.429688 "/>
<path style=" stroke:none;fill-rule:nonzero;fill:rgb(64.705882%,65.490196%,66.666667%);fill-opacity:1;" d="M 499.925781 5.429688 C 227.199219 5.429688 5.984375 120.492188 5.984375 262.714844 C 5.984375 404.722656 227.199219 519.996094 499.925781 519.996094 C 772.867188 519.996094 994.085938 404.722656 994.085938 262.714844 C 994.085938 120.492188 772.867188 5.429688 499.925781 5.429688 "/>
<path style=" stroke:none;fill-rule:nonzero;fill:rgb(65.098039%,65.882353%,67.058824%);fill-opacity:1;" d="M 499.925781 5.429688 C 227.199219 5.429688 5.984375 120.707031 5.984375 262.714844 C 5.984375 404.722656 227.199219 519.785156 499.925781 519.785156 C 772.652344 519.785156 993.871094 404.722656 993.871094 262.5 C 994.085938 120.707031 772.867188 5.429688 499.925781 5.429688 "/>
<path style=" stroke:none;fill-rule:nonzero;fill:rgb(65.490196%,66.27451%,67.45098%);fill-opacity:1;" d="M 499.925781 5.429688 C 227.199219 5.429688 5.984375 120.707031 5.984375 262.714844 C 5.984375 404.722656 227.199219 519.785156 499.925781 519.785156 C 772.867188 519.785156 993.871094 404.722656 993.871094 262.714844 C 993.871094 120.707031 772.867188 5.429688 499.925781 5.429688 "/>
<path style=" stroke:none;fill-rule:nonzero;fill:rgb(65.882353%,66.666667%,67.45098%);fill-opacity:1;" d="M 499.925781 5.644531 C 227.199219 5.644531 6.199219 120.707031 6.199219 262.714844 C 6.199219 404.722656 227.199219 519.785156 499.925781 519.785156 C 772.652344 519.785156 993.871094 404.722656 993.871094 262.714844 C 993.871094 120.707031 772.652344 5.644531 499.925781 5.644531 "/>
<path style=" stroke:none;fill-rule:nonzero;fill:rgb(65.882353%,67.058824%,67.843137%);fill-opacity:1;" d="M 499.925781 5.644531 C 227.199219 5.644531 6.199219 120.707031 6.199219 262.714844 C 6.199219 404.722656 227.199219 519.785156 499.925781 519.785156 C 772.652344 519.785156 993.871094 404.722656 993.871094 262.714844 C 993.871094 120.707031 772.652344 5.644531 499.925781 5.644531 "/>
<path style=" stroke:none;fill-rule:nonzero;fill:rgb(66.27451%,67.058824%,68.235294%);fill-opacity:1;" d="M 499.925781 5.644531 C 227.199219 5.644531 6.199219 120.707031 6.199219 262.714844 C 6.199219 404.722656 227.199219 519.785156 499.925781 519.785156 C 772.652344 519.785156 993.65625 404.722656 993.65625 262.714844 C 993.871094 120.707031 772.652344 5.644531 499.925781 5.644531 "/>
<path style=" stroke:none;fill-rule:nonzero;fill:rgb(66.666667%,67.45098%,68.627451%);fill-opacity:1;" d="M 499.925781 5.644531 C 227.414062 5.644531 6.410156 120.707031 6.410156 262.714844 C 6.410156 404.507812 227.414062 519.570312 500.140625 519.570312 C 772.867188 519.570312 993.871094 404.507812 993.871094 262.714844 C 993.65625 120.707031 772.652344 5.644531 499.925781 5.644531 "/>
<path style=" stroke:none;fill-rule:nonzero;fill:rgb(67.058824%,67.843137%,68.627451%);fill-opacity:1;" d="M 499.925781 5.859375 C 227.414062 5.859375 6.410156 120.707031 6.410156 262.714844 C 6.410156 404.507812 227.414062 519.570312 500.140625 519.570312 C 772.867188 519.570312 993.871094 404.507812 993.871094 262.714844 C 993.65625 120.707031 772.652344 5.859375 499.925781 5.859375 "/>
<path style=" stroke:none;fill-rule:nonzero;fill:rgb(67.45098%,68.235294%,69.019608%);fill-opacity:1;" d="M 499.925781 5.859375 C 227.414062 5.859375 6.410156 120.917969 6.410156 262.714844 C 6.410156 404.507812 227.414062 519.570312 499.925781 519.570312 C 772.441406 519.570312 993.65625 404.507812 993.65625 262.714844 C 993.65625 120.917969 772.652344 5.859375 499.925781 5.859375 "/>
<path style=" stroke:none;fill-rule:nonzero;fill:rgb(67.45098%,68.627451%,69.411765%);fill-opacity:1;" d="M 499.925781 5.859375 C 227.414062 5.859375 6.410156 120.917969 6.410156 262.714844 C 6.410156 404.507812 227.414062 519.570312 499.925781 519.570312 C 772.441406 519.570312 993.441406 404.507812 993.441406 262.714844 C 993.65625 120.917969 772.652344 5.859375 499.925781 5.859375 "/>
<path style=" stroke:none;fill-rule:nonzero;fill:rgb(67.843137%,68.627451%,69.803922%);fill-opacity:1;" d="M 499.925781 5.859375 C 227.414062 5.859375 6.625 120.917969 6.625 262.714844 C 6.625 404.507812 227.628906 519.355469 500.140625 519.355469 C 772.652344 519.355469 993.65625 404.292969 993.65625 262.714844 C 993.441406 120.917969 772.652344 5.859375 499.925781 5.859375 "/>
<path style=" stroke:none;fill-rule:nonzero;fill:rgb(68.235294%,69.019608%,70.196078%);fill-opacity:1;" d="M 500.140625 6.070312 C 227.628906 6.070312 6.625 120.917969 6.625 262.714844 C 6.625 404.507812 227.628906 519.355469 500.140625 519.355469 C 772.652344 519.355469 993.65625 404.507812 993.65625 262.714844 C 993.441406 120.917969 772.441406 6.070312 500.140625 6.070312 "/>
<path style=" stroke:none;fill-rule:nonzero;fill:rgb(68.627451%,69.411765%,70.196078%);fill-opacity:1;" d="M 500.140625 6.070312 C 227.628906 6.070312 6.625 120.917969 6.625 262.714844 C 6.625 404.507812 227.628906 519.355469 499.925781 519.355469 C 772.441406 519.355469 993.441406 404.507812 993.441406 262.714844 C 993.441406 120.917969 772.441406 6.070312 500.140625 6.070312 "/>
<path style=" stroke:none;fill-rule:nonzero;fill:rgb(69.019608%,69.803922%,70.588235%);fill-opacity:1;" d="M 500.140625 6.070312 C 227.628906 6.070312 6.839844 120.917969 6.839844 262.714844 C 6.839844 404.507812 227.628906 519.355469 500.140625 519.355469 C 772.652344 519.355469 993.441406 404.507812 993.441406 262.714844 C 993.441406 120.917969 772.441406 6.070312 500.140625 6.070312 "/>
<path style=" stroke:none;fill-rule:nonzero;fill:rgb(69.411765%,70.196078%,70.980392%);fill-opacity:1;" d="M 500.140625 6.070312 C 227.628906 6.070312 6.839844 120.917969 6.839844 262.714844 C 6.839844 404.292969 227.628906 519.355469 500.140625 519.355469 C 772.652344 519.355469 993.441406 404.507812 993.441406 262.714844 C 993.441406 120.917969 772.441406 6.070312 500.140625 6.070312 "/>
<path style=" stroke:none;fill-rule:nonzero;fill:rgb(69.411765%,70.196078%,71.372549%);fill-opacity:1;" d="M 500.140625 6.285156 C 227.628906 6.285156 6.839844 121.132812 6.839844 262.714844 C 6.839844 404.292969 227.628906 519.140625 500.140625 519.140625 C 772.441406 519.140625 993.441406 404.292969 993.441406 262.714844 C 993.230469 121.132812 772.441406 6.285156 500.140625 6.285156 "/>
<path style=" stroke:none;fill-rule:nonzero;fill:rgb(69.803922%,70.588235%,71.764706%);fill-opacity:1;" d="M 500.140625 6.285156 C 227.628906 6.285156 6.839844 121.132812 6.839844 262.714844 C 6.839844 404.292969 227.628906 519.140625 500.140625 519.140625 C 772.441406 519.140625 993.230469 404.292969 993.230469 262.714844 C 993.230469 121.132812 772.441406 6.285156 500.140625 6.285156 "/>
<path style=" stroke:none;fill-rule:nonzero;fill:rgb(70.196078%,70.980392%,71.764706%);fill-opacity:1;" d="M 500.140625 6.285156 C 227.84375 6.285156 7.054688 121.132812 7.054688 262.714844 C 7.054688 404.292969 227.84375 519.140625 500.140625 519.140625 C 772.441406 519.140625 993.230469 404.292969 993.230469 262.714844 C 993.230469 121.132812 772.441406 6.285156 500.140625 6.285156 "/>
<path style=" stroke:none;fill-rule:nonzero;fill:rgb(70.588235%,71.372549%,72.156863%);fill-opacity:1;" d="M 500.140625 6.285156 C 227.84375 6.285156 7.054688 121.132812 7.054688 262.714844 C 7.054688 404.292969 227.84375 519.140625 500.140625 519.140625 C 772.441406 519.140625 993.230469 404.292969 993.230469 262.714844 C 993.230469 121.132812 772.441406 6.285156 500.140625 6.285156 "/>
<path style=" stroke:none;fill-rule:nonzero;fill:rgb(70.980392%,71.764706%,72.54902%);fill-opacity:1;" d="M 500.140625 6.5 C 227.84375 6.5 7.054688 121.132812 7.054688 262.714844 C 7.054688 404.292969 227.84375 518.929688 500.140625 518.929688 C 772.441406 518.929688 993.230469 404.082031 993.230469 262.714844 C 993.015625 121.132812 772.441406 6.5 500.140625 6.5 "/>
<path style=" stroke:none;fill-rule:nonzero;fill:rgb(70.980392%,71.764706%,72.941176%);fill-opacity:1;" d="M 500.140625 6.5 C 227.84375 6.5 7.054688 121.132812 7.054688 262.714844 C 7.054688 404.292969 227.84375 518.929688 500.140625 518.929688 C 772.441406 518.929688 993.015625 404.292969 993.015625 262.714844 C 993.015625 121.132812 772.226562 6.5 500.140625 6.5 "/>
<path style=" stroke:none;fill-rule:nonzero;fill:rgb(71.372549%,72.156863%,73.333333%);fill-opacity:1;" d="M 500.140625 6.5 C 227.84375 6.5 7.265625 121.132812 7.265625 262.714844 C 7.265625 404.292969 227.84375 518.929688 500.140625 518.929688 C 772.441406 518.929688 993.015625 404.292969 993.015625 262.714844 C 993.015625 121.132812 772.226562 6.5 500.140625 6.5 "/>
<path style=" stroke:none;fill-rule:nonzero;fill:rgb(71.764706%,72.54902%,73.333333%);fill-opacity:1;" d="M 500.140625 6.5 C 227.84375 6.5 7.265625 121.347656 7.265625 262.714844 C 7.265625 404.082031 227.84375 518.929688 500.140625 518.929688 C 772.226562 518.929688 993.015625 404.292969 993.015625 262.714844 C 993.015625 121.347656 772.226562 6.5 500.140625 6.5 "/>
<path style=" stroke:none;fill-rule:nonzero;fill:rgb(72.156863%,72.941176%,73.72549%);fill-opacity:1;" d="M 500.140625 6.714844 C 228.054688 6.714844 7.265625 121.347656 7.265625 262.714844 C 7.265625 404.082031 227.84375 518.714844 500.140625 518.714844 C 772.226562 518.714844 993.015625 404.082031 993.015625 262.714844 C 993.015625 121.347656 772.226562 6.714844 500.140625 6.714844 "/>
<path style=" stroke:none;fill-rule:nonzero;fill:rgb(72.54902%,73.333333%,74.117647%);fill-opacity:1;" d="M 500.140625 6.714844 C 228.054688 6.714844 7.480469 121.347656 7.480469 262.714844 C 7.480469 404.082031 228.054688 518.714844 500.140625 518.714844 C 772.226562 518.714844 992.800781 404.082031 992.800781 262.714844 C 992.800781 121.347656 772.226562 6.714844 500.140625 6.714844 "/>
<path style=" stroke:none;fill-rule:nonzero;fill:rgb(72.941176%,73.333333%,74.509804%);fill-opacity:1;" d="M 500.140625 6.714844 C 228.054688 6.714844 7.480469 121.347656 7.480469 262.714844 C 7.480469 404.082031 228.054688 518.714844 500.140625 518.714844 C 772.226562 518.714844 992.800781 404.082031 992.800781 262.714844 C 992.800781 121.347656 772.226562 6.714844 500.140625 6.714844 "/>
<path style=" stroke:none;fill-rule:nonzero;fill:rgb(72.941176%,73.72549%,74.901961%);fill-opacity:1;" d="M 500.140625 6.714844 C 228.054688 6.714844 7.480469 121.347656 7.480469 262.714844 C 7.480469 404.082031 228.054688 518.714844 500.140625 518.714844 C 772.226562 518.714844 992.800781 404.082031 992.800781 262.714844 C 992.800781 121.347656 772.226562 6.714844 500.140625 6.714844 "/>
<path style=" stroke:none;fill-rule:nonzero;fill:rgb(73.333333%,74.117647%,74.901961%);fill-opacity:1;" d="M 500.140625 6.925781 C 228.054688 6.925781 7.480469 121.347656 7.480469 262.714844 C 7.480469 404.082031 228.054688 518.5 499.925781 518.5 C 772.011719 518.5 992.589844 403.867188 992.589844 262.714844 C 992.800781 121.347656 772.226562 6.925781 500.140625 6.925781 "/>
<path style=" stroke:none;fill-rule:nonzero;fill:rgb(73.72549%,74.509804%,75.294118%);fill-opacity:1;" d="M 500.140625 6.925781 C 228.054688 6.925781 7.695312 121.347656 7.695312 262.714844 C 7.695312 404.082031 228.269531 518.5 500.140625 518.5 C 772.226562 518.5 992.589844 403.867188 992.589844 262.714844 C 992.589844 121.347656 772.226562 6.925781 500.140625 6.925781 "/>
<path style=" stroke:none;fill-rule:nonzero;fill:rgb(74.117647%,74.901961%,75.686275%);fill-opacity:1;" d="M 500.140625 6.925781 C 228.269531 6.925781 7.695312 121.5625 7.695312 262.714844 C 7.695312 403.867188 228.269531 518.5 500.140625 518.5 C 772.011719 518.5 992.589844 403.867188 992.589844 262.714844 C 992.589844 121.5625 772.011719 6.925781 500.140625 6.925781 "/>
<path style=" stroke:none;fill-rule:nonzero;fill:rgb(74.509804%,75.294118%,76.078431%);fill-opacity:1;" d="M 500.140625 6.925781 C 228.269531 6.925781 7.695312 121.5625 7.695312 262.714844 C 7.695312 403.867188 228.054688 518.5 500.140625 518.5 C 772.011719 518.5 992.589844 404.082031 992.589844 262.714844 C 992.589844 121.5625 772.011719 6.925781 500.140625 6.925781 "/>
<path style=" stroke:none;fill-rule:nonzero;fill:rgb(74.901961%,75.294118%,76.470588%);fill-opacity:1;" d="M 500.140625 7.140625 C 228.269531 7.140625 7.910156 121.5625 7.910156 262.714844 C 7.910156 403.867188 228.269531 518.285156 500.140625 518.285156 C 772.011719 518.285156 992.589844 403.867188 992.589844 262.714844 C 992.589844 121.5625 772.011719 7.140625 500.140625 7.140625 "/>
<path style=" stroke:none;fill-rule:nonzero;fill:rgb(74.901961%,75.686275%,76.470588%);fill-opacity:1;" d="M 500.140625 7.140625 C 228.269531 7.140625 7.910156 121.5625 7.910156 262.714844 C 7.910156 403.867188 228.269531 518.285156 500.140625 518.285156 C 772.011719 518.285156 992.375 403.867188 992.375 262.714844 C 992.375 121.5625 772.011719 7.140625 500.140625 7.140625 "/>
<path style=" stroke:none;fill-rule:nonzero;fill:rgb(75.294118%,76.078431%,76.862745%);fill-opacity:1;" d="M 500.140625 7.140625 C 228.269531 7.140625 7.910156 121.5625 7.910156 262.714844 C 7.910156 403.867188 228.269531 518.285156 500.140625 518.285156 C 772.011719 518.285156 992.375 403.867188 992.375 262.714844 C 992.375 121.5625 772.011719 7.140625 500.140625 7.140625 "/>
<path style=" stroke:none;fill-rule:nonzero;fill:rgb(75.686275%,76.470588%,77.254902%);fill-opacity:1;" d="M 500.140625 7.140625 C 228.269531 7.140625 7.910156 121.5625 7.910156 262.714844 C 7.910156 403.867188 228.269531 518.285156 500.140625 518.285156 C 772.011719 518.285156 992.375 403.867188 992.375 262.714844 C 992.375 121.5625 772.011719 7.140625 500.140625 7.140625 "/>
<path style=" stroke:none;fill-rule:nonzero;fill:rgb(76.078431%,76.862745%,77.647059%);fill-opacity:1;" d="M 500.140625 7.355469 C 228.484375 7.355469 8.121094 121.5625 8.121094 262.714844 C 8.121094 403.867188 228.484375 518.285156 500.140625 518.285156 C 772.011719 518.285156 992.375 403.867188 992.375 262.714844 C 992.375 121.5625 772.011719 7.355469 500.140625 7.355469 "/>
<path style=" stroke:none;fill-rule:nonzero;fill:rgb(76.470588%,76.862745%,78.039216%);fill-opacity:1;" d="M 500.140625 7.355469 C 228.484375 7.355469 8.121094 121.773438 8.121094 262.714844 C 8.121094 403.652344 228.484375 518.074219 500.140625 518.074219 C 771.800781 518.074219 992.160156 403.652344 992.160156 262.714844 C 992.375 121.773438 772.011719 7.355469 500.140625 7.355469 "/>
<path style=" stroke:none;fill-rule:nonzero;fill:rgb(76.862745%,77.254902%,78.039216%);fill-opacity:1;" d="M 500.140625 7.355469 C 228.484375 7.355469 8.121094 121.773438 8.121094 262.714844 C 8.121094 403.652344 228.484375 518.074219 500.140625 518.074219 C 771.800781 518.074219 992.160156 403.652344 992.160156 262.714844 C 992.160156 121.773438 771.800781 7.355469 500.140625 7.355469 "/>
<path style=" stroke:none;fill-rule:nonzero;fill:rgb(76.862745%,77.647059%,78.431373%);fill-opacity:1;" d="M 500.140625 7.355469 C 228.484375 7.355469 8.121094 121.773438 8.121094 262.714844 C 8.121094 403.652344 228.484375 518.074219 500.140625 518.074219 C 771.800781 518.074219 992.160156 403.652344 992.160156 262.714844 C 992.160156 121.773438 771.800781 7.355469 500.140625 7.355469 "/>
<path style=" stroke:none;fill-rule:nonzero;fill:rgb(77.254902%,78.039216%,78.823529%);fill-opacity:1;" d="M 500.140625 7.570312 C 228.484375 7.570312 8.335938 121.773438 8.335938 262.714844 C 8.335938 403.652344 228.484375 518.074219 500.140625 518.074219 C 771.800781 518.074219 992.160156 403.867188 992.160156 262.714844 C 992.160156 121.773438 771.800781 7.570312 500.140625 7.570312 "/>
<path style=" stroke:none;fill-rule:nonzero;fill:rgb(77.647059%,78.431373%,79.215686%);fill-opacity:1;" d="M 500.140625 7.570312 C 228.484375 7.570312 8.335938 121.773438 8.335938 262.714844 C 8.335938 403.652344 228.484375 517.859375 500.140625 517.859375 C 771.800781 517.859375 991.945312 403.652344 991.945312 262.714844 C 992.160156 121.773438 771.800781 7.570312 500.140625 7.570312 "/>
<path style=" stroke:none;fill-rule:nonzero;fill:rgb(78.039216%,78.823529%,79.607843%);fill-opacity:1;" d="M 500.140625 7.570312 C 228.695312 7.570312 8.335938 121.773438 8.335938 262.714844 C 8.335938 403.652344 228.484375 517.859375 500.140625 517.859375 C 771.800781 517.859375 991.945312 403.652344 991.945312 262.714844 C 991.945312 121.773438 771.800781 7.570312 500.140625 7.570312 "/>
<path style=" stroke:none;fill-rule:nonzero;fill:rgb(78.431373%,78.823529%,79.607843%);fill-opacity:1;" d="M 500.140625 7.570312 C 228.695312 7.570312 8.550781 121.773438 8.550781 262.714844 C 8.550781 403.652344 228.695312 517.859375 500.140625 517.859375 C 771.800781 517.859375 991.945312 403.652344 991.945312 262.714844 C 991.945312 121.773438 771.800781 7.570312 500.140625 7.570312 "/>
<path style=" stroke:none;fill-rule:nonzero;fill:rgb(78.823529%,79.215686%,80%);fill-opacity:1;" d="M 500.140625 7.78125 C 228.695312 7.78125 8.550781 121.773438 8.550781 262.714844 C 8.550781 403.652344 228.695312 517.859375 500.140625 517.859375 C 771.585938 517.859375 991.945312 403.652344 991.945312 262.714844 C 991.945312 121.773438 771.800781 7.78125 500.140625 7.78125 "/>
<path style=" stroke:none;fill-rule:nonzero;fill:rgb(78.823529%,79.607843%,80.392157%);fill-opacity:1;" d="M 500.140625 7.78125 C 228.695312 7.78125 8.550781 121.988281 8.550781 262.714844 C 8.550781 403.4375 228.695312 517.644531 500.140625 517.644531 C 771.585938 517.644531 991.734375 403.4375 991.734375 262.714844 C 991.945312 121.988281 771.800781 7.78125 500.140625 7.78125 "/>
<path style=" stroke:none;fill-rule:nonzero;fill:rgb(79.215686%,80%,80.784314%);fill-opacity:1;" d="M 500.140625 7.78125 C 228.695312 7.78125 8.550781 121.988281 8.550781 262.714844 C 8.550781 403.652344 228.695312 517.644531 500.140625 517.644531 C 771.585938 517.644531 991.734375 403.4375 991.734375 262.714844 C 991.945312 121.988281 771.800781 7.78125 500.140625 7.78125 "/>
<path style=" stroke:none;fill-rule:nonzero;fill:rgb(79.607843%,80.392157%,80.784314%);fill-opacity:1;" d="M 500.140625 7.78125 C 228.695312 7.78125 8.761719 121.988281 8.761719 262.714844 C 8.761719 403.4375 228.695312 517.644531 500.140625 517.644531 C 771.585938 517.644531 991.734375 403.4375 991.734375 262.714844 C 991.734375 121.988281 771.585938 7.78125 500.140625 7.78125 "/>
<path style=" stroke:none;fill-rule:nonzero;fill:rgb(80%,80.392157%,81.176471%);fill-opacity:1;" d="M 500.140625 7.996094 C 228.910156 7.996094 8.761719 121.988281 8.761719 262.714844 C 8.761719 403.4375 228.910156 517.644531 500.140625 517.644531 C 771.585938 517.644531 991.734375 403.4375 991.734375 262.714844 C 991.734375 121.988281 771.585938 7.996094 500.140625 7.996094 "/>
<path style=" stroke:none;fill-rule:nonzero;fill:rgb(80.392157%,80.784314%,81.568627%);fill-opacity:1;" d="M 500.140625 7.996094 C 228.910156 7.996094 8.761719 121.988281 8.761719 262.714844 C 8.761719 403.4375 228.910156 517.644531 500.140625 517.644531 C 771.585938 517.644531 991.734375 403.4375 991.734375 262.714844 C 991.734375 121.988281 771.585938 7.996094 500.140625 7.996094 "/>
<path style=" stroke:none;fill-rule:nonzero;fill:rgb(80.784314%,81.176471%,81.960784%);fill-opacity:1;" d="M 500.140625 7.996094 C 228.910156 7.996094 8.976562 121.988281 8.976562 262.714844 C 8.976562 403.4375 228.910156 517.429688 500.355469 517.429688 C 771.800781 517.429688 991.734375 403.4375 991.734375 262.714844 C 991.734375 121.988281 771.585938 7.996094 500.140625 7.996094 "/>
<path style=" stroke:none;fill-rule:nonzero;fill:rgb(80.784314%,81.568627%,82.352941%);fill-opacity:1;" d="M 500.140625 7.996094 C 228.910156 7.996094 8.976562 121.988281 8.976562 262.714844 C 8.976562 403.4375 228.910156 517.429688 500.355469 517.429688 C 771.800781 517.429688 991.734375 403.4375 991.734375 262.714844 C 991.519531 121.988281 771.585938 7.996094 500.140625 7.996094 "/>
<path style=" stroke:none;fill-rule:nonzero;fill:rgb(81.176471%,81.960784%,82.352941%);fill-opacity:1;" d="M 500.355469 8.210938 C 228.910156 8.210938 8.976562 122.203125 8.976562 262.714844 C 8.976562 403.4375 228.910156 517.429688 500.140625 517.429688 C 771.371094 517.429688 991.519531 403.4375 991.519531 262.714844 C 991.519531 122.203125 771.585938 8.210938 500.355469 8.210938 "/>
<path style=" stroke:none;fill-rule:nonzero;fill:rgb(81.568627%,81.960784%,82.745098%);fill-opacity:1;" d="M 500.355469 8.210938 C 228.910156 8.210938 8.976562 122.203125 8.976562 262.714844 C 8.976562 403.226562 228.910156 517.21875 500.140625 517.21875 C 771.371094 517.21875 991.304688 403.226562 991.304688 262.714844 C 991.519531 122.203125 771.585938 8.210938 500.355469 8.210938 "/>
<path style=" stroke:none;fill-rule:nonzero;fill:rgb(81.960784%,82.352941%,83.137255%);fill-opacity:1;" d="M 500.355469 8.210938 C 229.125 8.210938 9.191406 122.203125 9.191406 262.714844 C 9.191406 403.226562 229.125 517.21875 500.355469 517.21875 C 771.585938 517.21875 991.519531 403.226562 991.519531 262.714844 C 991.519531 122.203125 771.585938 8.210938 500.355469 8.210938 "/>
<path style=" stroke:none;fill-rule:nonzero;fill:rgb(82.352941%,82.745098%,83.529412%);fill-opacity:1;" d="M 500.355469 8.210938 C 229.125 8.210938 9.191406 122.203125 9.191406 262.714844 C 9.191406 403.226562 229.125 517.21875 500.355469 517.21875 C 771.585938 517.21875 991.519531 403.226562 991.519531 262.714844 C 991.304688 122.203125 771.585938 8.210938 500.355469 8.210938 "/>
<path style=" stroke:none;fill-rule:nonzero;fill:rgb(82.352941%,83.137255%,83.921569%);fill-opacity:1;" d="M 500.355469 8.425781 C 229.125 8.425781 9.191406 122.203125 9.191406 262.714844 C 9.191406 403.226562 229.125 517.21875 500.140625 517.21875 C 771.371094 517.21875 991.304688 403.226562 991.304688 262.714844 C 991.304688 122.203125 771.371094 8.425781 500.355469 8.425781 "/>
<path style=" stroke:none;fill-rule:nonzero;fill:rgb(82.745098%,83.529412%,83.921569%);fill-opacity:1;" d="M 500.355469 8.425781 C 229.125 8.425781 9.40625 122.203125 9.40625 262.714844 C 9.40625 403.226562 229.339844 517.003906 500.355469 517.003906 C 771.585938 517.003906 991.304688 403.011719 991.304688 262.714844 C 991.304688 122.203125 771.371094 8.425781 500.355469 8.425781 "/>
<path style=" stroke:none;fill-rule:nonzero;fill:rgb(83.137255%,83.921569%,84.313725%);fill-opacity:1;" d="M 500.355469 8.425781 C 229.125 8.425781 9.40625 122.203125 9.40625 262.714844 C 9.40625 403.226562 229.125 517.003906 500.355469 517.003906 C 771.585938 517.003906 991.304688 403.011719 991.304688 262.714844 C 991.304688 122.203125 771.371094 8.425781 500.355469 8.425781 "/>
<path style=" stroke:none;fill-rule:nonzero;fill:rgb(83.529412%,83.921569%,84.705882%);fill-opacity:1;" d="M 500.355469 8.425781 C 229.125 8.425781 9.40625 122.417969 9.40625 262.714844 C 9.40625 403.226562 229.125 517.003906 500.355469 517.003906 C 771.371094 517.003906 991.304688 403.226562 991.304688 262.714844 C 991.304688 122.417969 771.371094 8.425781 500.355469 8.425781 "/>
<path style=" stroke:none;fill-rule:nonzero;fill:rgb(83.921569%,84.313725%,85.098039%);fill-opacity:1;" d="M 500.355469 8.636719 C 229.339844 8.636719 9.40625 122.417969 9.40625 262.714844 C 9.40625 403.011719 229.125 517.003906 500.140625 517.003906 C 771.15625 517.003906 991.089844 403.226562 991.089844 262.714844 C 991.089844 122.417969 771.371094 8.636719 500.355469 8.636719 "/>
<path style=" stroke:none;fill-rule:nonzero;fill:rgb(84.313725%,84.705882%,85.098039%);fill-opacity:1;" d="M 500.355469 8.636719 C 229.339844 8.636719 9.617188 122.417969 9.617188 262.714844 C 9.617188 403.011719 229.339844 517.003906 500.355469 517.003906 C 771.371094 517.003906 991.089844 403.226562 991.089844 262.714844 C 991.089844 122.417969 771.371094 8.636719 500.355469 8.636719 "/>
<path style=" stroke:none;fill-rule:nonzero;fill:rgb(84.313725%,85.098039%,85.490196%);fill-opacity:1;" d="M 500.355469 8.636719 C 229.339844 8.636719 9.617188 122.417969 9.617188 262.714844 C 9.617188 403.011719 229.339844 516.789062 500.355469 516.789062 C 771.371094 516.789062 991.089844 403.011719 991.089844 262.714844 C 991.089844 122.417969 771.371094 8.636719 500.355469 8.636719 "/>
<path style=" stroke:none;fill-rule:nonzero;fill:rgb(84.705882%,85.490196%,85.882353%);fill-opacity:1;" d="M 500.355469 8.636719 C 229.339844 8.636719 9.617188 122.417969 9.617188 262.714844 C 9.617188 403.011719 229.339844 516.789062 500.355469 516.789062 C 771.371094 516.789062 991.089844 403.011719 991.089844 262.714844 C 991.089844 122.417969 771.371094 8.636719 500.355469 8.636719 "/>
<path style=" stroke:none;fill-rule:nonzero;fill:rgb(85.098039%,85.490196%,86.27451%);fill-opacity:1;" d="M 500.355469 8.851562 C 229.339844 8.851562 9.617188 122.417969 9.617188 262.714844 C 9.617188 403.011719 229.339844 516.789062 500.140625 516.789062 C 771.15625 516.789062 990.878906 403.011719 990.878906 262.714844 C 990.878906 122.417969 771.371094 8.851562 500.355469 8.851562 "/>
<path style=" stroke:none;fill-rule:nonzero;fill:rgb(85.490196%,85.882353%,86.666667%);fill-opacity:1;" d="M 500.355469 8.851562 C 229.339844 8.851562 9.832031 122.417969 9.832031 262.714844 C 9.832031 403.011719 229.550781 516.789062 500.355469 516.789062 C 771.371094 516.789062 990.878906 403.011719 990.878906 262.714844 C 990.878906 122.417969 771.15625 8.851562 500.355469 8.851562 "/>
<path style=" stroke:none;fill-rule:nonzero;fill:rgb(85.882353%,86.27451%,86.666667%);fill-opacity:1;" d="M 500.355469 8.851562 C 229.550781 8.851562 9.832031 122.628906 9.832031 262.714844 C 9.832031 403.011719 229.550781 516.574219 500.355469 516.574219 C 771.15625 516.574219 990.878906 402.796875 990.878906 262.714844 C 990.878906 122.628906 771.15625 8.851562 500.355469 8.851562 "/>
<path style=" stroke:none;fill-rule:nonzero;fill:rgb(86.27451%,86.666667%,87.058824%);fill-opacity:1;" d="M 500.355469 8.851562 C 229.550781 8.851562 9.832031 122.628906 9.832031 262.714844 C 9.832031 403.011719 229.339844 516.574219 500.355469 516.574219 C 771.15625 516.574219 990.878906 402.796875 990.878906 262.714844 C 990.878906 122.628906 771.15625 8.851562 500.355469 8.851562 "/>
<path style=" stroke:none;fill-rule:nonzero;fill:rgb(86.27451%,87.058824%,87.45098%);fill-opacity:1;" d="M 500.355469 9.066406 C 229.550781 9.066406 10.046875 122.628906 10.046875 262.714844 C 10.046875 402.796875 229.550781 516.574219 500.355469 516.574219 C 771.15625 516.574219 990.878906 403.011719 990.878906 262.714844 C 990.664062 122.628906 771.15625 9.066406 500.355469 9.066406 "/>
<path style=" stroke:none;fill-rule:nonzero;fill:rgb(86.666667%,87.058824%,87.843137%);fill-opacity:1;" d="M 500.355469 9.066406 C 229.550781 9.066406 10.046875 122.628906 10.046875 262.714844 C 10.046875 402.796875 229.550781 516.574219 500.355469 516.574219 C 771.15625 516.574219 990.664062 403.011719 990.664062 262.714844 C 990.664062 122.628906 771.15625 9.066406 500.355469 9.066406 "/>
<path style=" stroke:none;fill-rule:nonzero;fill:rgb(87.058824%,87.45098%,87.843137%);fill-opacity:1;" d="M 500.355469 9.066406 C 229.550781 9.066406 10.046875 122.628906 10.046875 262.714844 C 10.046875 402.796875 229.550781 516.363281 500.355469 516.363281 C 771.15625 516.363281 990.664062 402.796875 990.664062 262.714844 C 990.664062 122.628906 771.15625 9.066406 500.355469 9.066406 "/>
<path style=" stroke:none;fill-rule:nonzero;fill:rgb(87.45098%,87.843137%,88.235294%);fill-opacity:1;" d="M 500.355469 9.066406 C 229.550781 9.066406 10.046875 122.628906 10.046875 262.714844 C 10.046875 402.796875 229.550781 516.363281 500.355469 516.363281 C 771.15625 516.363281 990.664062 402.796875 990.664062 262.714844 C 990.664062 122.628906 771.15625 9.066406 500.355469 9.066406 "/>
<path style=" stroke:none;fill-rule:nonzero;fill:rgb(87.843137%,88.235294%,88.627451%);fill-opacity:1;" d="M 500.355469 9.28125 C 229.765625 9.28125 10.257812 122.628906 10.257812 262.714844 C 10.257812 402.796875 229.765625 516.363281 500.355469 516.363281 C 771.15625 516.363281 990.664062 402.796875 990.664062 262.714844 C 990.664062 122.628906 771.15625 9.28125 500.355469 9.28125 "/>
<path style=" stroke:none;fill-rule:nonzero;fill:rgb(87.843137%,88.627451%,89.019608%);fill-opacity:1;" d="M 500.355469 9.28125 C 229.765625 9.28125 10.257812 122.84375 10.257812 262.714844 C 10.257812 402.796875 229.765625 516.363281 500.355469 516.363281 C 770.945312 516.363281 990.449219 402.796875 990.449219 262.714844 C 990.449219 122.84375 770.945312 9.28125 500.355469 9.28125 "/>
<path style=" stroke:none;fill-rule:nonzero;fill:rgb(88.235294%,88.627451%,89.019608%);fill-opacity:1;" d="M 500.355469 9.28125 C 229.765625 9.28125 10.257812 122.84375 10.257812 262.714844 C 10.257812 402.796875 229.765625 516.148438 500.355469 516.148438 C 770.945312 516.148438 990.449219 402.582031 990.449219 262.714844 C 990.449219 122.84375 770.945312 9.28125 500.355469 9.28125 "/>
<path style=" stroke:none;fill-rule:nonzero;fill:rgb(88.627451%,89.019608%,89.411765%);fill-opacity:1;" d="M 500.355469 9.28125 C 229.765625 9.28125 10.472656 122.84375 10.472656 262.929688 C 10.472656 402.796875 229.765625 516.363281 500.570312 516.363281 C 771.15625 516.363281 990.664062 402.796875 990.664062 262.929688 C 990.449219 122.84375 770.945312 9.28125 500.355469 9.28125 "/>
<path style=" stroke:none;fill-rule:nonzero;fill:rgb(89.019608%,89.411765%,89.803922%);fill-opacity:1;" d="M 500.355469 9.492188 C 229.765625 9.492188 10.472656 122.84375 10.472656 262.929688 C 10.472656 402.796875 229.765625 516.363281 500.355469 516.363281 C 770.945312 516.363281 990.449219 402.796875 990.449219 262.929688 C 990.449219 122.84375 770.945312 9.492188 500.355469 9.492188 "/>
<path style=" stroke:none;fill-rule:nonzero;fill:rgb(89.411765%,89.803922%,90.196078%);fill-opacity:1;" d="M 500.355469 9.492188 C 229.765625 9.492188 10.472656 122.84375 10.472656 262.929688 C 10.472656 402.796875 229.765625 516.363281 500.355469 516.363281 C 770.945312 516.363281 990.238281 402.796875 990.238281 262.929688 C 990.238281 122.84375 770.945312 9.492188 500.355469 9.492188 "/>
<path style=" stroke:none;fill-rule:nonzero;fill:rgb(89.803922%,90.196078%,90.588235%);fill-opacity:1;" d="M 500.355469 9.492188 C 229.980469 9.492188 10.472656 122.84375 10.472656 262.929688 C 10.472656 402.796875 229.765625 516.148438 500.355469 516.148438 C 770.945312 516.148438 990.238281 402.796875 990.238281 262.929688 C 990.238281 122.84375 770.945312 9.492188 500.355469 9.492188 "/>
<path style=" stroke:none;fill-rule:nonzero;fill:rgb(89.803922%,90.196078%,90.588235%);fill-opacity:1;" d="M 500.355469 9.492188 C 229.980469 9.492188 10.6875 122.84375 10.6875 262.929688 C 10.6875 402.796875 229.980469 516.148438 500.570312 516.148438 C 771.15625 516.148438 990.449219 402.796875 990.449219 262.929688 C 990.238281 122.84375 770.945312 9.492188 500.355469 9.492188 "/>
<path style=" stroke:none;fill-rule:nonzero;fill:rgb(90.196078%,90.588235%,90.980392%);fill-opacity:1;" d="M 500.355469 9.707031 C 229.980469 9.707031 10.6875 123.058594 10.6875 262.929688 C 10.6875 402.796875 229.980469 516.148438 500.355469 516.148438 C 770.730469 516.148438 990.238281 402.796875 990.238281 262.929688 C 990.238281 123.058594 770.945312 9.707031 500.355469 9.707031 "/>
<path style=" stroke:none;fill-rule:nonzero;fill:url(#linear0);" d="M 499.5 20.828125 C 234.46875 20.828125 19.664062 129.046875 19.664062 262.5 C 19.664062 395.953125 234.46875 504.171875 499.5 504.171875 C 764.53125 504.171875 979.335938 395.953125 979.335938 262.5 C 979.335938 129.046875 764.53125 20.828125 499.5 20.828125 "/>
<path style="fill:none;stroke-width:2.8942;stroke-linecap:butt;stroke-linejoin:miter;stroke:rgb(0%,30.588235%,14.117647%);stroke-opacity:1;stroke-miterlimit:4;" d="M 233.7 23.200851 C 117.500629 23.200851 23.300185 68.199759 23.300185 123.700909 C 23.300185 179.200233 117.500629 224.199141 233.7 224.199141 C 349.899371 224.199141 444.099815 179.200233 444.099815 123.700909 C 444.099815 68.199759 349.899371 23.200851 233.7 23.200851 " transform="matrix(2.137356,0,0,2.13868,0,0.0839218)"/>
<path style="fill:none;stroke-width:5.4873;stroke-linecap:butt;stroke-linejoin:miter;stroke:rgb(96.078431%,94.117647%,80%);stroke-opacity:1;stroke-miterlimit:4;" d="M 233.7 17.299504 C 114.399177 17.299504 17.700392 64.599773 17.700392 122.800456 C 17.700392 181.099769 114.399177 228.299582 233.7 228.299582 C 353.000823 228.299582 449.800127 180.999313 449.800127 122.800456 C 449.699608 64.599773 353.000823 17.299504 233.7 17.299504 " transform="matrix(2.137356,0,0,2.13868,0,0.0839218)"/>
<path style=" stroke:none;fill-rule:nonzero;fill:rgb(96.078431%,94.117647%,80%);fill-opacity:1;" d="M 776.5 160.058594 L 701.050781 160.058594 L 691.863281 187.644531 L 740.59375 187.644531 L 685.023438 207.75 L 681.390625 218.871094 L 767.097656 189.570312 L 776.5 160.058594 M 303.289062 206.253906 L 293.03125 235.550781 L 219.507812 235.550781 C 219.507812 235.550781 221.214844 234.910156 223.566406 229.992188 C 225.917969 225.074219 259.902344 126.050781 259.902344 126.050781 C 259.902344 126.050781 264.605469 115.574219 259.261719 113.007812 L 301.792969 113.007812 C 301.792969 113.007812 299.445312 112.363281 295.382812 122.84375 C 293.03125 128.832031 264.605469 208.390625 264.605469 208.390625 L 295.382812 208.390625 C 295.382812 208.390625 302.4375 209.03125 303.289062 206.253906 M 424.265625 235.550781 L 458.890625 235.550781 C 458.890625 235.550781 456.539062 231.917969 458.035156 227.851562 C 459.957031 222.292969 478.339844 169.894531 478.339844 169.894531 L 486.460938 235.550781 L 517.882812 235.550781 L 558.917969 118.78125 C 558.917969 118.78125 560.628906 113.21875 562.980469 113.21875 L 529.636719 113.21875 C 529.636719 113.21875 530.492188 117.285156 529.421875 120.277344 C 528.140625 123.484375 509.332031 176.3125 509.332031 176.3125 L 501.851562 113.21875 L 465.945312 113.21875 C 465.945312 113.21875 467.867188 116.429688 466.585938 119.636719 C 465.515625 122.417969 428.539062 228.707031 428.539062 228.707031 C 428.539062 228.707031 426.402344 235.550781 424.265625 235.550781 M 621.96875 113.21875 L 582.644531 113.21875 C 582.644531 113.21875 585.636719 118.140625 581.789062 129.6875 C 577.941406 141.238281 547.804688 226.355469 547.804688 226.355469 C 547.804688 226.355469 545.453125 234.484375 542.246094 235.980469 L 589.695312 235.980469 C 589.695312 235.980469 647.191406 238.332031 664.929688 175.027344 C 664.71875 174.8125 687.160156 112.578125 621.96875 113.21875 Z M 626.246094 180.160156 C 616.199219 205.824219 601.238281 207.535156 593.328125 207.535156 L 587.773438 207.535156 L 610.855469 139.527344 L 619.832031 139.527344 C 619.621094 139.527344 642.703125 138.242188 626.246094 180.160156 Z M 166.925781 334.359375 L 242.375 334.359375 L 251.566406 306.769531 L 202.621094 306.769531 L 258.40625 286.667969 L 262.039062 275.546875 L 176.332031 305.058594 L 166.925781 334.359375 M 381.730469 308.695312 C 395.839844 261.214844 348.175781 262.5 348.175781 262.5 L 299.230469 262.5 C 302.863281 266.5625 300.085938 275.332031 300.085938 275.332031 C 300.085938 275.332031 269.734375 366.226562 267.382812 373.285156 C 265.03125 380.339844 260.757812 385.046875 260.757812 385.046875 L 299.445312 385.046875 C 298.160156 385.046875 298.160156 380.984375 298.160156 380.984375 L 312.054688 342.488281 C 312.054688 342.488281 329.367188 377.988281 330.648438 380.339844 C 331.71875 382.90625 331.289062 384.832031 331.289062 384.832031 L 372.542969 384.832031 C 368.480469 384.832031 364.417969 376.917969 364.417969 376.917969 L 343.902344 338.210938 C 372.328125 338.636719 381.730469 308.695312 381.730469 308.695312 Z M 347.960938 304.417969 C 342.617188 316.609375 327.871094 315.113281 327.871094 315.113281 L 320.390625 315.113281 L 328.296875 290.515625 L 336.417969 290.515625 C 354.160156 290.515625 347.960938 304.417969 347.960938 304.417969 Z M 808.5625 310.191406 C 823.738281 260.359375 775.433594 262.929688 775.433594 262.929688 L 726.914062 262.929688 C 730.546875 266.992188 727.769531 275.761719 727.769531 275.761719 C 727.769531 275.761719 696.136719 367.082031 693.785156 373.925781 C 691.433594 380.984375 686.945312 385.472656 686.945312 385.472656 L 727.34375 385.472656 C 724.351562 385.472656 726.488281 377.988281 726.488281 377.988281 L 738.882812 342.914062 C 738.882812 342.914062 755.554688 378.417969 756.835938 380.769531 C 758.121094 383.335938 757.480469 385.261719 757.480469 385.261719 L 800.226562 385.261719 C 796.164062 385.261719 791.890625 377.347656 791.890625 377.347656 L 771.371094 338.636719 C 800.011719 339.066406 808.5625 310.191406 808.5625 310.191406 Z M 774.363281 305.058594 C 769.875 316.824219 755.339844 315.753906 755.339844 315.753906 L 747.859375 315.753906 L 755.769531 291.371094 L 766.457031 291.371094 C 766.457031 291.371094 779.492188 290.945312 774.363281 305.058594 Z M 458.460938 259.292969 C 420.632812 259.292969 396.050781 289.234375 389.640625 326.445312 C 383.867188 360.664062 402.25 388.039062 432.816406 388.039062 C 475.5625 388.039062 500.996094 344.199219 500.996094 312.757812 C 500.996094 279.824219 487.957031 259.292969 458.460938 259.292969 Z M 464.019531 327.515625 C 457.820312 353.179688 446.066406 361.09375 435.59375 359.167969 C 421.058594 356.386719 423.625 332.863281 425.976562 321.957031 C 431.105469 298.214844 443.714844 286.882812 453.121094 287.949219 C 456.113281 288.378906 473.210938 288.804688 464.019531 327.515625 Z M 511.042969 262.929688 C 511.042969 262.929688 514.035156 264.640625 514.035156 272.339844 L 514.035156 378.417969 C 514.035156 378.417969 513.605469 384.191406 511.46875 385.472656 L 543.101562 385.472656 C 543.101562 385.472656 543.101562 382.90625 546.308594 378.84375 C 549.515625 374.78125 615.34375 282.175781 615.34375 282.175781 C 615.34375 282.175781 630.304688 262.714844 634.367188 262.714844 L 588.839844 262.714844 C 588.839844 262.714844 592.476562 265.28125 589.695312 269.773438 C 586.917969 274.261719 546.523438 337.566406 546.523438 337.566406 L 547.164062 273.835938 C 547.164062 273.835938 547.164062 263.570312 551.011719 262.714844 L 511.042969 262.929688 M 702.976562 291.800781 L 713.234375 262.929688 L 636.289062 262.929688 C 636.289062 262.929688 639.070312 265.496094 635.4375 275.761719 C 631.800781 286.027344 600.597656 373.925781 600.597656 373.925781 C 600.597656 373.925781 595.039062 385.472656 593.542969 385.472656 L 672.839844 385.472656 L 682.242188 356.175781 C 682.242188 356.175781 680.960938 357.886719 673.480469 357.886719 L 639.925781 357.886719 L 646.976562 337.996094 L 673.265625 337.996094 C 673.265625 337.996094 678.824219 337.566406 679.894531 339.277344 L 690.578125 307.839844 C 690.578125 307.839844 689.726562 310.621094 682.671875 310.621094 L 657.449219 310.621094 L 664.929688 288.804688 L 696.992188 288.804688 C 696.992188 289.019531 701.265625 288.378906 702.976562 291.800781 M 420.203125 235.765625 C 420.203125 235.765625 417.425781 234.054688 416.785156 229.136719 L 412.082031 121.347656 C 412.082031 121.347656 411.867188 114.503906 415.074219 113.007812 L 377.457031 113.007812 C 377.457031 113.007812 380.023438 116.429688 375.105469 124.128906 C 369.976562 131.828125 305.855469 231.488281 305.855469 231.488281 C 305.855469 231.488281 304.574219 234.054688 301.367188 235.550781 L 339.410156 235.550781 C 339.410156 235.550781 339.199219 232.558594 340.265625 230.417969 C 341.976562 226.785156 346.679688 218.230469 346.679688 218.230469 L 384.9375 218.230469 L 384.9375 228.921875 C 384.9375 228.921875 385.152344 232.773438 382.371094 235.550781 L 420.203125 235.550781 Z M 363.136719 190.640625 L 384.296875 154.710938 L 384.511719 190.640625 Z M 363.136719 190.640625 "/>
</g>
</svg>
