<?xml version="1.0" encoding="UTF-8"?>
<svg xmlns="http://www.w3.org/2000/svg" xmlns:xlink="http://www.w3.org/1999/xlink" width="1000px" height="375px" viewBox="0 0 1000 375" version="1.1">
<defs>
<radialGradient id="radial0" gradientUnits="userSpaceOnUse" cx="-4308.92" cy="1124.903" fx="-4308.92" fy="1124.903" r="623.715" gradientTransform="matrix(3.452596,0,0,1.754509,15373.645013,-1354.993045)">
<stop offset="0" style="stop-color:rgb(0%,3.137255%,18.039216%);stop-opacity:1;"/>
<stop offset="0.155" style="stop-color:rgb(0%,3.921569%,18.823529%);stop-opacity:1;"/>
<stop offset="0.242" style="stop-color:rgb(0.392157%,5.882353%,22.352941%);stop-opacity:1;"/>
<stop offset="0.312" style="stop-color:rgb(0.392157%,9.803922%,27.45098%);stop-opacity:1;"/>
<stop offset="0.373" style="stop-color:rgb(0.784314%,15.294118%,35.294118%);stop-opacity:1;"/>
<stop offset="0.414" style="stop-color:rgb(1.176471%,20.392157%,42.352941%);stop-opacity:1;"/>
<stop offset="0.439" style="stop-color:rgb(4.313725%,30.980392%,52.941176%);stop-opacity:1;"/>
<stop offset="0.48" style="stop-color:rgb(8.627451%,46.27451%,68.627451%);stop-opacity:1;"/>
<stop offset="0.513" style="stop-color:rgb(10.980392%,55.686275%,78.039216%);stop-opacity:1;"/>
<stop offset="0.533" style="stop-color:rgb(12.156863%,59.215686%,81.568627%);stop-opacity:1;"/>
<stop offset="1" style="stop-color:rgb(12.156863%,59.215686%,81.568627%);stop-opacity:1;"/>
</radialGradient>
<linearGradient id="linear0" gradientUnits="userSpaceOnUse" x1="-5277.681" y1="387.685" x2="-5274.415" y2="387.685" gradientTransform="matrix(0,-116.623563,-116.561364,0,45688.175828,-615122.83637)">
<stop offset="0" style="stop-color:rgb(0%,3.137255%,18.039216%);stop-opacity:1;"/>
<stop offset="0.321" style="stop-color:rgb(0.392157%,3.921569%,18.823529%);stop-opacity:1;"/>
<stop offset="0.501" style="stop-color:rgb(1.176471%,5.882353%,22.352941%);stop-opacity:1;"/>
<stop offset="0.647" style="stop-color:rgb(2.745098%,9.411765%,27.45098%);stop-opacity:1;"/>
<stop offset="0.773" style="stop-color:rgb(5.098039%,14.117647%,35.294118%);stop-opacity:1;"/>
<stop offset="0.809" style="stop-color:rgb(5.882353%,16.078431%,38.039216%);stop-opacity:1;"/>
<stop offset="0.839" style="stop-color:rgb(4.313725%,21.960784%,43.137255%);stop-opacity:1;"/>
<stop offset="0.896" style="stop-color:rgb(1.960784%,30.588235%,51.372549%);stop-opacity:1;"/>
<stop offset="0.951" style="stop-color:rgb(0.392157%,35.686275%,56.470588%);stop-opacity:1;"/>
<stop offset="1" style="stop-color:rgb(0%,37.647059%,58.039216%);stop-opacity:1;"/>
</linearGradient>
<linearGradient id="linear1" gradientUnits="userSpaceOnUse" x1="-5277.683" y1="387.647" x2="-5274.414" y2="387.647" gradientTransform="matrix(0.000000000000007137,-116.623563,116.561364,0.000000000000007141,45689.949358,-615122.979798)">
<stop offset="0" style="stop-color:rgb(0%,3.137255%,18.039216%);stop-opacity:1;"/>
<stop offset="0.321" style="stop-color:rgb(0.392157%,3.921569%,18.823529%);stop-opacity:1;"/>
<stop offset="0.501" style="stop-color:rgb(1.176471%,5.882353%,22.352941%);stop-opacity:1;"/>
<stop offset="0.647" style="stop-color:rgb(2.745098%,9.411765%,27.45098%);stop-opacity:1;"/>
<stop offset="0.773" style="stop-color:rgb(5.098039%,14.117647%,35.294118%);stop-opacity:1;"/>
<stop offset="0.809" style="stop-color:rgb(5.882353%,16.078431%,38.039216%);stop-opacity:1;"/>
<stop offset="0.839" style="stop-color:rgb(4.313725%,21.960784%,43.137255%);stop-opacity:1;"/>
<stop offset="0.896" style="stop-color:rgb(1.960784%,30.588235%,51.372549%);stop-opacity:1;"/>
<stop offset="0.951" style="stop-color:rgb(0.392157%,35.686275%,56.470588%);stop-opacity:1;"/>
<stop offset="1" style="stop-color:rgb(0%,37.647059%,58.039216%);stop-opacity:1;"/>
</linearGradient>
<linearGradient id="linear2" gradientUnits="userSpaceOnUse" x1="-5286.4" y1="383.751" x2="-5283.136" y2="383.751" gradientTransform="matrix(0,-81.992128,-81.948399,0,32033.110726,-433128.640978)">
<stop offset="0" style="stop-color:rgb(0%,3.137255%,18.039216%);stop-opacity:1;"/>
<stop offset="0.321" style="stop-color:rgb(0.392157%,3.921569%,18.823529%);stop-opacity:1;"/>
<stop offset="0.501" style="stop-color:rgb(1.176471%,5.882353%,22.352941%);stop-opacity:1;"/>
<stop offset="0.647" style="stop-color:rgb(2.745098%,9.411765%,27.45098%);stop-opacity:1;"/>
<stop offset="0.773" style="stop-color:rgb(5.098039%,14.117647%,35.294118%);stop-opacity:1;"/>
<stop offset="0.809" style="stop-color:rgb(5.882353%,16.078431%,38.039216%);stop-opacity:1;"/>
<stop offset="0.839" style="stop-color:rgb(4.313725%,21.960784%,43.137255%);stop-opacity:1;"/>
<stop offset="0.896" style="stop-color:rgb(1.960784%,30.588235%,51.372549%);stop-opacity:1;"/>
<stop offset="0.951" style="stop-color:rgb(0.392157%,35.686275%,56.470588%);stop-opacity:1;"/>
<stop offset="1" style="stop-color:rgb(0%,37.647059%,58.039216%);stop-opacity:1;"/>
</linearGradient>
<linearGradient id="linear3" gradientUnits="userSpaceOnUse" x1="-5286.465" y1="382.766" x2="-5283.215" y2="382.766" gradientTransform="matrix(0,-81.805243,-81.761614,0,31993.802922,-432146.423275)">
<stop offset="0" style="stop-color:rgb(0%,3.137255%,18.039216%);stop-opacity:1;"/>
<stop offset="0.321" style="stop-color:rgb(0.392157%,3.921569%,18.823529%);stop-opacity:1;"/>
<stop offset="0.501" style="stop-color:rgb(1.176471%,5.882353%,22.352941%);stop-opacity:1;"/>
<stop offset="0.647" style="stop-color:rgb(2.745098%,9.411765%,27.45098%);stop-opacity:1;"/>
<stop offset="0.773" style="stop-color:rgb(5.098039%,14.117647%,35.294118%);stop-opacity:1;"/>
<stop offset="0.809" style="stop-color:rgb(5.882353%,16.078431%,38.039216%);stop-opacity:1;"/>
<stop offset="0.839" style="stop-color:rgb(4.313725%,21.960784%,43.137255%);stop-opacity:1;"/>
<stop offset="0.896" style="stop-color:rgb(1.960784%,30.588235%,51.372549%);stop-opacity:1;"/>
<stop offset="0.951" style="stop-color:rgb(0.392157%,35.686275%,56.470588%);stop-opacity:1;"/>
<stop offset="1" style="stop-color:rgb(0%,37.647059%,58.039216%);stop-opacity:1;"/>
</linearGradient>
<linearGradient id="linear4" gradientUnits="userSpaceOnUse" x1="-5286.456" y1="382.627" x2="-5283.222" y2="382.627" gradientTransform="matrix(0,-81.804552,-81.760923,0,31998.543336,-432142.803023)">
<stop offset="0" style="stop-color:rgb(0%,3.137255%,18.039216%);stop-opacity:1;"/>
<stop offset="0.321" style="stop-color:rgb(0.392157%,3.921569%,18.823529%);stop-opacity:1;"/>
<stop offset="0.501" style="stop-color:rgb(1.176471%,5.882353%,22.352941%);stop-opacity:1;"/>
<stop offset="0.647" style="stop-color:rgb(2.745098%,9.411765%,27.45098%);stop-opacity:1;"/>
<stop offset="0.773" style="stop-color:rgb(5.098039%,14.117647%,35.294118%);stop-opacity:1;"/>
<stop offset="0.809" style="stop-color:rgb(5.882353%,16.078431%,38.039216%);stop-opacity:1;"/>
<stop offset="0.839" style="stop-color:rgb(4.313725%,21.960784%,43.137255%);stop-opacity:1;"/>
<stop offset="0.896" style="stop-color:rgb(1.960784%,30.588235%,51.372549%);stop-opacity:1;"/>
<stop offset="0.951" style="stop-color:rgb(0.392157%,35.686275%,56.470588%);stop-opacity:1;"/>
<stop offset="1" style="stop-color:rgb(0%,37.647059%,58.039216%);stop-opacity:1;"/>
</linearGradient>
<linearGradient id="linear5" gradientUnits="userSpaceOnUse" x1="-5286.457" y1="383.887" x2="-5283.18" y2="383.887" gradientTransform="matrix(0,-81.85706,-81.813403,0,31974.223251,-432418.702098)">
<stop offset="0" style="stop-color:rgb(0%,3.137255%,18.039216%);stop-opacity:1;"/>
<stop offset="0.321" style="stop-color:rgb(0.392157%,3.921569%,18.823529%);stop-opacity:1;"/>
<stop offset="0.501" style="stop-color:rgb(1.176471%,5.882353%,22.352941%);stop-opacity:1;"/>
<stop offset="0.647" style="stop-color:rgb(2.745098%,9.411765%,27.45098%);stop-opacity:1;"/>
<stop offset="0.773" style="stop-color:rgb(5.098039%,14.117647%,35.294118%);stop-opacity:1;"/>
<stop offset="0.809" style="stop-color:rgb(5.882353%,16.078431%,38.039216%);stop-opacity:1;"/>
<stop offset="0.839" style="stop-color:rgb(4.313725%,21.960784%,43.137255%);stop-opacity:1;"/>
<stop offset="0.896" style="stop-color:rgb(1.960784%,30.588235%,51.372549%);stop-opacity:1;"/>
<stop offset="0.951" style="stop-color:rgb(0.392157%,35.686275%,56.470588%);stop-opacity:1;"/>
<stop offset="1" style="stop-color:rgb(0%,37.647059%,58.039216%);stop-opacity:1;"/>
</linearGradient>
<linearGradient id="linear6" gradientUnits="userSpaceOnUse" x1="-5286.429" y1="382.995" x2="-5283.167" y2="382.995" gradientTransform="matrix(0,-81.913022,-81.869335,0,32028.725929,-432712.868243)">
<stop offset="0" style="stop-color:rgb(0%,3.137255%,18.039216%);stop-opacity:1;"/>
<stop offset="0.321" style="stop-color:rgb(0.392157%,3.921569%,18.823529%);stop-opacity:1;"/>
<stop offset="0.501" style="stop-color:rgb(1.176471%,5.882353%,22.352941%);stop-opacity:1;"/>
<stop offset="0.647" style="stop-color:rgb(2.745098%,9.411765%,27.45098%);stop-opacity:1;"/>
<stop offset="0.773" style="stop-color:rgb(5.098039%,14.117647%,35.294118%);stop-opacity:1;"/>
<stop offset="0.809" style="stop-color:rgb(5.882353%,16.078431%,38.039216%);stop-opacity:1;"/>
<stop offset="0.839" style="stop-color:rgb(4.313725%,21.960784%,43.137255%);stop-opacity:1;"/>
<stop offset="0.896" style="stop-color:rgb(1.960784%,30.588235%,51.372549%);stop-opacity:1;"/>
<stop offset="0.951" style="stop-color:rgb(0.392157%,35.686275%,56.470588%);stop-opacity:1;"/>
<stop offset="1" style="stop-color:rgb(0%,37.647059%,58.039216%);stop-opacity:1;"/>
</linearGradient>
<linearGradient id="linear7" gradientUnits="userSpaceOnUse" x1="-5286.497" y1="384.929" x2="-5283.231" y2="384.929" gradientTransform="matrix(0,-81.726828,-81.68324,0,31884.455757,-431734.315699)">
<stop offset="0" style="stop-color:rgb(0%,3.137255%,18.039216%);stop-opacity:1;"/>
<stop offset="0.321" style="stop-color:rgb(0.392157%,3.921569%,18.823529%);stop-opacity:1;"/>
<stop offset="0.501" style="stop-color:rgb(1.176471%,5.882353%,22.352941%);stop-opacity:1;"/>
<stop offset="0.647" style="stop-color:rgb(2.745098%,9.411765%,27.45098%);stop-opacity:1;"/>
<stop offset="0.773" style="stop-color:rgb(5.098039%,14.117647%,35.294118%);stop-opacity:1;"/>
<stop offset="0.809" style="stop-color:rgb(5.882353%,16.078431%,38.039216%);stop-opacity:1;"/>
<stop offset="0.839" style="stop-color:rgb(4.313725%,21.960784%,43.137255%);stop-opacity:1;"/>
<stop offset="0.896" style="stop-color:rgb(1.960784%,30.588235%,51.372549%);stop-opacity:1;"/>
<stop offset="0.951" style="stop-color:rgb(0.392157%,35.686275%,56.470588%);stop-opacity:1;"/>
<stop offset="1" style="stop-color:rgb(0%,37.647059%,58.039216%);stop-opacity:1;"/>
</linearGradient>
<linearGradient id="linear8" gradientUnits="userSpaceOnUse" x1="-5286.463" y1="383.964" x2="-5283.195" y2="383.964" gradientTransform="matrix(0,-81.823897,-81.780258,0,31958.154869,-432244.494777)">
<stop offset="0" style="stop-color:rgb(0%,3.137255%,18.039216%);stop-opacity:1;"/>
<stop offset="0.321" style="stop-color:rgb(0.392157%,3.921569%,18.823529%);stop-opacity:1;"/>
<stop offset="0.501" style="stop-color:rgb(1.176471%,5.882353%,22.352941%);stop-opacity:1;"/>
<stop offset="0.647" style="stop-color:rgb(2.745098%,9.411765%,27.45098%);stop-opacity:1;"/>
<stop offset="0.773" style="stop-color:rgb(5.098039%,14.117647%,35.294118%);stop-opacity:1;"/>
<stop offset="0.809" style="stop-color:rgb(5.882353%,16.078431%,38.039216%);stop-opacity:1;"/>
<stop offset="0.839" style="stop-color:rgb(4.313725%,21.960784%,43.137255%);stop-opacity:1;"/>
<stop offset="0.896" style="stop-color:rgb(1.960784%,30.588235%,51.372549%);stop-opacity:1;"/>
<stop offset="0.951" style="stop-color:rgb(0.392157%,35.686275%,56.470588%);stop-opacity:1;"/>
<stop offset="1" style="stop-color:rgb(0%,37.647059%,58.039216%);stop-opacity:1;"/>
</linearGradient>
<linearGradient id="linear9" gradientUnits="userSpaceOnUse" x1="-5286.21" y1="382.868" x2="-5282.945" y2="382.868" gradientTransform="matrix(0,-82.517203,-82.473194,0,32275.165319,-435888.118805)">
<stop offset="0" style="stop-color:rgb(0%,3.137255%,18.039216%);stop-opacity:1;"/>
<stop offset="0.321" style="stop-color:rgb(0.392157%,3.921569%,18.823529%);stop-opacity:1;"/>
<stop offset="0.501" style="stop-color:rgb(1.176471%,5.882353%,22.352941%);stop-opacity:1;"/>
<stop offset="0.647" style="stop-color:rgb(2.745098%,9.411765%,27.45098%);stop-opacity:1;"/>
<stop offset="0.773" style="stop-color:rgb(5.098039%,14.117647%,35.294118%);stop-opacity:1;"/>
<stop offset="0.809" style="stop-color:rgb(5.882353%,16.078431%,38.039216%);stop-opacity:1;"/>
<stop offset="0.839" style="stop-color:rgb(4.313725%,21.960784%,43.137255%);stop-opacity:1;"/>
<stop offset="0.896" style="stop-color:rgb(1.960784%,30.588235%,51.372549%);stop-opacity:1;"/>
<stop offset="0.951" style="stop-color:rgb(0.392157%,35.686275%,56.470588%);stop-opacity:1;"/>
<stop offset="1" style="stop-color:rgb(0%,37.647059%,58.039216%);stop-opacity:1;"/>
</linearGradient>
<linearGradient id="linear10" gradientUnits="userSpaceOnUse" x1="-5286.288" y1="383.603" x2="-5283.023" y2="383.603" gradientTransform="matrix(0,-82.309937,-82.266038,0,32165.552305,-434798.644248)">
<stop offset="0" style="stop-color:rgb(0%,3.137255%,18.039216%);stop-opacity:1;"/>
<stop offset="0.321" style="stop-color:rgb(0.392157%,3.921569%,18.823529%);stop-opacity:1;"/>
<stop offset="0.501" style="stop-color:rgb(1.176471%,5.882353%,22.352941%);stop-opacity:1;"/>
<stop offset="0.647" style="stop-color:rgb(2.745098%,9.411765%,27.45098%);stop-opacity:1;"/>
<stop offset="0.773" style="stop-color:rgb(5.098039%,14.117647%,35.294118%);stop-opacity:1;"/>
<stop offset="0.809" style="stop-color:rgb(5.882353%,16.078431%,38.039216%);stop-opacity:1;"/>
<stop offset="0.839" style="stop-color:rgb(4.313725%,21.960784%,43.137255%);stop-opacity:1;"/>
<stop offset="0.896" style="stop-color:rgb(1.960784%,30.588235%,51.372549%);stop-opacity:1;"/>
<stop offset="0.951" style="stop-color:rgb(0.392157%,35.686275%,56.470588%);stop-opacity:1;"/>
<stop offset="1" style="stop-color:rgb(0%,37.647059%,58.039216%);stop-opacity:1;"/>
</linearGradient>
<linearGradient id="linear11" gradientUnits="userSpaceOnUse" x1="-5286.492" y1="382.286" x2="-5283.226" y2="382.286" gradientTransform="matrix(0,-81.7479,-81.704301,0,31988.05435,-431845.023536)">
<stop offset="0" style="stop-color:rgb(0%,3.137255%,18.039216%);stop-opacity:1;"/>
<stop offset="0.321" style="stop-color:rgb(0.392157%,3.921569%,18.823529%);stop-opacity:1;"/>
<stop offset="0.501" style="stop-color:rgb(1.176471%,5.882353%,22.352941%);stop-opacity:1;"/>
<stop offset="0.647" style="stop-color:rgb(2.745098%,9.411765%,27.45098%);stop-opacity:1;"/>
<stop offset="0.773" style="stop-color:rgb(5.098039%,14.117647%,35.294118%);stop-opacity:1;"/>
<stop offset="0.809" style="stop-color:rgb(5.882353%,16.078431%,38.039216%);stop-opacity:1;"/>
<stop offset="0.839" style="stop-color:rgb(4.313725%,21.960784%,43.137255%);stop-opacity:1;"/>
<stop offset="0.896" style="stop-color:rgb(1.960784%,30.588235%,51.372549%);stop-opacity:1;"/>
<stop offset="0.951" style="stop-color:rgb(0.392157%,35.686275%,56.470588%);stop-opacity:1;"/>
<stop offset="1" style="stop-color:rgb(0%,37.647059%,58.039216%);stop-opacity:1;"/>
</linearGradient>
<linearGradient id="linear12" gradientUnits="userSpaceOnUse" x1="-5286.46" y1="384.488" x2="-5283.189" y2="384.488" gradientTransform="matrix(0,-81.839442,-81.795795,0,31945.456222,-432326.188787)">
<stop offset="0" style="stop-color:rgb(0%,3.137255%,18.039216%);stop-opacity:1;"/>
<stop offset="0.321" style="stop-color:rgb(0.392157%,3.921569%,18.823529%);stop-opacity:1;"/>
<stop offset="0.501" style="stop-color:rgb(1.176471%,5.882353%,22.352941%);stop-opacity:1;"/>
<stop offset="0.647" style="stop-color:rgb(2.745098%,9.411765%,27.45098%);stop-opacity:1;"/>
<stop offset="0.773" style="stop-color:rgb(5.098039%,14.117647%,35.294118%);stop-opacity:1;"/>
<stop offset="0.809" style="stop-color:rgb(5.882353%,16.078431%,38.039216%);stop-opacity:1;"/>
<stop offset="0.839" style="stop-color:rgb(4.313725%,21.960784%,43.137255%);stop-opacity:1;"/>
<stop offset="0.896" style="stop-color:rgb(1.960784%,30.588235%,51.372549%);stop-opacity:1;"/>
<stop offset="0.951" style="stop-color:rgb(0.392157%,35.686275%,56.470588%);stop-opacity:1;"/>
<stop offset="1" style="stop-color:rgb(0%,37.647059%,58.039216%);stop-opacity:1;"/>
</linearGradient>
<linearGradient id="linear13" gradientUnits="userSpaceOnUse" x1="-5286.469" y1="384.837" x2="-5283.205" y2="384.837" gradientTransform="matrix(0,-81.809043,-81.765412,0,31920.645868,-432166.421018)">
<stop offset="0" style="stop-color:rgb(0%,3.137255%,18.039216%);stop-opacity:1;"/>
<stop offset="0.321" style="stop-color:rgb(0.392157%,3.921569%,18.823529%);stop-opacity:1;"/>
<stop offset="0.501" style="stop-color:rgb(1.176471%,5.882353%,22.352941%);stop-opacity:1;"/>
<stop offset="0.647" style="stop-color:rgb(2.745098%,9.411765%,27.45098%);stop-opacity:1;"/>
<stop offset="0.773" style="stop-color:rgb(5.098039%,14.117647%,35.294118%);stop-opacity:1;"/>
<stop offset="0.809" style="stop-color:rgb(5.882353%,16.078431%,38.039216%);stop-opacity:1;"/>
<stop offset="0.839" style="stop-color:rgb(4.313725%,21.960784%,43.137255%);stop-opacity:1;"/>
<stop offset="0.896" style="stop-color:rgb(1.960784%,30.588235%,51.372549%);stop-opacity:1;"/>
<stop offset="0.951" style="stop-color:rgb(0.392157%,35.686275%,56.470588%);stop-opacity:1;"/>
<stop offset="1" style="stop-color:rgb(0%,37.647059%,58.039216%);stop-opacity:1;"/>
</linearGradient>
<linearGradient id="linear14" gradientUnits="userSpaceOnUse" x1="-5286.495" y1="386.54" x2="-5283.226" y2="386.54" gradientTransform="matrix(0,-81.741336,-81.697741,0,31832.221434,-431810.53097)">
<stop offset="0" style="stop-color:rgb(0%,3.137255%,18.039216%);stop-opacity:1;"/>
<stop offset="0.321" style="stop-color:rgb(0.392157%,3.921569%,18.823529%);stop-opacity:1;"/>
<stop offset="0.501" style="stop-color:rgb(1.176471%,5.882353%,22.352941%);stop-opacity:1;"/>
<stop offset="0.647" style="stop-color:rgb(2.745098%,9.411765%,27.45098%);stop-opacity:1;"/>
<stop offset="0.773" style="stop-color:rgb(5.098039%,14.117647%,35.294118%);stop-opacity:1;"/>
<stop offset="0.809" style="stop-color:rgb(5.882353%,16.078431%,38.039216%);stop-opacity:1;"/>
<stop offset="0.839" style="stop-color:rgb(4.313725%,21.960784%,43.137255%);stop-opacity:1;"/>
<stop offset="0.896" style="stop-color:rgb(1.960784%,30.588235%,51.372549%);stop-opacity:1;"/>
<stop offset="0.951" style="stop-color:rgb(0.392157%,35.686275%,56.470588%);stop-opacity:1;"/>
<stop offset="1" style="stop-color:rgb(0%,37.647059%,58.039216%);stop-opacity:1;"/>
</linearGradient>
<linearGradient id="linear15" gradientUnits="userSpaceOnUse" x1="-5286.219" y1="385.616" x2="-5282.95" y2="385.616" gradientTransform="matrix(0,-82.515476,-82.471468,0,32174.653348,-435878.726187)">
<stop offset="0" style="stop-color:rgb(0%,3.137255%,18.039216%);stop-opacity:1;"/>
<stop offset="0.321" style="stop-color:rgb(0.392157%,3.921569%,18.823529%);stop-opacity:1;"/>
<stop offset="0.501" style="stop-color:rgb(1.176471%,5.882353%,22.352941%);stop-opacity:1;"/>
<stop offset="0.647" style="stop-color:rgb(2.745098%,9.411765%,27.45098%);stop-opacity:1;"/>
<stop offset="0.773" style="stop-color:rgb(5.098039%,14.117647%,35.294118%);stop-opacity:1;"/>
<stop offset="0.809" style="stop-color:rgb(5.882353%,16.078431%,38.039216%);stop-opacity:1;"/>
<stop offset="0.839" style="stop-color:rgb(4.313725%,21.960784%,43.137255%);stop-opacity:1;"/>
<stop offset="0.896" style="stop-color:rgb(1.960784%,30.588235%,51.372549%);stop-opacity:1;"/>
<stop offset="0.951" style="stop-color:rgb(0.392157%,35.686275%,56.470588%);stop-opacity:1;"/>
<stop offset="1" style="stop-color:rgb(0%,37.647059%,58.039216%);stop-opacity:1;"/>
</linearGradient>
<linearGradient id="linear16" gradientUnits="userSpaceOnUse" x1="-5286.477" y1="385.825" x2="-5283.209" y2="385.825" gradientTransform="matrix(0,-81.786244,-81.742625,0,31875.838078,-432046.514011)">
<stop offset="0" style="stop-color:rgb(0%,3.137255%,18.039216%);stop-opacity:1;"/>
<stop offset="0.321" style="stop-color:rgb(0.392157%,3.921569%,18.823529%);stop-opacity:1;"/>
<stop offset="0.501" style="stop-color:rgb(1.176471%,5.882353%,22.352941%);stop-opacity:1;"/>
<stop offset="0.647" style="stop-color:rgb(2.745098%,9.411765%,27.45098%);stop-opacity:1;"/>
<stop offset="0.773" style="stop-color:rgb(5.098039%,14.117647%,35.294118%);stop-opacity:1;"/>
<stop offset="0.809" style="stop-color:rgb(5.882353%,16.078431%,38.039216%);stop-opacity:1;"/>
<stop offset="0.839" style="stop-color:rgb(4.313725%,21.960784%,43.137255%);stop-opacity:1;"/>
<stop offset="0.896" style="stop-color:rgb(1.960784%,30.588235%,51.372549%);stop-opacity:1;"/>
<stop offset="0.951" style="stop-color:rgb(0.392157%,35.686275%,56.470588%);stop-opacity:1;"/>
<stop offset="1" style="stop-color:rgb(0%,37.647059%,58.039216%);stop-opacity:1;"/>
</linearGradient>
<linearGradient id="linear17" gradientUnits="userSpaceOnUse" x1="-5286.366" y1="385.807" x2="-5283.099" y2="385.807" gradientTransform="matrix(0,-82.096453,-82.052668,0,32000.373212,-433676.684154)">
<stop offset="0" style="stop-color:rgb(0%,3.137255%,18.039216%);stop-opacity:1;"/>
<stop offset="0.321" style="stop-color:rgb(0.392157%,3.921569%,18.823529%);stop-opacity:1;"/>
<stop offset="0.501" style="stop-color:rgb(1.176471%,5.882353%,22.352941%);stop-opacity:1;"/>
<stop offset="0.647" style="stop-color:rgb(2.745098%,9.411765%,27.45098%);stop-opacity:1;"/>
<stop offset="0.773" style="stop-color:rgb(5.098039%,14.117647%,35.294118%);stop-opacity:1;"/>
<stop offset="0.809" style="stop-color:rgb(5.882353%,16.078431%,38.039216%);stop-opacity:1;"/>
<stop offset="0.839" style="stop-color:rgb(4.313725%,21.960784%,43.137255%);stop-opacity:1;"/>
<stop offset="0.896" style="stop-color:rgb(1.960784%,30.588235%,51.372549%);stop-opacity:1;"/>
<stop offset="0.951" style="stop-color:rgb(0.392157%,35.686275%,56.470588%);stop-opacity:1;"/>
<stop offset="1" style="stop-color:rgb(0%,37.647059%,58.039216%);stop-opacity:1;"/>
</linearGradient>
<linearGradient id="linear18" gradientUnits="userSpaceOnUse" x1="-5286.496" y1="384.222" x2="-5283.224" y2="384.222" gradientTransform="matrix(0,-81.743063,-81.699467,0,31916.323218,-431819.626506)">
<stop offset="0" style="stop-color:rgb(0%,3.137255%,18.039216%);stop-opacity:1;"/>
<stop offset="0.321" style="stop-color:rgb(0.392157%,3.921569%,18.823529%);stop-opacity:1;"/>
<stop offset="0.501" style="stop-color:rgb(1.176471%,5.882353%,22.352941%);stop-opacity:1;"/>
<stop offset="0.647" style="stop-color:rgb(2.745098%,9.411765%,27.45098%);stop-opacity:1;"/>
<stop offset="0.773" style="stop-color:rgb(5.098039%,14.117647%,35.294118%);stop-opacity:1;"/>
<stop offset="0.809" style="stop-color:rgb(5.882353%,16.078431%,38.039216%);stop-opacity:1;"/>
<stop offset="0.839" style="stop-color:rgb(4.313725%,21.960784%,43.137255%);stop-opacity:1;"/>
<stop offset="0.896" style="stop-color:rgb(1.960784%,30.588235%,51.372549%);stop-opacity:1;"/>
<stop offset="0.951" style="stop-color:rgb(0.392157%,35.686275%,56.470588%);stop-opacity:1;"/>
<stop offset="1" style="stop-color:rgb(0%,37.647059%,58.039216%);stop-opacity:1;"/>
</linearGradient>
<linearGradient id="linear19" gradientUnits="userSpaceOnUse" x1="-5286.426" y1="384.837" x2="-5283.16" y2="384.837" gradientTransform="matrix(0,-81.927876,-81.884181,0,31968.212281,-432790.834915)">
<stop offset="0" style="stop-color:rgb(0%,3.137255%,18.039216%);stop-opacity:1;"/>
<stop offset="0.321" style="stop-color:rgb(0.392157%,3.921569%,18.823529%);stop-opacity:1;"/>
<stop offset="0.501" style="stop-color:rgb(1.176471%,5.882353%,22.352941%);stop-opacity:1;"/>
<stop offset="0.647" style="stop-color:rgb(2.745098%,9.411765%,27.45098%);stop-opacity:1;"/>
<stop offset="0.773" style="stop-color:rgb(5.098039%,14.117647%,35.294118%);stop-opacity:1;"/>
<stop offset="0.809" style="stop-color:rgb(5.882353%,16.078431%,38.039216%);stop-opacity:1;"/>
<stop offset="0.839" style="stop-color:rgb(4.313725%,21.960784%,43.137255%);stop-opacity:1;"/>
<stop offset="0.896" style="stop-color:rgb(1.960784%,30.588235%,51.372549%);stop-opacity:1;"/>
<stop offset="0.951" style="stop-color:rgb(0.392157%,35.686275%,56.470588%);stop-opacity:1;"/>
<stop offset="1" style="stop-color:rgb(0%,37.647059%,58.039216%);stop-opacity:1;"/>
</linearGradient>
<linearGradient id="linear20" gradientUnits="userSpaceOnUse" x1="-5286.49" y1="384.738" x2="-5283.222" y2="384.738" gradientTransform="matrix(0,-81.752736,-81.709134,0,31901.54956,-431870.420566)">
<stop offset="0" style="stop-color:rgb(0%,3.137255%,18.039216%);stop-opacity:1;"/>
<stop offset="0.321" style="stop-color:rgb(0.392157%,3.921569%,18.823529%);stop-opacity:1;"/>
<stop offset="0.501" style="stop-color:rgb(1.176471%,5.882353%,22.352941%);stop-opacity:1;"/>
<stop offset="0.647" style="stop-color:rgb(2.745098%,9.411765%,27.45098%);stop-opacity:1;"/>
<stop offset="0.773" style="stop-color:rgb(5.098039%,14.117647%,35.294118%);stop-opacity:1;"/>
<stop offset="0.809" style="stop-color:rgb(5.882353%,16.078431%,38.039216%);stop-opacity:1;"/>
<stop offset="0.839" style="stop-color:rgb(4.313725%,21.960784%,43.137255%);stop-opacity:1;"/>
<stop offset="0.896" style="stop-color:rgb(1.960784%,30.588235%,51.372549%);stop-opacity:1;"/>
<stop offset="0.951" style="stop-color:rgb(0.392157%,35.686275%,56.470588%);stop-opacity:1;"/>
<stop offset="1" style="stop-color:rgb(0%,37.647059%,58.039216%);stop-opacity:1;"/>
</linearGradient>
<linearGradient id="linear21" gradientUnits="userSpaceOnUse" x1="-5286.489" y1="385.976" x2="-5283.214" y2="385.976" gradientTransform="matrix(0,-81.771735,-81.728124,0,31864.258071,-431970.246923)">
<stop offset="0" style="stop-color:rgb(0%,3.137255%,18.039216%);stop-opacity:1;"/>
<stop offset="0.321" style="stop-color:rgb(0.392157%,3.921569%,18.823529%);stop-opacity:1;"/>
<stop offset="0.501" style="stop-color:rgb(1.176471%,5.882353%,22.352941%);stop-opacity:1;"/>
<stop offset="0.647" style="stop-color:rgb(2.745098%,9.411765%,27.45098%);stop-opacity:1;"/>
<stop offset="0.773" style="stop-color:rgb(5.098039%,14.117647%,35.294118%);stop-opacity:1;"/>
<stop offset="0.809" style="stop-color:rgb(5.882353%,16.078431%,38.039216%);stop-opacity:1;"/>
<stop offset="0.839" style="stop-color:rgb(4.313725%,21.960784%,43.137255%);stop-opacity:1;"/>
<stop offset="0.896" style="stop-color:rgb(1.960784%,30.588235%,51.372549%);stop-opacity:1;"/>
<stop offset="0.951" style="stop-color:rgb(0.392157%,35.686275%,56.470588%);stop-opacity:1;"/>
<stop offset="1" style="stop-color:rgb(0%,37.647059%,58.039216%);stop-opacity:1;"/>
</linearGradient>
<linearGradient id="linear22" gradientUnits="userSpaceOnUse" x1="-5275.769" y1="394.509" x2="-5272.503" y2="394.509" gradientTransform="matrix(-35.365375,-132.055806,-131.985376,35.384247,-134119.627319,-710190.589157)">
<stop offset="0" style="stop-color:rgb(64.705882%,64.705882%,65.098039%);stop-opacity:1;"/>
<stop offset="0.35" style="stop-color:rgb(84.313725%,84.313725%,84.313725%);stop-opacity:1;"/>
<stop offset="0.65" style="stop-color:rgb(84.313725%,84.313725%,84.313725%);stop-opacity:1;"/>
<stop offset="1" style="stop-color:rgb(64.705882%,64.705882%,65.098039%);stop-opacity:1;"/>
</linearGradient>
<linearGradient id="linear23" gradientUnits="userSpaceOnUse" x1="-4251.91" y1="546.245" x2="-4285.291" y2="421.667" gradientTransform="matrix(3.452596,0,0,3.454438,15373.645013,-1660.690105)">
<stop offset="0" style="stop-color:rgb(64.705882%,64.705882%,65.098039%);stop-opacity:1;"/>
<stop offset="0.35" style="stop-color:rgb(84.313725%,84.313725%,84.313725%);stop-opacity:1;"/>
<stop offset="0.65" style="stop-color:rgb(84.313725%,84.313725%,84.313725%);stop-opacity:1;"/>
<stop offset="1" style="stop-color:rgb(64.705882%,64.705882%,65.098039%);stop-opacity:1;"/>
</linearGradient>
</defs>
<g id="surface1">
<path style=" stroke:none;fill-rule:nonzero;fill:rgb(78.823529%,78.823529%,79.215686%);fill-opacity:1;" d="M 499.980469 0 C 222.582031 0 0.226562 83.191406 0.226562 187.488281 C 0.226562 291.175781 224.421875 375 499.984375 375 C 775.5625 375 999.773438 290.882812 999.773438 187.488281 C 999.765625 84.117188 775.5625 0 499.980469 0 M 996.714844 173.011719 C 996.894531 173.925781 997.019531 174.851562 997.175781 175.742188 C 997.046875 174.855469 996.863281 173.9375 996.714844 173.011719 "/>
<path style=" stroke:none;fill-rule:nonzero;fill:url(#radial0);" d="M 499.996094 7.484375 C 228.117188 7.484375 7.882812 87.890625 7.882812 187.394531 C 7.882812 286.847656 228.117188 367.304688 499.996094 367.304688 C 771.910156 367.304688 992.089844 286.847656 992.089844 187.394531 C 992.089844 87.898438 771.90625 7.484375 499.996094 7.484375 "/>
<path style=" stroke:none;fill-rule:nonzero;fill:url(#linear0);" d="M 502.234375 45.210938 C 733.382812 45.210938 924.242188 101.710938 953.398438 174.84375 L 953.398438 174.828125 C 933.921875 97.894531 738.375 37.457031 499.957031 37.457031 C 248.652344 37.457031 44.945312 104.59375 44.945312 187.449219 C 44.945312 194.203125 46.308594 200.835938 48.910156 207.351562 C 47.78125 203.101562 47.207031 198.722656 47.203125 194.324219 C 47.210938 111.984375 250.921875 45.210938 502.234375 45.210938 Z M 502.234375 45.210938 "/>
<path style=" stroke:none;fill-rule:nonzero;fill:url(#linear1);" d="M 968.5 168.683594 C 970.492188 174.742188 971.507812 181.074219 971.515625 187.453125 C 971.515625 278.160156 760.398438 351.679688 499.953125 351.679688 C 268.175781 351.679688 75.480469 293.433594 35.832031 216.742188 C 65.914062 296.453125 262.964844 358.03125 501.832031 358.292969 L 504.71875 358.292969 C 764.484375 358.039062 974.847656 285.261719 974.847656 195.460938 C 974.851562 186.351562 972.679688 177.382812 968.5 168.683594 Z M 968.5 168.683594 "/>
<path style=" stroke:none;fill-rule:nonzero;fill:url(#linear2);" d="M 590.699219 212.726562 C 589.660156 210.089844 589.46875 207.125 590.0625 204.179688 C 590.273438 203.132812 588.925781 202.191406 587.820312 203.328125 C 577.257812 214.34375 576.472656 228.59375 583.390625 234.992188 C 585.859375 237.292969 588.703125 238.324219 591.730469 238.519531 C 587.226562 232.796875 585.097656 221.582031 590.699219 212.726562 Z M 590.699219 212.726562 "/>
<path style=" stroke:none;fill-rule:nonzero;fill:url(#linear3);" d="M 697.6875 233.9375 L 697.703125 233.9375 C 698.242188 232.894531 698.78125 231.792969 699.355469 230.613281 C 699.792969 229.703125 699.578125 229.445312 699.199219 229.296875 C 698.117188 228.90625 696.996094 228.074219 696.839844 227.210938 C 696.765625 227.058594 696.761719 226.910156 696.746094 226.730469 L 696.761719 226.824219 C 696.898438 228.488281 697.335938 231.617188 697.6875 233.9375 Z M 697.6875 233.9375 "/>
<path style=" stroke:none;fill-rule:nonzero;fill:url(#linear4);" d="M 709.683594 190.796875 C 713.207031 194.175781 715.359375 198.277344 715.757812 202.050781 C 715.914062 203.835938 717.273438 204.03125 718.386719 202.476562 C 718.675781 202.050781 719.007812 201.523438 719.398438 200.925781 C 719.09375 200.496094 718.761719 200.082031 718.449219 199.671875 C 715.71875 196.53125 712.792969 193.566406 709.683594 190.796875 Z M 709.683594 190.796875 "/>
<path style=" stroke:none;fill-rule:nonzero;fill:url(#linear5);" d="M 563.398438 183.855469 C 566.230469 187.726562 567.554688 193.257812 567.355469 200.335938 C 567.308594 202.171875 568.644531 202.050781 569.515625 200.800781 C 570.011719 200.105469 570.449219 199.492188 570.910156 198.859375 L 570.910156 198.804688 C 568.84375 192.457031 565.675781 186.226562 563.398438 183.855469 Z M 563.398438 183.855469 "/>
<path style=" stroke:none;fill-rule:nonzero;fill:url(#linear6);" d="M 694.902344 202.578125 C 686.195312 198.394531 672.910156 206.066406 660.886719 220.871094 C 651.035156 232.972656 645.722656 245.28125 645.539062 257.28125 C 645.464844 261.558594 647.085938 266.84375 650.847656 268.773438 C 652.015625 269.421875 653.289062 269.863281 654.609375 270.074219 C 654.1875 268.5 653.96875 266.882812 653.953125 265.253906 C 653.804688 252.867188 657.652344 240.5 667.53125 228.378906 C 679.464844 213.648438 692.023438 206.308594 700.742188 210.363281 C 700.292969 207.125 698.605469 204.328125 694.902344 202.578125 Z M 694.902344 202.578125 "/>
<path style=" stroke:none;fill-rule:nonzero;fill:url(#linear7);" d="M 434.457031 227.113281 C 443.632812 214.664062 453.96875 209.953125 465.757812 204.859375 C 467.3125 204.179688 467.496094 203.300781 467.199219 201.925781 C 466.695312 199.578125 465.058594 193.746094 464.558594 192.34375 C 464.933594 193.625 464.601562 194.605469 463.066406 195.175781 C 449.691406 200.257812 436.28125 208.148438 427.003906 220.578125 C 416.480469 234.6875 413.660156 251.65625 420.691406 261.433594 C 422.363281 263.71875 424.359375 265.414062 426.5625 266.519531 C 422.777344 254.84375 425.542969 239.1875 434.457031 227.113281 Z M 434.457031 227.113281 "/>
<path style=" stroke:none;fill-rule:nonzero;fill:url(#linear8);" d="M 501.789062 300.953125 C 510.832031 300.953125 521.945312 300.953125 529.464844 300.910156 C 530.582031 300.847656 531.378906 300.214844 531.96875 299.378906 C 543.207031 281.761719 555.203125 262.648438 566.6875 245.015625 C 569.203125 253.910156 570.5 258.050781 575.183594 262.238281 C 579.953125 266.5 584.359375 267.617188 590.847656 267.675781 C 596.742188 267.746094 602.550781 265.390625 609.460938 262.519531 C 611.792969 261.523438 614.03125 260.324219 616.148438 258.929688 C 616.148438 255.664062 616.480469 252.378906 617.058594 249.242188 C 617.109375 248.902344 616.777344 246.730469 614.921875 248.019531 C 611.078125 250.816406 606.871094 253.078125 602.421875 254.742188 C 596.054688 257.121094 593.089844 258.011719 587.195312 257.957031 C 579.78125 257.898438 573.101562 254.742188 568.40625 247.40625 C 565.777344 243.445312 564.691406 237.402344 564.441406 232.96875 C 564.40625 232.480469 563.773438 231.617188 563.074219 232.734375 C 550.613281 251.789062 538.980469 270.203125 526.613281 289.550781 C 525.96875 290.464844 525.40625 291.058594 524.125 291.097656 C 516.484375 291.097656 508.117188 291.078125 499.703125 291.125 C 498.824219 291.125 498.191406 290.722656 498.007812 290.105469 C 498.667969 293.0625 499.746094 298.410156 500.03125 299.664062 C 500.21875 300.507812 500.847656 300.953125 501.789062 300.953125 Z M 501.789062 300.953125 "/>
<path style=" stroke:none;fill-rule:nonzero;fill:url(#linear9);" d="M 622.769531 290.414062 C 624.855469 294.421875 629.535156 298.917969 632.371094 300.332031 C 648.578125 308.324219 671.71875 299.265625 686.582031 284.96875 C 686.730469 284.773438 686.765625 284.757812 686.976562 284.527344 C 687.65625 287.09375 688.492188 290.214844 688.613281 290.644531 C 689.625 293.964844 691.214844 296.980469 692.605469 298.582031 C 702.773438 310.078125 724.359375 304.84375 746.828125 287.445312 C 759.390625 277.734375 768.699219 267.976562 780.105469 254.703125 C 780.566406 254.148438 780.523438 253.335938 780.269531 252.089844 C 779.617188 249.203125 778.589844 243.980469 778.015625 241.355469 C 778 241.792969 777.84375 242.214844 777.578125 242.5625 C 765.671875 257.089844 752.503906 270.820312 739.917969 280.535156 C 720.339844 295.710938 700.800781 299.5625 691.144531 289.835938 C 687.527344 286.21875 685.554688 281.050781 685.316406 276.664062 C 685.195312 274.289062 683.992188 274.179688 682.851562 275.292969 C 671.3125 286.730469 651.257812 299.394531 632.976562 290.375 C 623.550781 285.714844 618.632812 276.980469 616.867188 267.367188 C 616.878906 267.464844 616.914062 267.585938 616.9375 267.695312 C 618.070312 274.507812 619.550781 284.339844 622.769531 290.414062 Z M 622.769531 290.414062 "/>
<path style=" stroke:none;fill-rule:nonzero;fill:url(#linear10);" d="M 614.707031 228.378906 C 620.71875 225.121094 626.003906 218.214844 625.347656 207.003906 C 624.996094 201.425781 623.386719 195.675781 620.773438 191.039062 C 622.550781 194.421875 623.292969 198.359375 622.664062 202.507812 C 621.511719 209.742188 617.59375 216.121094 610.933594 219.421875 C 605.285156 222.191406 598.691406 221.703125 594.074219 217.582031 C 592.6875 216.304688 591.585938 214.746094 590.839844 213.015625 C 592.027344 218.480469 593.066406 222.496094 594.492188 224.648438 C 598.84375 231.21875 606.386719 232.878906 614.707031 228.378906 Z M 614.707031 228.378906 "/>
<path style=" stroke:none;fill-rule:nonzero;fill:url(#linear11);" d="M 793.589844 133.71875 C 789.800781 140.285156 716.59375 251.796875 711.96875 263.332031 C 710.503906 266.984375 710.332031 269.773438 711.820312 271.785156 C 713.332031 273.808594 715.535156 274.578125 718.039062 274.539062 C 718.292969 273.128906 718.828125 271.542969 719.496094 269.867188 C 724.121094 258.292969 792.679688 154.054688 796.441406 147.457031 C 796.753906 146.894531 796.644531 146.261719 796.542969 145.839844 C 796.324219 144.792969 794.023438 133.710938 793.796875 132.671875 C 793.859375 133.035156 793.785156 133.40625 793.589844 133.71875 Z M 793.589844 133.71875 "/>
<path style=" stroke:none;fill-rule:nonzero;fill:url(#linear12);" d="M 489.757812 185.613281 C 489.972656 185.84375 490.144531 186.078125 490.328125 186.308594 C 494.734375 192.867188 497.136719 202.101562 497.378906 211.640625 C 497.640625 213.648438 498.5 213.699219 499.476562 212.664062 C 500.367188 211.761719 501.234375 210.796875 502.09375 209.867188 C 500.804688 204.746094 498.808594 200.136719 496.753906 195.691406 C 495.988281 194.085938 492.644531 188.339844 489.757812 185.613281 Z M 489.757812 185.613281 "/>
<path style=" stroke:none;fill-rule:nonzero;fill:url(#linear13);" d="M 371.617188 289.839844 C 372.953125 290.515625 374.328125 289.902344 374.992188 289.53125 C 379.457031 287.242188 388.148438 280.554688 391.894531 275.890625 C 393.03125 274.828125 394.121094 275.550781 394.484375 276.679688 C 396.050781 281.640625 398.339844 285.464844 400.910156 289.535156 C 403.707031 294.066406 409.328125 298.765625 416.609375 300.761719 C 426.03125 303.402344 436.199219 303.871094 449.566406 298.765625 C 460.28125 294.660156 471.511719 286.300781 480.148438 276.90625 C 490.511719 265.648438 494.261719 258.4375 498.1875 253.519531 C 504.910156 245.191406 515.375 230.445312 530.042969 217.925781 C 535.171875 213.535156 540.789062 210.691406 544.3125 212.070312 C 546.433594 206.605469 545.429688 203.589844 543.175781 202.140625 C 539.742188 199.90625 532.878906 203.257812 527.085938 207.679688 C 511.292969 219.648438 498.023438 238.289062 491.304688 246.625 C 487.34375 251.53125 483.605469 258.769531 473.257812 270.015625 C 456.984375 287.6875 435.410156 297.847656 414.597656 290.832031 C 403.238281 287.011719 395.015625 277.871094 391.890625 266.644531 C 391.261719 264.480469 390.046875 263.871094 388.867188 265.300781 C 385.507812 269.503906 378.632812 275.679688 372.894531 279.5625 C 372.265625 280.015625 370.710938 280.9375 369.378906 280.273438 C 368.175781 279.726562 363.914062 273.703125 363.078125 271.96875 C 362.972656 271.789062 362.898438 271.59375 362.867188 271.386719 L 362.867188 271.464844 C 364.363281 278.875 364.550781 279.742188 366.578125 283.167969 C 368.875 286.945312 371.109375 289.628906 371.617188 289.839844 Z M 371.617188 289.839844 "/>
<path style=" stroke:none;fill-rule:nonzero;fill:url(#linear14);" d="M 246.121094 223.246094 C 251.375 212.644531 258.769531 207.585938 266.042969 202.984375 C 269.167969 201 270.558594 199.078125 268.695312 193.914062 C 268.167969 192.441406 267.871094 189.785156 267.285156 187.4375 C 267.472656 189.730469 266.339844 191.703125 264.3125 192.761719 C 255.433594 197.292969 244.742188 205.0625 239.46875 215.660156 C 235.179688 224.296875 234.308594 234.746094 240.839844 244.675781 C 241.390625 245.464844 241.984375 246.265625 242.640625 247.003906 L 242.648438 247.003906 C 240.546875 238.761719 242.804688 229.882812 246.121094 223.246094 Z M 246.121094 223.246094 "/>
<path style=" stroke:none;fill-rule:nonzero;fill:url(#linear15);" d="M 337.039062 94.511719 C 369.324219 83.855469 405.316406 90.59375 434.222656 96.78125 C 438.269531 94.257812 441.804688 92.511719 445.351562 90.570312 C 447.117188 89.644531 445.140625 88.539062 444.59375 88.539062 C 407.273438 81.53125 368.492188 72.441406 331.441406 86.167969 C 305.761719 95.757812 294.507812 116.128906 299.9375 129.726562 C 300.976562 132.320312 302.628906 134.339844 304.785156 135.773438 C 302.972656 123.230469 312.371094 102.675781 337.039062 94.511719 Z M 337.039062 94.511719 "/>
<path style=" stroke:none;fill-rule:nonzero;fill:url(#linear16);" d="M 232.027344 289.746094 C 242.609375 297.210938 253.027344 299.683594 265.183594 299.898438 C 289.878906 300.328125 312.433594 290.128906 336.355469 265.84375 C 359.316406 242.527344 379.195312 209.941406 398.792969 177.648438 C 399.441406 176.511719 400.136719 176.003906 403.421875 175.574219 C 415.71875 174.058594 426.734375 173.355469 437.597656 172.335938 C 440.835938 172.03125 443.296875 171.734375 444.484375 172.910156 C 448.40625 176.835938 452.972656 180.425781 455.988281 182.179688 C 457.996094 182.203125 459.679688 182.648438 460.859375 183.699219 C 462.125 183.535156 463.28125 182.828125 464.03125 182.101562 C 465.441406 180.722656 465.496094 179.109375 465.261719 177.742188 C 464.777344 175.058594 464.050781 169.769531 463.191406 168.234375 C 463.785156 169.402344 463.402344 171.054688 462.230469 172.375 C 461.371094 173.359375 460.03125 174.285156 458.320312 174.265625 C 456.90625 174.230469 456.074219 173.746094 454.296875 172.773438 C 450.636719 170.816406 446.113281 167.570312 443.070312 163.742188 C 442.042969 162.457031 441.515625 162.421875 438.925781 162.566406 C 427.3125 163.242188 409.191406 164.984375 396.902344 166.527344 C 393.941406 166.898438 393.496094 167.453125 392.878906 168.46875 C 373.300781 200.78125 352.398438 235.613281 329.445312 258.933594 C 304.832031 283.945312 284.359375 290.511719 262.640625 290.679688 C 237.578125 290.855469 215.277344 276.648438 209.621094 251.683594 L 209.621094 251.699219 C 212.679688 265.644531 221.660156 282.429688 232.027344 289.746094 Z M 232.027344 289.746094 "/>
<path style=" stroke:none;fill-rule:nonzero;fill:url(#linear17);" d="M 324.613281 181.199219 C 324.066406 180.363281 323.765625 179.390625 323.746094 178.390625 C 323.488281 182.578125 325.179688 188.734375 326.53125 190.789062 C 328.019531 193.082031 332.207031 194.207031 335.523438 191.734375 C 343.015625 186.214844 349.777344 183 357.34375 181.566406 C 359.289062 178.902344 361.386719 175.953125 363.792969 172.636719 C 364.003906 172.375 364.058594 172.03125 363.96875 171.859375 C 363.832031 171.558594 363.589844 171.472656 363.105469 171.449219 C 352.011719 171.757812 342.316406 175.078125 332.925781 182.101562 C 330.222656 184.078125 326.320312 183.796875 324.613281 181.199219 Z M 324.613281 181.199219 "/>
<path style=" stroke:none;fill-rule:nonzero;fill:url(#linear18);" d="M 626.578125 105.53125 C 611.058594 114.050781 594.84375 116.625 577.882812 116.773438 C 536.882812 117.109375 498.6875 101.125 459.175781 92.539062 C 459.230469 94.261719 459.679688 96.332031 458.230469 97.421875 C 436.347656 113.566406 416.5625 129.980469 403.304688 153.011719 C 402.863281 153.550781 403.105469 154.046875 403.875 153.992188 C 407.371094 153.832031 410.75 153.675781 414.082031 153.492188 C 426.15625 134.566406 439.070312 123.722656 458.792969 109.15625 C 460.269531 108.039062 461.746094 107.261719 461.261719 103.050781 C 500.898438 111.855469 531.039062 126.4375 582.222656 126.574219 C 597.496094 126.625 619.035156 121.53125 630.621094 114.554688 C 643.9375 106.542969 647.480469 100.648438 647.957031 94.421875 C 648.113281 92.476562 647.597656 89.585938 647.285156 88.097656 C 646.832031 85.988281 646.535156 83.292969 645.933594 81.289062 C 646.136719 82.105469 646.230469 83.027344 646.15625 84.039062 C 645.75 91.203125 640.214844 98.089844 626.578125 105.53125 Z M 626.578125 105.53125 "/>
<path style=" stroke:none;fill-rule:nonzero;fill:url(#linear19);" d="M 455.324219 132.261719 C 454.835938 132.726562 454.289062 133.199219 453.746094 133.695312 C 449.832031 137.75 448.644531 143.113281 449.214844 147.171875 C 449.535156 148.824219 450.171875 149.144531 450.925781 149.003906 C 451.699219 148.832031 452.457031 148.59375 453.191406 148.292969 C 453.46875 146.058594 454.40625 143.886719 456.664062 141.898438 C 458.296875 140.453125 460.34375 139.785156 462.09375 140.074219 C 463.601562 137.082031 464.035156 133.484375 462.195312 131.875 C 460.425781 130.351562 457.605469 130.636719 455.324219 132.261719 Z M 455.324219 132.261719 "/>
<path style=" stroke:none;fill-rule:nonzero;fill:url(#linear20);" d="M 471.089844 146.300781 C 467.332031 153.496094 461.128906 157.332031 455.183594 159.195312 C 455.183594 159.195312 453.933594 159.476562 454.121094 160.617188 C 454.265625 161.894531 458.484375 164.570312 461.121094 166.445312 C 461.503906 166.339844 462.078125 166.128906 462.078125 166.128906 C 465.128906 164.917969 470.21875 161.8125 473.160156 155.371094 C 475.042969 151.214844 476.070312 147.953125 475.25 140.820312 C 474.65625 135.847656 473.652344 131.347656 472.320312 129.023438 C 474.894531 134.234375 473.867188 140.925781 471.089844 146.300781 Z M 471.089844 146.300781 "/>
<path style=" stroke:none;fill-rule:nonzero;fill:url(#linear21);" d="M 360.941406 120.609375 C 350.097656 146.109375 329.382812 166.335938 304.152344 167.171875 C 290.039062 167.644531 279.242188 160.988281 273.5 150.835938 C 277.695312 158.414062 284.792969 165.058594 291.117188 169.042969 C 296.582031 172.449219 303.328125 174.34375 311.039062 174.085938 C 337.332031 173.1875 357.253906 151.507812 363.859375 133.191406 C 365.625 128.253906 364.246094 122.960938 363.433594 119.382812 C 363.101562 118.015625 362.648438 114.894531 361.648438 112.671875 L 361.636719 112.671875 C 362.382812 114.507812 362.382812 117.210938 360.941406 120.609375 Z M 360.941406 120.609375 "/>
<path style=" stroke:none;fill-rule:nonzero;fill:rgb(29.411765%,29.411765%,29.411765%);fill-opacity:1;" d="M 499.980469 0 C 222.582031 0 0.226562 83.191406 0.226562 187.488281 C 0.226562 291.175781 224.421875 375 499.984375 375 C 775.5625 375 999.773438 290.882812 999.773438 187.488281 C 999.765625 84.117188 775.5625 0 499.980469 0 M 3.652344 189.558594 C 3.550781 167.617188 13.21875 145.816406 33.542969 125.292969 C 105.089844 53.085938 292.550781 4.28125 499.152344 3.4375 C 772.839844 2.296875 995.863281 83.945312 996.339844 185.445312 C 996.433594 207.394531 986.195312 228.90625 965.867188 249.410156 C 894.3125 321.632812 707.425781 370.742188 500.84375 371.566406 C 227.160156 372.710938 4.113281 291.070312 3.652344 189.558594 M 996.714844 173.011719 C 996.894531 173.925781 997.019531 174.851562 997.175781 175.742188 C 997.046875 174.855469 996.863281 173.9375 996.714844 173.011719 "/>
<path style=" stroke:none;fill-rule:nonzero;fill:url(#linear22);" d="M 1.734375 187.488281 C 1.734375 192.386719 2.3125 197.25 3.3125 202.042969 C 2.539062 197.929688 2.136719 193.757812 2.101562 189.574219 C 2.003906 167.335938 11.941406 144.890625 32.4375 124.199219 C 104.378906 51.59375 292.03125 2.734375 499.148438 1.867188 C 527.84375 1.738281 555.964844 2.539062 583.375 4.179688 C 555.613281 2.4375 527.800781 1.5625 499.984375 1.5625 C 223.699219 1.5625 1.734375 84.453125 1.734375 187.488281 Z M 1.734375 187.488281 "/>
<path style=" stroke:none;fill-rule:nonzero;fill:url(#linear23);" d="M 966.976562 250.5625 C 895.277344 322.898438 707.675781 372.265625 500.847656 373.125 C 472.222656 373.269531 443.605469 372.492188 415.035156 370.789062 C 442.636719 372.550781 471.039062 373.441406 499.984375 373.441406 C 774.699219 373.441406 998.207031 289.523438 998.207031 187.550781 C 998.207031 183.65625 997.847656 179.796875 997.222656 175.957031 C 997.675781 179.109375 997.871094 182.289062 997.902344 185.484375 C 998.023438 207.726562 987.472656 229.875 966.976562 250.5625 "/>
<path style=" stroke:none;fill-rule:nonzero;fill:rgb(100%,100%,100%);fill-opacity:1;" d="M 499.957031 23.222656 C 239.5 23.222656 28.355469 96.730469 28.355469 187.453125 C 28.355469 278.160156 239.5 351.679688 499.957031 351.679688 C 760.398438 351.679688 971.515625 278.160156 971.515625 187.453125 C 971.515625 96.730469 760.394531 23.222656 499.957031 23.222656 Z M 499.957031 337.453125 C 248.652344 337.453125 44.945312 270.3125 44.945312 187.449219 C 44.945312 104.585938 248.648438 37.453125 499.957031 37.453125 C 751.285156 37.453125 954.964844 104.589844 954.964844 187.449219 C 954.964844 270.316406 751.285156 337.453125 499.957031 337.453125 Z M 499.957031 337.453125 "/>
<path style=" stroke:none;fill-rule:nonzero;fill:rgb(100%,100%,100%);fill-opacity:1;" d="M 793.589844 133.71875 C 794.242188 132.574219 793.570312 131.738281 792.128906 131.738281 C 784.574219 131.738281 774.703125 131.761719 766.863281 131.761719 C 764.988281 131.761719 764.039062 131.96875 763.15625 133.71875 C 760.257812 139.277344 724.957031 192.195312 718.386719 202.464844 C 717.273438 204.03125 715.914062 203.828125 715.757812 202.039062 C 715.109375 195.933594 709.832031 188.894531 701.53125 185.558594 C 695.199219 182.984375 689.015625 182.523438 682.601562 183.382812 C 670.988281 184.941406 660.652344 191.082031 651.554688 197.980469 C 637.84375 208.414062 626.019531 221.917969 610.765625 231.894531 C 602.4375 237.324219 591.019531 242.066406 583.394531 234.992188 C 576.476562 228.585938 577.273438 214.34375 587.824219 203.328125 C 588.929688 202.191406 590.277344 203.132812 590.066406 204.179688 C 589.0625 209.175781 590.28125 214.125 594.0625 217.585938 C 598.6875 221.707031 605.277344 222.195312 610.925781 219.425781 C 617.59375 216.125 621.507812 209.734375 622.652344 202.511719 C 624.421875 191.257812 615.769531 181.351562 604.945312 180.558594 C 596.164062 179.9375 587.738281 183 579.53125 189.78125 C 575.429688 193.199219 573.074219 195.703125 569.519531 200.792969 C 568.644531 202.039062 567.3125 202.167969 567.363281 200.328125 C 567.765625 185.949219 561.824219 177.847656 549.929688 177.59375 C 540.707031 177.355469 530.855469 182.382812 523.167969 188.5 C 514.75 195.25 507.386719 204.238281 499.480469 212.660156 C 498.503906 213.691406 497.644531 213.644531 497.382812 211.632812 C 497.140625 202.089844 494.738281 192.859375 490.332031 186.300781 C 488.753906 184.023438 485.488281 182.894531 482.730469 184.4375 C 481.457031 185.125 477.03125 187.171875 473.785156 189.777344 C 472.199219 191.097656 471.582031 193.003906 472.273438 195.449219 C 476.519531 209.707031 475.589844 225.886719 469.816406 239.574219 C 464.527344 252.078125 454.226562 263.398438 442.105469 267.203125 C 434.140625 269.730469 425.832031 268.492188 420.699219 261.414062 C 413.667969 251.636719 416.488281 234.671875 427.011719 220.5625 C 436.289062 208.128906 449.699219 200.238281 463.074219 195.160156 C 464.652344 194.539062 464.980469 193.535156 464.527344 192.199219 C 463.804688 190 462.644531 187.007812 462.167969 185.648438 C 460.949219 182.390625 457.5 181.839844 453.300781 182.304688 C 443.582031 183.4375 434.816406 186.765625 426.152344 191.40625 C 403.476562 203.558594 392.105469 227.074219 387.113281 239.664062 C 384.722656 245.722656 382.664062 249.480469 380 252.832031 C 376.417969 257.332031 371.941406 261.421875 363.726562 268.632812 C 362.988281 269.300781 362.449219 270.671875 363.066406 271.960938 C 363.902344 273.695312 368.167969 279.71875 369.367188 280.265625 C 370.699219 280.929688 372.253906 280.011719 372.886719 279.558594 C 378.628906 275.671875 385.5 269.496094 388.859375 265.292969 C 390.039062 263.863281 391.25 264.472656 391.882812 266.636719 C 395.011719 277.863281 403.230469 287.003906 414.589844 290.824219 C 435.398438 297.828125 456.96875 287.683594 473.25 270.007812 C 483.597656 258.761719 487.332031 251.523438 491.300781 246.621094 C 498.023438 238.28125 511.289062 219.632812 527.074219 207.675781 C 532.875 203.257812 539.734375 199.894531 543.171875 202.132812 C 545.9375 203.929688 546.835938 208.078125 542.382812 216.164062 C 526.289062 245.597656 502.589844 280.167969 498.230469 288.527344 C 497.445312 289.984375 498.144531 291.140625 499.664062 291.140625 C 508.082031 291.097656 516.449219 291.121094 524.089844 291.121094 C 525.371094 291.0625 525.929688 290.46875 526.570312 289.570312 C 538.9375 270.214844 550.570312 251.796875 563.039062 232.753906 C 563.730469 231.644531 564.375 232.507812 564.40625 232.980469 C 564.652344 237.421875 565.75 243.453125 568.363281 247.425781 C 573.0625 254.761719 579.746094 257.914062 587.15625 257.96875 C 593.050781 258.039062 596.015625 257.140625 602.382812 254.761719 C 606.832031 253.089844 611.035156 250.828125 614.886719 248.039062 C 616.738281 246.75 617.070312 248.921875 617.023438 249.261719 C 614.171875 264.625 617.683594 282.839844 632.953125 290.371094 C 651.238281 299.386719 671.292969 286.722656 682.828125 275.292969 C 683.964844 274.1875 685.167969 274.292969 685.289062 276.664062 C 685.523438 281.054688 687.511719 286.226562 691.117188 289.835938 C 700.78125 299.550781 720.316406 295.703125 739.894531 280.539062 C 752.480469 270.820312 765.644531 257.09375 777.554688 242.5625 C 777.972656 241.996094 778.316406 241.082031 777.46875 240.183594 C 775.667969 238.289062 773.046875 236.121094 771.242188 234.441406 C 770.421875 233.757812 769.226562 233.957031 768.519531 234.480469 C 756.335938 246.066406 745.375 259.3125 729.507812 270.234375 C 724.160156 273.984375 715.640625 276.992188 711.804688 271.8125 C 710.316406 269.800781 710.488281 267 711.953125 263.359375 C 716.59375 251.796875 789.804688 140.289062 793.589844 133.71875 M 696.847656 227.222656 C 697 228.078125 698.105469 228.902344 699.207031 229.300781 C 699.578125 229.453125 699.800781 229.710938 699.355469 230.613281 C 696.257812 237.296875 693.394531 241.132812 689.492188 246.945312 C 685.914062 252.296875 681.859375 256.488281 676.976562 260.507812 C 669.589844 266.617188 659.339844 273.257812 650.863281 268.78125 C 647.101562 266.839844 645.472656 261.570312 645.558594 257.292969 C 645.75 245.289062 651.058594 232.976562 660.90625 220.875 C 672.917969 206.070312 686.207031 198.398438 694.917969 202.582031 C 703.925781 206.886719 701.054688 217.335938 697.023438 225.542969 C 696.710938 226.164062 696.675781 226.710938 696.847656 227.222656 "/>
<path style=" stroke:none;fill-rule:nonzero;fill:rgb(100%,100%,100%);fill-opacity:1;" d="M 262.65625 290.699219 C 235.367188 290.894531 211.335938 274 208.570312 244.800781 C 207.039062 228.617188 211.613281 214.179688 220.769531 202.292969 C 228.886719 191.699219 242.652344 182.90625 254.265625 180.75 C 258.074219 180.0625 263.15625 180.511719 265.269531 183.011719 C 268.5625 186.859375 267.601562 191.085938 264.324219 192.761719 C 255.441406 197.292969 244.753906 205.0625 239.476562 215.660156 C 235.1875 224.296875 234.320312 234.746094 240.851562 244.675781 C 251.828125 261.222656 282.367188 261.6875 310.773438 235.273438 C 317.8125 228.804688 324.105469 222.597656 330.519531 215.257812 C 343.023438 200.929688 347.179688 195.703125 363.8125 172.632812 C 364.023438 172.371094 364.078125 172.027344 363.988281 171.855469 C 363.855469 171.554688 363.613281 171.46875 363.125 171.445312 C 352.03125 171.753906 342.34375 175.074219 332.945312 182.097656 C 330.234375 184.070312 326.335938 183.789062 324.628906 181.191406 C 322.734375 178.25 324.089844 174.417969 327.21875 172.261719 C 342.34375 161.742188 358.882812 159.820312 375.769531 156.960938 C 375.757812 156.960938 376.949219 157.011719 377.90625 155.734375 C 384.835938 146.839844 390.066406 138.8125 397.464844 129.804688 C 404.910156 120.675781 414.519531 112.3125 421.871094 105.992188 C 432.128906 97.164062 438.707031 94.195312 445.390625 90.558594 C 447.15625 89.632812 445.175781 88.53125 444.628906 88.53125 C 407.308594 81.519531 368.523438 72.429688 331.472656 86.15625 C 305.796875 95.746094 294.539062 116.117188 299.96875 129.71875 C 303.804688 139.371094 316.496094 140.933594 328.375 135.125 C 338.75 130 347.550781 122.167969 353.847656 112.460938 C 357.464844 106.886719 365.085938 110.90625 360.96875 120.589844 C 350.125 146.089844 329.410156 166.316406 304.179688 167.152344 C 282.695312 167.863281 268.832031 152.0625 268.886719 132.554688 C 268.960938 94.078125 311.78125 68.738281 356.757812 64.945312 C 410.933594 60.472656 462.246094 74.914062 516.023438 81.4375 C 557.242188 86.421875 596.757812 86.527344 638.175781 77.011719 C 643.066406 75.949219 646.519531 79.070312 646.179688 84.019531 C 645.777344 91.171875 640.234375 98.058594 626.601562 105.503906 C 611.082031 114.027344 594.863281 116.601562 577.90625 116.75 C 536.910156 117.085938 498.710938 101.101562 459.199219 92.511719 C 459.257812 94.238281 459.703125 96.304688 458.253906 97.398438 C 436.371094 113.542969 416.585938 129.957031 403.328125 152.988281 C 402.890625 153.527344 403.128906 154.023438 403.902344 153.96875 C 415.40625 153.363281 425.761719 153.074219 436.492188 152.214844 C 438.363281 152.058594 438.433594 151.59375 438.277344 150.21875 C 437.335938 142.277344 439.644531 133.21875 446.625 126.980469 C 453.765625 120.582031 462.714844 119.855469 468.640625 124.457031 C 475.382812 129.71875 474.789062 139.179688 471.109375 146.273438 C 467.347656 153.46875 461.148438 157.304688 455.199219 159.167969 C 455.199219 159.167969 453.953125 159.449219 454.140625 160.589844 C 454.371094 162.394531 462.480469 166.898438 463.175781 168.097656 C 463.84375 169.226562 463.507812 170.996094 462.257812 172.34375 C 461.398438 173.328125 460.058594 174.253906 458.347656 174.230469 C 456.9375 174.199219 456.101562 173.714844 454.324219 172.742188 C 450.664062 170.78125 446.140625 167.539062 443.097656 163.710938 C 442.074219 162.425781 441.542969 162.390625 438.953125 162.535156 C 427.339844 163.210938 409.21875 164.953125 396.929688 166.496094 C 393.96875 166.867188 393.527344 167.421875 392.90625 168.4375 C 373.328125 200.75 352.425781 235.582031 329.472656 258.902344 C 304.847656 283.953125 284.375 290.519531 262.65625 290.699219 M 449.21875 147.171875 C 449.539062 148.824219 450.175781 149.144531 450.929688 149.003906 C 454.652344 148.257812 458.726562 145.183594 461.152344 141.640625 C 463.359375 138.410156 464.386719 133.75 462.199219 131.875 C 460.246094 130.207031 457.074219 130.691406 454.714844 132.769531 C 450.042969 136.910156 448.625 142.777344 449.21875 147.171875 "/>
</g>
</svg>
