<?xml version="1.0" encoding="UTF-8"?>
<svg xmlns="http://www.w3.org/2000/svg" xmlns:xlink="http://www.w3.org/1999/xlink" width="1000px" height="1000px" viewBox="0 0 1000 1000" version="1.1">
<g id="surface1">
<rect x="0" y="0" width="1000" height="1000" style="fill:rgb(100%,100%,100%);fill-opacity:1;stroke:none;"/>
<path style=" stroke:none;fill-rule:evenodd;fill:rgb(100%,100%,100%);fill-opacity:1;" d="M 837.070312 121.335938 L 837.070312 138.710938 L 499.988281 79.632812 L 162.9375 138.710938 L 162.9375 121.335938 L 499.988281 61.871094 Z M 837.070312 121.335938 "/>
<path style=" stroke:none;fill-rule:evenodd;fill:rgb(20%,64.313728%,34.117648%);fill-opacity:1;" d="M 837.070312 103.566406 L 837.070312 121.335938 L 499.988281 61.871094 L 162.9375 121.335938 L 162.9375 103.566406 L 499.988281 44.117188 Z M 837.070312 103.566406 "/>
<path style=" stroke:none;fill-rule:evenodd;fill:rgb(80.000001%,12.941177%,19.215687%);fill-opacity:1;" d="M 837.070312 138.710938 L 499.988281 79.632812 L 162.9375 138.710938 L 162.941406 198.648438 L 165.863281 196.996094 C 167.050781 196.332031 286.652344 130.019531 500.636719 130.019531 C 714.640625 130.019531 832.84375 196.347656 834.042969 197.003906 L 836.933594 198.664062 Z M 837.070312 138.710938 "/>
<path style=" stroke:none;fill-rule:evenodd;fill:rgb(100%,94.901961%,17.647059%);fill-opacity:1;" d="M 500.644531 141.605469 C 693.882812 141.605469 807.035156 195.984375 825.375 205.519531 L 825.375 378.078125 C 825.375 472.15625 803.21875 565.875 759.546875 656.683594 C 663.953125 855.027344 520.113281 932.910156 499.996094 943.074219 C 479.859375 932.910156 335.910156 855.027344 240.34375 656.683594 C 196.671875 565.875 174.519531 472.15625 174.519531 378.078125 L 174.519531 205.539062 C 193.027344 196.015625 307.367188 141.605469 500.644531 141.605469 Z M 500.644531 141.605469 "/>
<path style=" stroke:none;fill-rule:evenodd;fill:rgb(0%,0%,0%);fill-opacity:1;" d="M 165.867188 196.988281 L 162.945312 198.644531 L 162.945312 378.078125 C 162.945312 473.921875 185.476562 569.339844 229.917969 661.679688 C 334.242188 878.277344 495.980469 954.046875 497.597656 954.789062 L 499.996094 955.882812 L 502.386719 954.789062 C 504.019531 954.046875 665.625 878.253906 769.941406 661.679688 C 814.402344 569.339844 836.9375 473.921875 836.9375 378.078125 L 836.9375 198.660156 L 834.050781 197 C 832.855469 196.339844 714.644531 130.015625 500.644531 130.015625 C 286.65625 130.015625 167.054688 196.324219 165.867188 196.988281 Z M 500.644531 141.605469 C 693.882812 141.605469 807.035156 195.984375 825.375 205.519531 L 825.375 378.078125 C 825.375 472.15625 803.21875 565.875 759.546875 656.683594 C 663.953125 855.027344 520.113281 932.910156 499.996094 943.074219 C 479.859375 932.910156 335.910156 855.027344 240.34375 656.683594 C 196.671875 565.875 174.519531 472.15625 174.519531 378.078125 L 174.519531 205.539062 C 193.027344 196.015625 307.367188 141.605469 500.644531 141.605469 Z M 500.644531 141.605469 "/>
<path style=" stroke:none;fill-rule:evenodd;fill:rgb(0%,0%,0%);fill-opacity:1;" d="M 551.257812 775.855469 C 556.871094 779.738281 552.796875 786.476562 548.640625 787.53125 C 544.316406 788.707031 540.617188 783.902344 538.519531 789.167969 C 537.34375 791.996094 540.539062 813.417969 562.453125 813.417969 C 582.90625 813.417969 592.667969 787.15625 594.589844 783.203125 C 596.527344 779.261719 597.769531 774.226562 595.835938 774.226562 C 586.859375 774.226562 584.246094 779.554688 584.246094 779.554688 C 584.246094 779.554688 583.566406 774.429688 588.027344 770.558594 C 591.707031 767.398438 596.53125 768.167969 598.273438 768.167969 C 601.933594 768.167969 601.355469 765.445312 603.566406 760.054688 C 608.605469 747.371094 612.070312 746.800781 615.34375 741.015625 C 618.054688 736.304688 612.929688 734.457031 602.820312 733.507812 C 592.675781 732.542969 587.246094 732.953125 582.714844 733.613281 C 578.175781 734.261719 573.65625 736.101562 570.839844 743.042969 C 569.332031 746.804688 572.097656 750.507812 577.410156 749.546875 C 582.714844 748.558594 587.824219 744.542969 587.824219 744.542969 C 587.824219 744.542969 585.433594 754.046875 577.511719 756.011719 C 570.167969 757.816406 561.492188 753.386719 562.660156 745.953125 C 564.179688 736.308594 570.847656 729.242188 583.007812 726.863281 C 595.1875 724.40625 607.328125 726.285156 618.15625 728.949219 C 628.945312 731.671875 636.886719 730.019531 646.921875 729.433594 C 668.554688 728.277344 681.960938 723.171875 681.960938 723.171875 C 681.960938 723.171875 672.210938 731.085938 658.699219 734.742188 C 645.183594 738.429688 633.132812 736.902344 629.230469 738.429688 C 626.082031 739.78125 621.628906 746.03125 617.960938 753.175781 C 614.589844 759.742188 611 767.3125 612.550781 767.3125 C 625.117188 767.789062 629.71875 765.039062 629.71875 765.039062 C 629.71875 765.039062 627.234375 770.460938 621.246094 773.023438 C 617.089844 774.703125 610.039062 774.703125 610.039062 774.703125 C 610.039062 774.703125 606.871094 782.730469 603.300781 789.972656 C 599.707031 797.210938 593.816406 808.515625 583.21875 814.105469 C 572.578125 819.6875 552.230469 826.652344 539.417969 808.21875 C 525.863281 788.882812 538.234375 766.886719 551.257812 775.855469 Z M 393.933594 778.378906 C 396.433594 784.78125 391.121094 788.117188 388.035156 788.117188 C 384.9375 788.117188 381.082031 785.816406 380.277344 789.6875 C 379.542969 793.527344 388.5 813.328125 409.347656 813.328125 C 430.203125 813.328125 439.867188 801.261719 438.398438 790.449219 C 436.765625 778.382812 417.59375 773.589844 402.316406 765.554688 C 394.839844 761.632812 377.945312 759.007812 377.945312 743.1875 C 377.945312 709.414062 429.339844 730.988281 429.339844 730.988281 C 429.339844 730.988281 429.449219 726.761719 431.839844 726.566406 C 433 726.457031 435.324219 726 436.09375 729.820312 C 436.859375 733.667969 440.257812 753.953125 440.257812 753.953125 C 440.257812 753.953125 432.703125 738.507812 411.972656 731.765625 C 408.304688 730.476562 392.269531 727.425781 392.363281 740.121094 C 392.554688 747.660156 401.742188 751.042969 417.667969 757.226562 C 438.601562 765.433594 449.324219 773.074219 444.378906 795.082031 C 439.675781 816.214844 419.015625 819.6875 408.972656 819.6875 C 398.949219 819.6875 375.882812 812.660156 375.882812 789.476562 C 375.882812 773.082031 391.96875 773.464844 393.933594 778.378906 Z M 503.757812 651.386719 L 512.195312 655.386719 C 517.0625 657.269531 520.171875 656.441406 521.285156 655.972656 C 522.464844 655.464844 526.921875 650.683594 527.890625 646.609375 C 528.347656 644.949219 528.101562 643.507812 527.222656 642.445312 C 523.9375 638.554688 518.121094 620.679688 515.964844 611.019531 C 515.164062 607.4375 516.132812 597.542969 516.886719 589.578125 C 517.546875 582.742188 517.949219 578.492188 517.609375 577.398438 C 517.03125 575.707031 514.503906 574.074219 511.601562 572.230469 L 507 569.097656 C 504.542969 567.089844 504.4375 564.355469 504.300781 561.417969 L 503.8125 556.859375 C 502.746094 552.617188 481.148438 530.558594 477.800781 530.355469 C 472.949219 530.039062 471.691406 535.359375 471.378906 538.5625 C 471.1875 540.433594 473.351562 548.796875 475.300781 556.210938 L 477.453125 565.148438 C 479.664062 579.203125 494.605469 603.957031 500.976562 614.519531 L 504 619.652344 C 505.308594 622.632812 504.796875 624.980469 502.476562 626.300781 C 500.21875 627.597656 480.800781 625.566406 471.523438 623.429688 C 467.539062 622.519531 462.621094 620.53125 457.824219 618.585938 C 452.328125 616.394531 447.121094 614.269531 444.109375 614.117188 C 440.597656 613.9375 438.933594 614.648438 437.640625 615.246094 L 435.535156 615.832031 L 433.4375 615.160156 C 430.867188 614.023438 426.058594 611.949219 412.925781 610.761719 C 393.789062 608.964844 392.351562 612.816406 391.574219 614.898438 C 390.625 617.542969 402.320312 629.984375 404.414062 631.648438 C 407.074219 633.796875 415.679688 637.070312 420.9375 636.199219 C 426.945312 635.234375 436.738281 634.019531 437.953125 634.261719 L 439.925781 635.464844 L 441.753906 636.761719 C 443.414062 637.441406 454.113281 638.03125 457.34375 638.199219 C 461.074219 638.402344 470.871094 640.429688 478.027344 641.929688 L 486.027344 643.542969 C 489.164062 644.121094 497.234375 648.105469 503.757812 651.386719 Z M 503.757812 651.386719 "/>
<path style=" stroke:none;fill-rule:evenodd;fill:rgb(0%,0%,0%);fill-opacity:1;" d="M 701.738281 403.183594 C 701.3125 402.660156 700.957031 402.628906 700.734375 402.683594 C 700.535156 402.753906 700.257812 402.945312 700.179688 403.566406 C 699.828125 406.234375 696.480469 413.085938 693.824219 414.097656 C 688.445312 416.179688 685.660156 422.488281 683.640625 427.085938 C 682.609375 429.453125 681.601562 431.714844 680.804688 431.746094 C 680.460938 431.773438 680.082031 431.40625 679.667969 430.636719 C 676.351562 424.921875 678.210938 416.179688 679.699219 409.132812 L 680.042969 407.40625 C 681.253906 401.464844 688.207031 393.144531 692.363281 388.152344 L 694.199219 385.945312 C 697.027344 382.417969 697.738281 370.464844 697.207031 369.566406 C 697.035156 369.515625 696.921875 369.613281 696.855469 369.714844 L 696.632812 369.890625 L 696.632812 369.953125 C 696.460938 370.140625 696.316406 370.164062 696.175781 370.765625 C 695.433594 374.5 688.605469 382.089844 676.945312 392.175781 C 674.550781 394.246094 671.828125 397.984375 669.597656 400.988281 C 668.160156 402.960938 666.476562 405.234375 666.027344 405.339844 C 663.140625 389.921875 668.367188 381.109375 670.851562 376.847656 L 672.011719 374.6875 C 676.945312 361.261719 689.648438 351.089844 689.785156 351 C 689.957031 350.609375 689.957031 350.195312 689.644531 349.929688 C 689.15625 349.554688 688.265625 349.714844 686.859375 350.421875 L 686.089844 350.804688 C 681.660156 352.960938 668.296875 359.46875 660.097656 375.148438 C 654.210938 386.4375 651.933594 399.054688 651.933594 408.566406 C 651.933594 413.425781 652.519531 417.449219 653.515625 420.117188 C 656.394531 427.792969 661.4375 446.875 662.988281 454.367188 C 663.953125 459.011719 664.105469 474.953125 664.105469 484.945312 C 664.105469 489.828125 664.082031 493.246094 664.082031 493.375 C 664.050781 493.375 661.542969 501.480469 661.542969 501.480469 C 661.53125 501.5625 660.316406 507.890625 649.972656 518.46875 C 639.554688 529.109375 627.953125 532.492188 627.851562 532.535156 C 623.191406 532.898438 618.941406 532.703125 618.792969 532.097656 C 618.792969 519.9375 597.96875 491.648438 587.3125 482.3125 C 576.4375 472.785156 567.75 465.957031 552.984375 456.972656 C 537.949219 447.820312 521.230469 409.457031 521.035156 409.082031 L 519.589844 403.898438 C 519.589844 403.898438 518.78125 393.550781 518.558594 390.855469 C 519.101562 391.167969 519.8125 391.609375 519.8125 391.609375 L 524.9375 394.59375 L 530.828125 396.855469 C 530.878906 396.871094 538.535156 398.367188 538.535156 398.367188 C 538.535156 398.382812 542.820312 400.578125 542.820312 400.578125 L 546.792969 403.164062 L 552.972656 407.625 L 559.320312 410.960938 C 559.449219 410.996094 566.941406 411.378906 566.941406 411.378906 L 567.109375 410.761719 C 567.109375 410.761719 558.4375 406.691406 558.414062 406.691406 C 558.414062 406.566406 555.292969 401.222656 555.292969 401.222656 C 554.078125 399.480469 552.867188 397.734375 551.65625 395.988281 C 551.535156 395.90625 547.148438 393.285156 547.148438 393.285156 C 545.289062 393 543.429688 392.738281 541.566406 392.496094 C 541.566406 392.449219 540.472656 391.511719 539.90625 391.003906 C 540.394531 390.714844 541.3125 390.144531 541.3125 390.144531 C 541.3125 390.214844 547.289062 390.902344 547.308594 390.902344 C 547.308594 390.964844 552.625 394.582031 552.625 394.582031 L 558.429688 399.054688 C 558.523438 399.101562 563.925781 401.195312 563.925781 401.195312 L 564.636719 401.476562 L 562.265625 395.308594 C 560.78125 393.886719 559.289062 392.476562 557.789062 391.078125 L 551.210938 385.488281 C 551.15625 385.441406 546.042969 382.804688 546.042969 382.804688 C 545.992188 382.792969 540.53125 380.953125 540.53125 380.953125 C 540.53125 380.941406 534.757812 377.257812 534.757812 377.257812 C 534.757812 377.257812 534.820312 376.863281 534.863281 376.527344 C 535.59375 376.808594 542.855469 379.722656 542.855469 379.722656 C 542.898438 379.730469 549.820312 381.613281 549.820312 381.613281 C 549.808594 381.585938 555.625 383.832031 555.625 383.832031 C 555.605469 383.8125 563.972656 387.894531 563.972656 387.894531 C 564.042969 387.929688 570.976562 389.433594 570.976562 389.433594 C 571.09375 389.441406 579.527344 387.929688 579.527344 387.929688 C 579.632812 387.878906 587.671875 382.285156 587.671875 382.285156 C 587.765625 382.136719 589.242188 378.808594 589.242188 378.808594 L 589.558594 378.042969 L 586.976562 379.113281 C 586.953125 379.113281 579.679688 382.804688 579.671875 382.804688 L 574.632812 383.929688 C 574.632812 383.90625 568.949219 382.789062 568.9375 382.789062 L 568.949219 382.789062 C 568.949219 382.722656 564.335938 378.433594 564.335938 378.433594 L 557.789062 372.09375 L 551.867188 369.0625 C 551.785156 369.027344 544.863281 367.90625 544.863281 367.90625 C 544.863281 367.890625 540.652344 365.746094 540.578125 365.710938 C 540.601562 365.710938 540.609375 365.632812 540.609375 365.523438 C 540.609375 365.015625 540.480469 363.90625 540.429688 363.386719 L 549.132812 364.117188 L 558.671875 363.351562 C 558.671875 363.375 564.039062 364.472656 564.039062 364.472656 L 569.472656 366.710938 L 575.03125 367.464844 L 576.035156 367.597656 L 569.835938 361.667969 C 569.773438 361.636719 563.582031 357.167969 563.582031 357.167969 C 563.511719 357.128906 558.394531 355.257812 558.394531 355.257812 C 558.300781 355.238281 549.773438 354.515625 549.601562 354.5 C 549.675781 354.496094 549.683594 354.347656 549.683594 354.136719 C 549.683594 353.617188 549.601562 352.882812 549.554688 352.503906 L 553.585938 351.816406 C 553.585938 351.84375 560.039062 353.296875 560.039062 353.296875 C 560.039062 353.316406 566.152344 356.984375 566.152344 356.984375 L 572.753906 359.242188 C 572.945312 359.246094 582.398438 357.761719 582.398438 357.761719 L 582.964844 357.683594 L 580.085938 353.882812 C 579.925781 353.757812 575.171875 352.28125 575.164062 352.28125 C 575.164062 352.253906 571.242188 349.355469 571.242188 349.355469 L 565.394531 345.246094 C 565.3125 345.199219 560.949219 343.714844 560.949219 343.714844 C 560.875 343.6875 553.996094 342.589844 553.976562 342.582031 C 553.976562 342.511719 550.59375 339.398438 550.519531 339.347656 C 550.625 339.324219 550.835938 338.242188 550.914062 337.75 L 554.550781 338.765625 L 559.230469 340.996094 L 565.875 343.101562 L 564.40625 340.171875 L 561.824219 337.472656 L 559.5625 334.558594 L 560.542969 334.3125 C 560.542969 334.402344 567.613281 338.007812 567.613281 338.007812 L 573.125 339.886719 C 573.125 339.917969 577.378906 343.90625 577.378906 343.90625 C 577.441406 343.957031 585.492188 348.503906 585.492188 348.503906 L 586.300781 348.960938 L 584.832031 345.027344 C 584.792969 344.9375 580.421875 339.351562 580.421875 339.351562 L 576.785156 333.0625 C 576.753906 332.992188 570.171875 326.292969 570.171875 326.292969 C 570.109375 326.230469 561.730469 321.753906 561.710938 321.753906 C 561.710938 321.71875 558.519531 318.101562 558.519531 318.101562 C 556.566406 316.113281 554.617188 314.125 552.671875 312.128906 C 552.671875 312.050781 552.078125 310.007812 551.769531 308.972656 C 552.761719 309.289062 557.445312 310.84375 557.445312 310.84375 L 564.003906 312.695312 C 564.003906 312.710938 568.683594 315.628906 568.683594 315.628906 C 568.683594 315.65625 572.585938 320.394531 572.585938 320.394531 C 572.722656 320.503906 578.9375 323.117188 578.9375 323.117188 L 594.777344 325.171875 L 595.703125 325.285156 L 591.355469 320.710938 C 591.246094 320.628906 582.851562 316.898438 582.851562 316.898438 L 577.8125 313.226562 C 577.8125 313.15625 574.996094 308.105469 574.996094 308.105469 L 572.058594 302.894531 C 572.007812 302.816406 567.265625 298.351562 567.265625 298.351562 C 567.195312 298.300781 561.355469 294.949219 561.355469 294.949219 L 555.582031 290.144531 C 555.582031 290.097656 554.191406 287.21875 553.304688 285.296875 L 557.316406 289.164062 L 564.980469 295.871094 C 565.070312 295.929688 570.917969 298.539062 570.917969 298.539062 L 575.925781 302.585938 L 581.742188 308.519531 C 581.941406 308.613281 591.03125 309.894531 591.03125 309.894531 L 592.167969 310.058594 L 582.9375 302.066406 C 582.9375 301.921875 580.855469 295.511719 580.855469 295.511719 C 579.257812 293.960938 577.644531 292.421875 576.019531 290.902344 L 573.507812 287.949219 C 573.507812 287.871094 571.007812 280.25 571.007812 280.25 C 569.289062 278.460938 567.554688 276.683594 565.808594 274.921875 C 565.808594 274.882812 557.472656 267.105469 557.449219 267.074219 L 557.449219 267.058594 C 557.449219 266.9375 557.15625 265.75 556.984375 264.96875 C 557.621094 265.289062 558.492188 265.75 558.492188 265.75 L 566.144531 270.207031 C 566.21875 270.242188 575.328125 272.847656 575.328125 272.847656 L 584.832031 275.097656 L 595.816406 276.851562 L 593.230469 271.628906 C 593.050781 271.460938 587.585938 269.238281 587.585938 269.238281 L 582.519531 266.28125 C 582.46875 266.265625 576.277344 263.648438 576.277344 263.648438 L 570.824219 261.417969 C 570.824219 261.367188 567.289062 256.800781 565.316406 254.28125 C 567.210938 255.550781 570.128906 257.539062 570.128906 257.539062 C 570.269531 257.585938 575.042969 257.964844 575.042969 257.964844 L 590.011719 257.96875 C 590.011719 258.011719 596.070312 261.285156 596.070312 261.292969 C 596.070312 261.316406 601.238281 266.886719 601.238281 266.886719 L 601.917969 267.617188 L 601.289062 261.332031 C 601.226562 261.148438 597.941406 257.046875 597.941406 257.046875 C 597.847656 256.972656 589.078125 252.128906 589.078125 252.128906 L 582.105469 249.503906 C 582.050781 249.488281 571.546875 247.628906 571.496094 247.628906 L 571.496094 247.613281 C 571.496094 247.515625 569.488281 245.125 569.488281 245.125 C 569.445312 245.101562 561.796875 238.027344 561.796875 238.027344 C 560.5625 237.378906 559.324219 236.742188 558.078125 236.113281 C 558.078125 236.089844 556.910156 234.894531 556.183594 234.136719 L 560.117188 234.136719 C 560.117188 234.199219 566.144531 237.820312 566.144531 237.820312 C 566.199219 237.855469 574.242188 240.449219 574.242188 240.449219 L 584.511719 241.949219 L 584.5 241.949219 C 584.5 242.058594 588.308594 246.320312 588.308594 246.320312 L 593.859375 249.730469 C 595.964844 250.117188 598.074219 250.492188 600.183594 250.855469 L 601.066406 250.996094 L 588.074219 235.078125 C 587.992188 235 581.78125 231.65625 581.78125 231.65625 C 581.730469 231.625 574.445312 229.386719 574.445312 229.386719 C 574.445312 229.3125 568.035156 222.039062 568.035156 222.039062 C 567.960938 221.960938 559.929688 217.128906 559.929688 217.128906 C 557.988281 216.636719 556.042969 216.164062 554.09375 215.707031 C 554.457031 215.121094 555.667969 213.128906 555.667969 213.121094 C 555.6875 213.175781 562.097656 210.277344 562.097656 210.277344 C 562.097656 210.292969 571.5 208.441406 571.5 208.441406 C 571.753906 208.222656 572.464844 205.976562 572.464844 205.976562 C 572.34375 205.597656 568.328125 202.992188 568.328125 202.992188 C 566.726562 202.472656 565.121094 201.960938 563.515625 201.457031 C 563.21875 201.492188 560.679688 202.980469 560.679688 202.992188 C 560.679688 202.945312 552.8125 203.304688 552.8125 203.304688 C 552.8125 203.296875 543.414062 201.089844 543.414062 201.078125 C 543.414062 201.03125 533.726562 192.957031 533.726562 192.957031 C 532.246094 192.195312 530.757812 191.4375 529.269531 190.6875 C 529.160156 190.664062 513.160156 188.792969 513.121094 188.792969 C 513.121094 188.589844 509.359375 182.976562 509.359375 182.976562 L 504.210938 177.355469 C 504.191406 177.324219 497.660156 171.429688 497.660156 171.429688 L 497.457031 171.859375 L 495.269531 176.707031 C 495.277344 176.660156 493.109375 180.011719 493.109375 180.011719 L 493.109375 180.09375 C 493.109375 180.710938 493.417969 183.949219 493.417969 183.949219 C 493.511719 184.148438 495.625 186.320312 495.671875 186.378906 C 495.5625 186.378906 494.875 189.753906 494.875 189.777344 C 494.855469 189.546875 486.097656 189.902344 486.082031 189.902344 C 486.082031 189.863281 478.925781 186.578125 478.925781 186.578125 C 478.878906 186.546875 473.394531 184.691406 473.394531 184.691406 C 473.289062 184.652344 460.53125 185.046875 460.53125 185.046875 C 460.25 185.191406 458.085938 188.542969 458.085938 188.542969 L 457.796875 188.984375 L 463.410156 189.792969 C 463.410156 189.816406 464.238281 190.34375 464.703125 190.640625 L 463.265625 191.8125 C 463.265625 191.738281 455.457031 191.382812 455.457031 191.382812 C 455.328125 191.402344 449.832031 193.628906 449.832031 193.628906 L 449.261719 193.871094 L 451.984375 195.703125 C 452.15625 195.765625 463.824219 196.132812 463.824219 196.132812 L 472.488281 198.363281 L 472.488281 198.375 C 472.488281 198.496094 474.136719 200.851562 474.136719 200.851562 C 474.136719 200.851562 475.3125 202.503906 475.75 203.152344 L 472.042969 205.195312 C 472.089844 205.191406 461.5 209.660156 461.5 209.660156 L 439.613281 221.949219 C 439.59375 221.929688 425.199219 224.074219 425.199219 224.074219 C 425.09375 224.113281 419.566406 227.1875 419.566406 227.1875 C 419.449219 227.273438 415.011719 233.417969 415.011719 233.417969 C 414.964844 233.496094 412.453125 241.148438 412.453125 241.148438 C 412.257812 254.148438 412.777344 254.453125 412.960938 254.554688 C 413.394531 254.824219 417.148438 256.953125 420.054688 255.394531 C 423.34375 253.605469 430.382812 251.847656 434.039062 251.070312 C 435.847656 250.699219 436.691406 251.347656 436.84375 252.019531 C 437.039062 252.75 436.496094 253.746094 435.144531 254.113281 L 434.386719 254.335938 C 428.027344 256.066406 421.539062 258.15625 421.75 260.609375 L 422.871094 262.480469 C 425.710938 264.550781 433.085938 263.570312 437.003906 262.683594 L 441.089844 261.539062 C 444.617188 260.464844 448.628906 259.265625 452.054688 259.648438 C 454.03125 259.878906 455.773438 260.730469 457.832031 261.699219 C 460.625 263.046875 463.8125 264.578125 468.570312 264.890625 C 476.503906 265.4375 481.921875 267.042969 482.34375 267.507812 C 483.410156 269.671875 482.722656 272.875 482.191406 275.445312 L 481.78125 277.777344 C 479.558594 297.910156 457.082031 320.675781 446.25 331.59375 C 443.320312 334.550781 441.386719 336.503906 440.972656 337.316406 L 439.726562 340.195312 C 438.671875 342.867188 437.816406 345.171875 434.382812 346.550781 C 432.394531 347.324219 427.761719 350.8125 422.390625 354.835938 C 414.628906 360.625 405.003906 367.828125 402.351562 367.515625 C 397.917969 366.992188 377.203125 352.730469 376.332031 351.855469 C 356.15625 332.332031 347.714844 336.335938 342.660156 338.722656 L 341.863281 339.097656 C 335.84375 341.835938 329.527344 358.882812 328.953125 362.542969 L 326.515625 373.042969 L 324.644531 380.757812 C 324.089844 383.367188 321.601562 389.777344 319.234375 395.972656 L 314.367188 409.460938 C 313.5625 412.582031 311.613281 416.972656 310.023438 420.519531 L 307.871094 425.777344 C 306.371094 431.945312 306.347656 465.730469 308.957031 468.71875 L 309.070312 468.839844 L 309.582031 468.992188 C 312.203125 468.722656 317.828125 462.925781 320.523438 460.132812 L 321.148438 459.484375 C 323.429688 457.1875 325.851562 451.066406 325.851562 448.496094 C 325.851562 445.972656 324.675781 440.703125 324.207031 439.265625 C 320.554688 428.109375 321.933594 417.480469 322.597656 412.386719 L 322.863281 410.113281 C 323.054688 407.75 325.425781 405.128906 327.730469 402.617188 L 330.640625 399.25 C 332.238281 397.125 334.011719 396.417969 335.59375 395.789062 L 338.195312 394.308594 L 338.597656 393.886719 C 340.320312 392.160156 343.210938 389.242188 344.476562 385.34375 L 346.945312 374.660156 L 347.484375 371.808594 C 347.609375 371.234375 347.902344 370.917969 348.382812 370.816406 C 349.363281 370.597656 350.832031 371.375 351.460938 372.210938 L 369.316406 392.933594 C 373.890625 396.828125 378.59375 401.476562 378.59375 402.5 L 378.585938 402.585938 C 378.585938 402.570312 378.476562 402.59375 378.476562 402.59375 C 375.976562 402.851562 363.398438 400.167969 361.304688 399.574219 C 344.210938 394.5625 336.410156 395.441406 330.390625 402.976562 C 323.535156 411.601562 325.691406 438.023438 327.09375 440.921875 C 328.378906 443.546875 334.636719 475.734375 334.914062 480.027344 C 335.195312 484.234375 336.824219 491.757812 338.527344 493.484375 L 338.992188 493.960938 C 341.101562 496.046875 346.652344 501.625 347.632812 507.121094 C 348.691406 513.109375 361.40625 529.140625 366.253906 530.578125 C 366.992188 530.792969 367.789062 530.636719 368.394531 530.164062 C 372.09375 527.539062 373.773438 514.707031 373.976562 509.292969 C 374.214844 502.542969 371.792969 499.277344 369.21875 495.789062 L 368.230469 494.421875 C 366.339844 491.839844 363.003906 490.902344 360.804688 490.28125 C 359.863281 490.019531 358.578125 489.707031 358.578125 489.417969 C 358.578125 489.316406 358.316406 479.429688 355.164062 477.519531 C 352.710938 476.011719 350.199219 466.46875 349.902344 462.839844 C 349.617188 459.234375 348.222656 450.527344 346.351562 446.703125 C 344.457031 442.867188 342.863281 435.789062 343.671875 430.332031 C 344.011719 427.988281 345.679688 427.25 347.039062 427.039062 C 349.382812 426.664062 352.09375 427.675781 352.511719 428.496094 C 353.445312 430.375 371.476562 441.246094 377.554688 443.582031 C 381.332031 445.011719 386.441406 449.328125 390.957031 453.179688 C 394.167969 455.871094 396.925781 458.191406 398.648438 459.015625 C 400.972656 460.136719 407.5625 460.265625 412.855469 460.371094 C 415.660156 460.417969 418.574219 460.484375 418.96875 460.71875 C 416.824219 461.578125 416.847656 465.34375 417.023438 466.558594 C 419.21875 482.136719 475.898438 524.933594 480.28125 527.335938 C 485.355469 530.058594 503.554688 549.0625 505.144531 551.644531 C 506.796875 554.199219 508.398438 556.972656 508.09375 559.109375 C 507.65625 562.269531 508.921875 565.882812 511.453125 568.828125 C 513.878906 571.574219 517.035156 573.226562 519.957031 573.226562 C 522.488281 573.226562 524.179688 570.953125 525.429688 569.316406 L 525.695312 568.972656 C 529.078125 564.496094 534.09375 557.9375 534.742188 547.683594 C 535.433594 537.167969 540.238281 532.988281 541.804688 532.714844 C 542.503906 532.585938 543.019531 532.796875 543.203125 533.257812 C 543.398438 533.738281 543.164062 534.535156 542.214844 535.164062 C 540.140625 536.570312 538.84375 541.222656 537.421875 546.199219 C 537.410156 546.238281 536.890625 551.277344 536.890625 551.277344 C 536.773438 555.039062 536.625 559.304688 532.871094 563.4375 C 527.246094 569.527344 520.792969 583.570312 519.121094 601.304688 C 518.109375 611.984375 522.921875 627.375 533.410156 646.984375 L 534.140625 648.382812 L 536.980469 653.148438 C 539.847656 657.757812 544.640625 665.425781 544.417969 667.222656 C 544.113281 669.753906 543.875 671.742188 539.507812 677.222656 C 534.703125 683.253906 517.171875 703.652344 515.460938 703.972656 C 511.972656 703.972656 511.386719 704.417969 508.582031 706.546875 L 505.625 708.796875 C 502.386719 711.097656 501.820312 712.816406 501.277344 714.339844 C 500.875 715.484375 500.5 716.484375 498.992188 717.613281 L 497.867188 718.371094 C 497.632812 718.570312 497 719.464844 489.957031 726.515625 C 481.878906 734.5 478.273438 743.535156 479.519531 752.515625 C 479.917969 755.324219 482.335938 756.304688 489.503906 756.628906 C 496.664062 756.960938 513.078125 745.476562 513.808594 741.734375 L 514.0625 740.308594 C 514.691406 736.9375 515.746094 731.25 517.601562 730.429688 C 519.84375 729.449219 523.683594 725.019531 526.5 721.796875 L 527.042969 721.191406 C 528.542969 719.457031 528.90625 717.738281 529.265625 716.097656 C 529.570312 714.800781 529.851562 713.492188 530.703125 712.300781 C 531.371094 711.429688 532.351562 710.949219 533.488281 710.425781 C 535.667969 709.382812 538.410156 708.054688 540.386719 703.089844 C 542.355469 698.226562 554.089844 689.804688 562.660156 683.679688 C 567.039062 680.566406 570.472656 678.074219 571.292969 676.980469 C 572.417969 675.511719 573.109375 672.683594 573.109375 669.6875 C 573.109375 666.128906 572.152344 662.339844 569.917969 660.234375 C 566.664062 657.214844 563.605469 648.230469 562.691406 645.410156 L 562.691406 645.347656 C 562.691406 644.183594 562.582031 642.042969 562.40625 638.066406 C 562.382812 637.882812 562.382812 637.691406 562.382812 637.519531 C 562.382812 626.996094 578.03125 616.695312 584.785156 612.261719 L 587.867188 610.132812 C 612.359375 588.53125 617.152344 572.105469 618.0625 567.597656 L 618.558594 562.199219 C 618.710938 558.457031 618.835938 554.894531 621.089844 554.425781 C 621.972656 554.253906 623.441406 554.964844 624.332031 556.03125 C 624.839844 556.605469 625.589844 557.804688 625.089844 559.1875 C 623.976562 562.21875 623.601562 592.675781 623.589844 593.941406 C 623.675781 594.15625 626.226562 597.164062 626.226562 597.164062 L 626.695312 597.710938 L 626.832031 597 C 626.863281 596.644531 628.269531 588.34375 628.269531 585.410156 C 628.269531 582.125 633.550781 568.058594 634.828125 567.816406 C 634.828125 567.859375 634.910156 567.976562 634.910156 567.976562 C 635.527344 569.921875 636.316406 574.726562 636.316406 579.789062 C 636.316406 584.765625 635.566406 589.996094 633.148438 593.023438 C 629.480469 597.5625 626.558594 604.75 624.65625 609.492188 L 622.890625 613.523438 C 622.691406 614.082031 622.605469 614.671875 622.636719 615.265625 C 622.636719 619.125 624.625 627.351562 625.929688 628.882812 C 626.273438 629.246094 626.546875 629.246094 626.742188 629.179688 C 627.164062 629.019531 627.550781 628.46875 627.550781 625.234375 C 627.550781 612.925781 637.894531 603.996094 638.019531 603.929688 C 647.140625 596.691406 649.125 583.269531 649.125 573.046875 C 649.125 565.304688 647.988281 559.394531 647.960938 559.234375 C 646.515625 557.097656 645.058594 554.96875 643.582031 552.855469 C 643.792969 552.957031 644.980469 551.984375 645.375 551.667969 C 645.769531 552.175781 649.925781 557.683594 649.925781 557.683594 C 650.625 558.664062 652.398438 561.523438 652.398438 562.660156 C 652.398438 568.992188 653.375 573.332031 654.070312 576.511719 L 654.242188 577.261719 C 654.972656 580.636719 659.535156 591.410156 659.734375 591.871094 L 660.222656 593.007812 L 660.375 591.773438 C 660.375 591.722656 661.09375 586.089844 660.375 581.269531 C 659.957031 578.566406 660.476562 575.25 661 571.671875 L 661.832031 563.453125 C 661.832031 556.777344 660.878906 552.558594 658.496094 548.71875 L 657.28125 546.878906 C 656.804688 546.125 656.335938 545.390625 656.390625 545.238281 L 657.28125 544.855469 C 676.542969 538.316406 685.507812 524.132812 689.160156 516.28125 C 692.988281 507.957031 693.191406 495.144531 693.191406 492.679688 C 693.191406 489.46875 693.050781 472.816406 690.257812 464.261719 C 688.617188 459.210938 689.140625 453.792969 689.691406 447.9375 L 690.289062 437.921875 C 690.289062 431.066406 693.894531 425.980469 697.390625 421.0625 L 701.554688 414.605469 C 704.277344 409.230469 702.832031 404.527344 701.738281 403.183594 Z M 701.738281 403.183594 "/>
<path style=" stroke:none;fill-rule:evenodd;fill:rgb(0%,0%,0%);fill-opacity:1;" d="M 486.121094 188.679688 C 486.445312 188.699219 490.539062 186.753906 490.539062 186.753906 C 490.71875 186.386719 489.769531 182.511719 489.769531 182.511719 C 486.816406 179.007812 483.847656 175.515625 480.863281 172.035156 L 480.421875 171.523438 L 480.269531 172.164062 L 479.316406 176.363281 C 479.320312 176.320312 476.488281 183.097656 476.488281 183.097656 L 476.359375 183.382812 L 482.324219 186.433594 Z M 486.121094 188.679688 "/>
<path style=" stroke:none;fill-rule:evenodd;fill:rgb(100%,100%,100%);fill-opacity:1;" d="M 487.898438 215.566406 C 488.839844 215.921875 490.265625 215.765625 491.617188 215.164062 C 493.679688 214.191406 494.898438 212.53125 494.375 211.34375 L 493.425781 210.488281 C 492.492188 210.132812 491.066406 210.292969 489.738281 210.902344 C 487.96875 211.691406 486.839844 213.003906 486.839844 214.121094 C 486.839844 214.324219 486.894531 214.539062 486.960938 214.710938 Z M 523.53125 200.859375 L 525.234375 201.777344 C 525.511719 202.375 526.042969 202.8125 526.679688 202.972656 C 527.417969 203.125 528.179688 202.933594 528.757812 202.453125 C 529.214844 202.09375 529.320312 201.425781 529.03125 200.578125 C 528.574219 199.175781 527.105469 197.636719 525.523438 197.636719 C 523.484375 197.636719 521.625 197.871094 521.625 199.375 C 521.628906 200.222656 522.597656 200.542969 523.53125 200.859375 Z M 525.570312 206.871094 C 524.78125 207.453125 524.433594 208.238281 524.65625 209.03125 L 524.820312 209.691406 C 525.019531 210.46875 525.09375 210.628906 525.808594 210.710938 L 527.105469 210.945312 C 528.765625 211.371094 531.390625 210.339844 531.988281 209.011719 C 532.191406 208.578125 532.351562 207.746094 531.222656 206.957031 C 529.273438 205.660156 526.878906 205.9375 525.570312 206.871094 Z M 530.878906 229.964844 C 530.402344 229.734375 530.601562 228.980469 530.972656 227.878906 C 531.265625 226.980469 531.539062 226.121094 531.074219 225.648438 C 530.671875 225.257812 529.949219 225.289062 528.726562 225.746094 C 524.316406 227.335938 523.640625 231.828125 523.152344 235.109375 L 523.003906 236.121094 C 522.75 237.585938 523.5 238.082031 523.96875 238.25 C 525.488281 238.789062 528.234375 237.410156 528.851562 236.355469 C 529.539062 235.21875 533.347656 234.183594 536.125 233.425781 L 537.1875 233.132812 C 538.472656 232.78125 539.132812 232.289062 539.226562 231.621094 C 539.367188 230.742188 538.394531 229.945312 537.535156 229.429688 C 536.734375 228.957031 535.546875 229.296875 534.300781 229.652344 C 533.066406 229.992188 531.738281 230.335938 530.878906 229.964844 Z M 484.269531 231.648438 C 485.246094 231.550781 486.007812 231.171875 486.492188 230.476562 C 487.898438 228.382812 487.96875 225.414062 486.605469 222.722656 C 485.285156 220.152344 483.03125 218.507812 480.726562 218.425781 L 480.757812 218.4375 L 480.253906 218.371094 L 476.011719 218.703125 C 473.769531 219.199219 471.691406 220.855469 471.1875 222.484375 C 470.933594 223.308594 471.078125 224.058594 471.644531 224.625 C 475.046875 228.230469 480.925781 231.90625 484.269531 231.648438 Z M 442.480469 228.238281 C 442.988281 229.488281 445.320312 229.628906 448.738281 228.609375 L 449.492188 228.382812 L 455.617188 225.984375 L 464.492188 220.148438 C 464.753906 219.945312 467.074219 218.203125 466.59375 217.089844 C 466.257812 216.355469 465.101562 216.484375 464.265625 216.640625 C 461.816406 217.089844 459.414062 218.265625 456.855469 219.511719 L 453.246094 221.1875 L 451.652344 221.839844 C 446.160156 224.113281 441.65625 226.152344 442.480469 228.238281 Z M 423.816406 234.730469 C 421.96875 234.730469 421.136719 235.734375 420.464844 236.621094 L 419.640625 237.554688 C 418.21875 238.773438 417.78125 241.71875 417.957031 243.960938 C 418.03125 244.894531 418.296875 246.585938 419.214844 247.125 C 420.972656 248.210938 421.8125 247.449219 423.609375 245.742188 L 425 244.546875 C 426.761719 243.070312 428.8125 241.394531 429.066406 238.816406 C 429.191406 237.726562 428.929688 236.828125 428.324219 236.152344 C 427.246094 234.980469 425.273438 234.730469 423.816406 234.730469 Z M 434.027344 235.546875 C 433.496094 235.433594 433.179688 235.597656 433.015625 235.769531 C 432.480469 236.292969 432.699219 237.414062 432.863281 238.3125 L 432.96875 238.9375 L 432.859375 239.316406 C 432.738281 239.640625 432.605469 240.050781 432.859375 240.398438 C 433.085938 240.746094 433.640625 240.894531 434.585938 240.894531 C 435.785156 240.90625 435.902344 240.78125 436.308594 239.710938 L 436.628906 238.886719 C 436.921875 238.160156 436.925781 237.507812 436.652344 236.988281 C 436.15625 236.074219 434.933594 235.726562 434.027344 235.546875 Z M 443.898438 251.546875 C 445.199219 251.484375 446.222656 250.414062 446.222656 249.109375 C 446.222656 247.808594 445.199219 246.734375 443.898438 246.675781 C 443.257812 246.679688 442.648438 246.9375 442.199219 247.394531 C 441.75 247.851562 441.503906 248.46875 441.511719 249.109375 C 441.511719 250.453125 442.574219 251.546875 443.898438 251.546875 Z M 488.375 245.609375 C 487.675781 245.480469 486.960938 245.75 486.523438 246.304688 C 485.863281 247.074219 481.851562 249.824219 478.921875 251.835938 L 475.140625 254.523438 L 474.832031 254.820312 C 474.363281 255.265625 474.128906 255.539062 474.433594 256.464844 L 474.894531 257.113281 L 475.890625 256.910156 L 477.363281 256.367188 L 479.488281 256.035156 C 481.578125 255.765625 483.867188 255.453125 484.945312 254.347656 L 486.351562 252.050781 L 488.441406 248.691406 C 489.441406 247.585938 489.496094 246.832031 489.355469 246.398438 Z M 492.769531 259.171875 C 492.769531 260.414062 493.386719 260.898438 493.734375 261.070312 C 494.671875 261.570312 496.019531 261.085938 496.824219 259.964844 L 499.542969 257.601562 C 501.015625 256.542969 502.660156 255.347656 504.121094 253.496094 C 505.46875 251.757812 504.886719 250.691406 504.40625 250.234375 C 503.480469 249.332031 501.582031 249.125 500.9375 249.652344 L 500.15625 250.1875 C 498.375 251.34375 494.164062 254.078125 493.105469 257.402344 C 492.894531 257.96875 492.78125 258.566406 492.769531 259.171875 Z M 510.480469 257.832031 C 509.925781 257.023438 508.96875 256.6875 508.257812 257.035156 L 506.34375 258.488281 C 504.996094 259.585938 503.316406 260.984375 501.855469 261.394531 C 498.320312 262.34375 493.519531 263.925781 493.222656 266.351562 L 493.21875 266.667969 C 493.21875 267.339844 493.519531 267.738281 493.8125 267.960938 C 495.15625 269.054688 498.417969 268.40625 500.777344 267.515625 C 504.398438 266.175781 506.597656 264.542969 509.441406 261.957031 C 511.191406 260.367188 511.113281 258.773438 510.480469 257.832031 Z M 496.722656 285.796875 L 495.570312 285.667969 C 492.589844 286.460938 487.507812 295.21875 483.9375 301.746094 L 483.300781 302.875 L 472.601562 322.953125 L 469.246094 329.34375 C 468.871094 329.925781 469.003906 330.777344 469.5625 331.332031 C 470.082031 331.847656 470.988281 332.136719 472.089844 331.441406 C 473.875 330.25 480.382812 323.792969 483.402344 318.71875 L 487.425781 313.171875 C 490.003906 309.804688 492.9375 306.039062 494.660156 301.550781 L 495.269531 300.007812 C 499.351562 289.417969 499.988281 287.800781 496.722656 285.796875 Z M 536.949219 247.203125 C 535.667969 247.175781 534.605469 248.191406 534.578125 249.472656 C 534.578125 250.722656 535.640625 251.738281 536.949219 251.738281 C 538.253906 251.738281 539.296875 250.722656 539.296875 249.472656 C 539.289062 248.859375 539.035156 248.273438 538.59375 247.847656 C 538.152344 247.421875 537.5625 247.191406 536.949219 247.203125 Z M 535.824219 256.660156 C 535.824219 257.917969 536.886719 258.933594 538.195312 258.933594 C 538.800781 258.941406 539.390625 258.703125 539.824219 258.277344 C 540.257812 257.851562 540.507812 257.269531 540.511719 256.660156 C 540.5 255.394531 539.460938 254.378906 538.195312 254.390625 C 536.914062 254.367188 535.855469 255.382812 535.824219 256.660156 Z M 538 261.6875 C 536.523438 261.6875 535.296875 262.667969 535.296875 263.839844 C 535.296875 265.03125 536.523438 266 538 266 C 539.5 266 540.714844 265.035156 540.714844 263.839844 C 540.71875 262.667969 539.5 261.6875 538 261.6875 Z M 537.890625 267.976562 C 536.191406 267.976562 534.832031 269.050781 534.832031 270.371094 C 534.832031 271.683594 536.191406 272.757812 537.890625 272.757812 C 539.59375 272.757812 540.933594 271.679688 540.933594 270.371094 C 540.933594 269.050781 539.59375 267.976562 537.890625 267.976562 Z M 538 275.957031 C 536.128906 275.957031 534.578125 277.070312 534.578125 278.476562 C 534.578125 279.863281 536.128906 280.976562 538 280.976562 C 539.882812 280.976562 541.40625 279.863281 541.40625 278.476562 C 541.40625 277.070312 539.882812 275.957031 538 275.957031 Z M 536.84375 289.328125 C 538.972656 289.144531 540.53125 287.976562 540.414062 286.625 L 539.746094 285.402344 C 539.011719 284.785156 537.738281 284.472656 536.441406 284.59375 C 534.386719 284.78125 532.867188 285.890625 532.867188 287.160156 L 532.875 287.289062 L 533.566406 288.511719 C 534.3125 289.144531 535.53125 289.453125 536.84375 289.328125 Z M 532.195312 296 L 532.1875 295.9375 Z M 536.726562 297.730469 C 539.105469 297.375 540.789062 296.070312 540.59375 294.71875 L 539.894531 293.597656 C 539.066406 292.960938 537.574219 292.707031 536.054688 292.929688 C 533.714844 293.257812 531.992188 294.589844 532.1875 295.9375 L 532.90625 297.054688 C 533.746094 297.699219 535.207031 297.941406 536.726562 297.730469 Z M 532.714844 301.78125 C 532.714844 303.25 534.5 304.421875 536.839844 304.421875 C 539.167969 304.421875 540.933594 303.25 540.933594 301.78125 C 540.933594 300.3125 539.167969 299.15625 536.839844 299.15625 C 534.496094 299.160156 532.714844 300.3125 532.714844 301.78125 Z M 540.007812 310.367188 C 540.007812 308.808594 537.882812 307.621094 535.164062 307.621094 C 532.476562 307.621094 530.347656 308.808594 530.347656 310.367188 C 530.347656 311.914062 532.476562 313.121094 535.164062 313.121094 C 537.882812 313.121094 540.007812 311.914062 540.007812 310.367188 Z M 536.917969 317.613281 C 536.917969 316.09375 535.324219 314.863281 533.398438 314.863281 C 531.445312 314.863281 529.851562 316.09375 529.851562 317.613281 C 529.851562 319.132812 531.445312 320.367188 533.398438 320.367188 C 535.328125 320.367188 536.917969 319.132812 536.917969 317.613281 Z M 535.257812 326.675781 C 535.257812 324.96875 533.574219 323.566406 531.484375 323.566406 C 529.421875 323.566406 527.746094 324.96875 527.746094 326.675781 C 527.746094 328.398438 529.414062 329.785156 531.484375 329.785156 C 533.574219 329.785156 535.257812 328.398438 535.257812 326.675781 Z M 532.195312 335.496094 C 532.195312 333.960938 530.816406 332.742188 529.136719 332.742188 C 527.464844 332.742188 526.054688 333.957031 526.054688 335.496094 C 526.054688 337.007812 527.460938 338.242188 529.136719 338.242188 C 530.816406 338.246094 532.195312 337.007812 532.195312 335.496094 Z M 526.894531 340.714844 C 525.277344 340.714844 523.9375 341.945312 523.9375 343.46875 C 523.9375 344.980469 525.277344 346.210938 526.894531 346.210938 C 528.507812 346.210938 529.832031 344.976562 529.832031 343.46875 C 529.835938 341.945312 528.507812 340.714844 526.894531 340.714844 Z M 524.394531 353.949219 C 526.054688 353.949219 527.464844 352.882812 527.464844 351.558594 C 527.464844 350.234375 526.058594 349.183594 524.394531 349.183594 C 522.722656 349.183594 521.351562 350.242188 521.351562 351.558594 C 521.351562 352.875 522.722656 353.949219 524.394531 353.949219 Z M 521.578125 359.746094 C 523.117188 359.746094 524.382812 358.847656 524.382812 357.714844 C 524.382812 356.589844 523.136719 355.699219 521.578125 355.699219 C 519.964844 355.699219 518.738281 356.585938 518.738281 357.714844 C 518.738281 358.847656 520.003906 359.746094 521.578125 359.746094 Z M 518.84375 365.316406 C 520.3125 365.316406 521.554688 364.410156 521.554688 363.28125 C 521.554688 362.167969 520.3125 361.261719 518.84375 361.261719 C 517.332031 361.261719 516.140625 362.167969 516.140625 363.28125 C 516.132812 364.410156 517.332031 365.316406 518.84375 365.316406 Z M 438.855469 360.382812 L 439.34375 360.476562 L 443.035156 359.8125 C 446.316406 359.085938 451.253906 357.980469 457.328125 357.820312 C 461.769531 357.699219 466.585938 359.253906 470.082031 360.394531 C 473.257812 361.453125 474.839844 361.910156 475.441406 361.253906 C 475.820312 360.824219 475.585938 360.195312 475.378906 359.753906 C 474.421875 357.695312 470.242188 350.925781 456.597656 350.613281 C 447.730469 350.410156 440.503906 356.441406 438.960938 358.988281 C 438.652344 359.507812 438.570312 359.890625 438.726562 360.175781 Z M 489.59375 386.03125 C 490.460938 385.476562 490.832031 384.496094 490.777344 383.089844 C 490.484375 377.570312 489.007812 376.941406 485.960938 376.941406 C 482.875 376.941406 480.644531 380.039062 480.644531 381.648438 C 480.644531 383.15625 481.753906 384.480469 483.90625 385.558594 C 485.125 386.203125 487.933594 387.121094 489.59375 386.03125 Z M 531.453125 453.511719 C 535.855469 455.566406 537.398438 456.296875 538.058594 456.5 C 538.078125 456.5 538.101562 456.5625 538.101562 456.5625 C 538.101562 456.5625 538.132812 456.535156 538.132812 456.523438 C 538.4375 456.617188 538.535156 456.582031 538.609375 456.480469 C 538.566406 456.449219 538.394531 456.1875 538.300781 456.117188 C 538.355469 456.074219 538.40625 455.964844 538.40625 455.964844 C 538.40625 455.964844 538.132812 455.851562 538.109375 455.824219 C 535.199219 452.152344 517.675781 427.234375 513.945312 410.835938 C 513.359375 408.132812 512.667969 405.617188 510.90625 404.609375 C 509.914062 404.054688 508.664062 404.011719 507.144531 404.523438 L 507.132812 404.523438 C 506.78125 404.625 506.527344 404.917969 506.367188 405.339844 C 506.214844 405.804688 506.148438 406.289062 506.171875 406.773438 C 506.171875 412.628906 512.414062 428.753906 514.453125 432.070312 C 525.730469 450.378906 531.242188 453.386719 531.453125 453.511719 Z M 674.703125 460.632812 L 674.035156 460.765625 C 674.054688 460.867188 674.203125 465.761719 674.203125 472.042969 C 674.203125 481.203125 673.886719 493.421875 672.300781 498.910156 C 671.015625 503.355469 665.117188 511.871094 660.351562 518.683594 C 660.351562 518.683594 654.8125 526.992188 654.8125 527.003906 C 654.578125 528.734375 654.992188 529.507812 655.726562 529.992188 C 656.28125 530.375 658.289062 531.359375 661.085938 528.023438 L 664.621094 524.285156 C 669.34375 519.574219 675.210938 513.726562 679.347656 500.820312 C 683.878906 486.652344 674.78125 460.878906 674.703125 460.632812 Z M 527.113281 506.796875 C 527.539062 507.222656 528.226562 507.339844 528.949219 507.082031 C 530.082031 506.6875 530.878906 505.664062 530.976562 504.464844 C 531.148438 502.691406 532.382812 500.3125 534.21875 498.277344 C 536.207031 496.015625 536.050781 492.585938 533.867188 490.515625 L 531.515625 489.578125 C 530.007812 489.628906 528.882812 490.839844 528.820312 490.875 C 528.03125 494.644531 527.261719 498.417969 526.511719 502.195312 L 526.511719 502.183594 C 526.289062 502.8125 526.085938 505.808594 527.113281 506.796875 Z M 603.53125 548.578125 L 603.410156 548.527344 L 603.292969 548.578125 C 603.199219 548.652344 601.226562 549.570312 600.667969 551.496094 C 600.28125 552.792969 601 553.917969 601.558594 554.847656 L 602.21875 556.082031 L 602.503906 558.546875 L 602.949219 562.171875 C 603.175781 562.945312 603.910156 563.457031 604.710938 563.40625 C 605.636719 563.375 606.710938 562.664062 607.0625 561.226562 C 607.539062 559.28125 607.773438 556.648438 607.773438 553.140625 C 607.761719 549.9375 603.710938 548.621094 603.53125 548.578125 Z M 484.925781 519.074219 C 484.660156 518.769531 456.644531 488.367188 450.589844 480.40625 C 444.421875 472.246094 441.476562 471.628906 438.457031 473.296875 C 437.226562 477.851562 444.226562 485.875 450.351562 491.761719 C 458.917969 500.003906 484.21875 519.382812 484.476562 519.574219 Z M 375.121094 429.351562 C 369.445312 425.828125 359.621094 423.871094 359.523438 423.832031 L 359.261719 424.429688 L 370.164062 432.644531 C 371.957031 434.117188 379.890625 439.042969 382.453125 437.027344 C 382.878906 434.472656 380.128906 432.496094 375.121094 429.351562 Z M 372.460938 382.839844 L 373.226562 382.515625 C 374.207031 381.410156 371.953125 378.269531 369.207031 375.734375 C 366.734375 373.453125 364.21875 371.976562 362.898438 372.050781 L 362.152344 372.371094 C 361.925781 374.5 363.886719 377.03125 366.164062 379.15625 C 368.640625 381.441406 371.179688 382.925781 372.460938 382.839844 Z M 401.585938 378.871094 L 400.46875 378.941406 C 398.351562 379.828125 394.992188 385.207031 392.308594 392.019531 C 390.421875 396.828125 388.996094 402.074219 388.996094 405.234375 C 388.996094 406.730469 389.316406 407.75 390.03125 408.050781 L 391.132812 407.980469 C 393.25 407.078125 396.601562 401.6875 399.3125 394.898438 C 401.195312 390.078125 402.609375 384.832031 402.609375 381.667969 C 402.609375 380.179688 402.300781 379.15625 401.585938 378.871094 Z M 349.15625 345.648438 C 346.421875 345.648438 344.242188 346.945312 344.242188 348.585938 C 344.242188 350.214844 346.421875 351.496094 349.15625 351.496094 C 351.933594 351.496094 354.089844 350.214844 354.089844 348.585938 C 354.089844 346.945312 351.933594 345.648438 349.15625 345.648438 Z M 331.71875 381.949219 L 332.570312 381.871094 C 334.050781 381.144531 336.285156 377.125 337.972656 372.109375 C 339.757812 366.769531 340.730469 361.035156 339.003906 360.425781 L 338.167969 360.511719 C 336.664062 361.253906 334.433594 365.265625 332.761719 370.277344 C 330.945312 375.621094 330.027344 381.351562 331.71875 381.949219 Z M 336.285156 409.5625 C 337.738281 407.617188 338.027344 405.429688 336.949219 404.609375 L 335.695312 404.339844 C 334.644531 404.476562 333.394531 405.355469 332.460938 406.660156 C 331.007812 408.605469 330.71875 410.789062 331.792969 411.59375 L 333.054688 411.886719 C 334.097656 411.726562 335.363281 410.855469 336.285156 409.5625 Z M 334.613281 439.808594 L 334.496094 439.738281 L 333.949219 439.679688 C 331.988281 440.136719 333.371094 448.675781 334.382812 453.167969 C 335.816406 459.441406 337.765625 464.503906 339.113281 465.34375 L 339.226562 465.429688 L 339.761719 465.484375 C 341.753906 465.027344 340.34375 456.449219 339.335938 451.996094 C 337.910156 445.6875 335.984375 440.65625 334.613281 439.808594 Z M 314.859375 451.273438 C 313.277344 451.273438 312 452.449219 312 453.910156 C 312 455.300781 313.277344 456.472656 314.859375 456.472656 C 316.429688 456.472656 317.75 455.300781 317.75 453.910156 C 317.753906 452.449219 316.4375 451.273438 314.859375 451.273438 Z M 363.398438 513.261719 C 361.574219 513.25 360.085938 514.710938 360.0625 516.535156 C 360.0625 518.296875 361.5625 519.753906 363.398438 519.753906 C 365.210938 519.789062 366.707031 518.347656 366.75 516.535156 C 366.722656 514.707031 365.226562 513.242188 363.398438 513.261719 Z M 527.484375 599.617188 C 527.589844 599.777344 527.890625 600.320312 528.347656 600.265625 L 528.539062 600.257812 L 528.890625 599.726562 L 531.902344 590.554688 L 534.25 584.445312 L 536.257812 579.796875 C 536.875 578.234375 536.875 577.191406 536.269531 576.582031 C 535.304688 575.703125 533.3125 576.453125 533.066406 576.542969 C 532.90625 576.671875 527.414062 585.84375 527.414062 585.84375 C 526.339844 587.484375 525.933594 589.695312 525.933594 591.964844 C 525.933594 595.203125 526.742188 598.433594 527.484375 599.617188 Z M 541.210938 645.4375 L 541.320312 644.515625 C 541.394531 643.96875 543.042969 631.210938 539.121094 626.285156 C 538.3125 625.203125 537.082031 624.515625 535.738281 624.390625 C 534.5625 624.28125 533.753906 624.625 533.304688 625.367188 C 530.914062 629.277344 540.300781 644.011719 540.714844 644.648438 Z M 563.183594 669.707031 C 562.277344 669.695312 561.40625 670.046875 560.761719 670.679688 C 560.113281 671.308594 559.746094 672.175781 559.738281 673.078125 C 559.738281 674.972656 561.28125 676.441406 563.183594 676.441406 C 565.042969 676.441406 566.550781 674.933594 566.550781 673.074219 C 566.550781 671.214844 565.042969 669.707031 563.183594 669.707031 Z M 511.453125 628.617188 C 509.839844 628.617188 508.464844 629.875 508.464844 631.425781 C 508.464844 633.019531 509.847656 634.242188 511.453125 634.242188 C 513.105469 634.242188 514.433594 633.019531 514.433594 631.425781 C 514.433594 629.875 513.105469 628.617188 511.453125 628.617188 Z M 549.148438 678.371094 L 548.785156 678.289062 C 547.003906 678.289062 540.246094 684.195312 534.488281 690.089844 C 533.980469 690.628906 521.476562 703.453125 523.132812 705.125 L 523.226562 705.226562 L 523.632812 705.3125 C 525.4375 705.3125 532.179688 699.382812 537.90625 693.519531 C 538.449219 692.972656 550.972656 680.195312 549.265625 678.464844 Z M 511.605469 713.042969 C 510.5625 713.042969 508.929688 714.015625 507.46875 715.472656 C 505.726562 717.21875 504.460938 719.628906 505.394531 720.621094 L 505.457031 720.683594 L 505.394531 720.621094 L 506.320312 720.953125 C 507.382812 720.953125 509.023438 720 510.472656 718.507812 C 512.175781 716.746094 513.484375 714.386719 512.511719 713.382812 Z M 495.132812 736.777344 C 493.851562 736.777344 492.042969 737.828125 490.460938 739.433594 C 488.804688 741.09375 487.855469 742.929688 487.855469 744.207031 C 487.855469 744.691406 487.984375 745.085938 488.289062 745.363281 L 489.457031 745.808594 C 490.71875 745.808594 492.582031 744.785156 494.132812 743.171875 C 496.429688 740.824219 497.355469 738.304688 496.3125 737.21875 Z M 409.019531 617.230469 C 406.550781 617.230469 404.542969 618.636719 404.542969 620.410156 C 404.542969 622.175781 406.554688 623.535156 409.019531 623.535156 C 411.511719 623.535156 413.496094 622.175781 413.496094 620.410156 C 413.503906 618.636719 411.511719 617.230469 409.019531 617.230469 Z M 445.492188 619.785156 C 443.738281 619.785156 442.371094 620.726562 442.371094 621.972656 C 442.371094 623.140625 443.738281 624.101562 445.492188 624.101562 C 447.183594 624.101562 448.582031 623.136719 448.582031 621.972656 C 448.582031 620.753906 447.183594 619.785156 445.492188 619.785156 Z M 490.003906 634.679688 L 490.273438 634.261719 C 490.777344 632.167969 480.277344 628.894531 474.664062 627.472656 C 467.921875 625.75 459.914062 624.371094 458.144531 625.433594 L 458.019531 625.515625 L 457.734375 625.953125 C 457.226562 628.070312 467.722656 631.300781 473.34375 632.769531 C 480.078125 634.460938 488.089844 635.796875 489.882812 634.746094 Z M 490.003906 634.679688 "/>
</g>
</svg>
