<?xml version="1.0" encoding="UTF-8"?>
<svg xmlns="http://www.w3.org/2000/svg" xmlns:xlink="http://www.w3.org/1999/xlink" width="1000px" height="439px" viewBox="0 0 999 439" version="1.1">
<g id="surface1">
<path style=" stroke:none;fill-rule:evenodd;fill:rgb(0%,0%,0%);fill-opacity:1;" d="M 477.246094 215.375 L 521.753906 215.375 L 521.753906 226.371094 L 477.246094 226.371094 Z M 482.738281 230.769531 L 516.535156 230.769531 L 516.535156 253.585938 L 482.738281 253.585938 Z M 433.285156 164.246094 L 565.988281 164.246094 L 565.988281 169.742188 L 433.285156 169.742188 Z M 426.140625 174.691406 L 572.859375 174.691406 L 572.859375 180.1875 L 426.140625 180.1875 Z M 425.867188 154.074219 L 572.585938 154.074219 L 572.585938 159.570312 L 425.867188 159.570312 Z M 522.578125 192.011719 C 515.160156 198.609375 515.160156 210.703125 515.160156 210.703125 L 483.5625 210.703125 C 483.5625 210.703125 483.5625 198.609375 476.144531 192.011719 C 470.925781 187.335938 464.605469 186.238281 464.605469 186.238281 C 460.484375 185.414062 460.484375 184.863281 460.484375 184.585938 L 537.691406 184.585938 C 537.691406 184.585938 537.691406 185.414062 533.570312 186.238281 C 534.117188 186.511719 527.800781 187.335938 522.578125 192.011719 Z M 433.835938 184.863281 L 449.769531 184.863281 C 449.769531 194.210938 443.726562 198.609375 433.835938 196.410156 Z M 490.160156 32.566406 C 496.476562 19.921875 497.851562 1.226562 499.5 0.953125 C 501.148438 1.226562 502.246094 20.195312 508.566406 32.566406 C 514.613281 44.386719 527.523438 54.558594 526.699219 55.660156 C 525.875 57.03125 518.734375 53.460938 515.160156 51.808594 C 509.390625 49.0625 504.71875 47.136719 504.71875 47.136719 C 504.71875 47.136719 502.523438 77.101562 509.664062 104.867188 C 515.710938 127.40625 529.996094 148.300781 531.371094 149.949219 L 512.960938 149.949219 L 511.3125 147.199219 C 506.367188 138.402344 502.796875 130.980469 499.5 117.785156 C 495.929688 130.707031 492.355469 138.402344 487.410156 147.199219 L 485.761719 149.949219 L 467.355469 149.949219 C 468.726562 148.027344 483.015625 127.40625 489.058594 104.867188 C 496.476562 77.101562 494.003906 47.136719 494.003906 47.136719 C 494.003906 47.136719 489.335938 49.335938 483.5625 51.808594 C 479.992188 53.460938 472.847656 57.03125 472.023438 55.660156 C 471.476562 54.558594 484.386719 44.386719 490.160156 32.566406 Z M 433.285156 149.949219 C 433.285156 147.75 431.910156 117.238281 425.042969 93.320312 C 417.347656 67.203125 401.414062 51.535156 402.511719 49.886719 C 403.613281 48.511719 416.523438 50.984375 426.140625 57.859375 C 436.582031 65.003906 446.746094 76.824219 445.921875 77.652344 C 445.375 78.199219 442.078125 75.175781 435.484375 72.976562 C 428.886719 70.503906 425.867188 71.054688 425.867188 71.054688 C 425.867188 71.054688 437.132812 89.472656 442.625 109.539062 C 447.296875 126.308594 449.769531 148.027344 449.769531 149.949219 Z M 565.714844 149.949219 C 565.714844 147.75 566.8125 117.238281 573.957031 93.320312 C 581.652344 67.203125 597.585938 51.535156 596.488281 49.886719 C 595.664062 48.511719 582.476562 50.984375 572.859375 57.859375 C 562.417969 65.003906 552.253906 76.824219 553.078125 77.652344 C 553.625 78.199219 556.921875 75.175781 563.242188 72.976562 C 570.113281 70.503906 572.859375 71.054688 572.859375 71.054688 C 572.859375 71.054688 561.59375 89.472656 556.097656 109.539062 C 551.429688 126.308594 548.957031 148.027344 548.957031 149.949219 Z M 565.164062 184.863281 L 549.230469 184.863281 C 549.230469 194.210938 555.273438 198.609375 565.164062 196.410156 Z M 565.164062 184.863281 "/>
<path style=" stroke:none;fill-rule:nonzero;fill:rgb(0%,0%,0%);fill-opacity:1;" d="M 734.6875 348.152344 L 720.675781 384.167969 L 747.601562 384.167969 Z M 712.984375 403.683594 C 710.785156 408.90625 708.3125 415.78125 708.3125 421.277344 C 708.3125 426.777344 713.53125 427.875 717.652344 428.699219 L 724.246094 429.25 L 724.246094 434.472656 L 683.308594 434.472656 L 683.308594 429.523438 C 691.550781 427.875 694.847656 425.953125 698.421875 418.527344 C 699.519531 416.328125 700.617188 413.582031 701.71875 410.28125 L 704.464844 403.410156 L 730.566406 337.433594 L 728.09375 330.285156 L 745.953125 330.285156 L 773.152344 403.410156 L 777.824219 416.054688 C 778.921875 418.804688 780.570312 424.300781 783.042969 426.5 C 784.96875 428.425781 787.988281 428.976562 794.308594 429.25 L 794.308594 434.472656 L 744.855469 434.472656 L 744.855469 429.25 C 753.644531 428.976562 760.238281 428.699219 760.238281 422.925781 C 760.238281 419.628906 758.867188 414.679688 756.941406 410.558594 L 754.46875 403.410156 L 750.347656 391.3125 L 717.378906 391.3125 Z M 605.003906 338.257812 C 601.433594 338.257812 597.585938 338.808594 595.386719 338.808594 L 595.386719 385.816406 L 605.28125 385.816406 C 610.226562 385.816406 614.894531 385.265625 619.566406 383.066406 C 624.789062 380.316406 629.183594 374.542969 629.183594 362.722656 C 629.183594 343.480469 615.171875 338.257812 605.003906 338.257812 Z M 595.386719 403.683594 L 595.386719 413.855469 C 595.386719 427.050781 596.761719 429.523438 606.105469 429.523438 L 613.523438 429.523438 L 613.523438 434.75 L 561.042969 434.75 L 561.042969 429.523438 C 576.429688 430.074219 577.53125 425.953125 577.53125 416.878906 L 577.53125 351.453125 C 577.53125 341.007812 575.882812 341.007812 561.042969 340.183594 L 561.042969 334.957031 C 571.210938 333.859375 584.671875 332.484375 602.257812 332.484375 C 610.226562 332.484375 647.589844 332.484375 647.589844 361.898438 C 647.589844 373.71875 642.097656 381.140625 631.929688 386.089844 C 629.734375 387.191406 627.535156 387.738281 625.886719 388.566406 C 627.808594 390.488281 629.457031 392.136719 631.105469 394.335938 C 632.480469 396.535156 634.128906 399.285156 636.328125 403.960938 L 639.625 411.105469 C 647.316406 426.777344 651.4375 429.800781 659.957031 431.449219 L 659.957031 436.671875 C 645.117188 437.222656 633.304688 431.722656 623.6875 416.878906 C 622.3125 414.957031 619.292969 409.457031 616.269531 403.960938 C 613.523438 398.734375 610.5 393.789062 609.402344 391.863281 L 595.386719 391.863281 Z M 231.339844 348.152344 L 217.328125 384.167969 L 244.253906 384.167969 Z M 209.636719 403.683594 C 207.710938 408.90625 205.238281 415.78125 205.238281 421.277344 C 205.238281 426.777344 210.1875 427.875 214.582031 428.699219 L 220.902344 429.25 L 220.902344 434.472656 L 180.238281 434.472656 L 180.238281 429.523438 C 188.753906 427.875 191.777344 425.953125 195.347656 418.527344 L 198.644531 410.28125 L 201.394531 403.410156 L 227.769531 337.433594 L 225.296875 330.285156 L 243.15625 330.285156 L 270.355469 403.410156 L 275.027344 416.054688 C 276.125 418.804688 277.773438 424.300781 280.246094 426.5 C 282.445312 428.425781 285.191406 428.976562 291.789062 429.25 L 291.789062 434.472656 L 241.78125 434.472656 L 241.78125 429.25 C 250.300781 428.976562 257.167969 428.699219 257.167969 422.925781 C 257.167969 419.628906 255.519531 414.679688 253.871094 410.558594 L 251.398438 403.410156 L 247.003906 391.3125 L 214.308594 391.3125 Z M 981.140625 403.683594 L 981.140625 414.40625 C 981.140625 426.777344 984.4375 428.699219 999 429.523438 L 999 434.75 L 947.070312 434.75 L 947.070312 429.523438 C 959.4375 428.699219 959.710938 428.425781 961.085938 425.953125 C 963.558594 422.101562 963.558594 409.730469 963.558594 404.785156 L 963.558594 353.925781 C 963.558594 341.554688 961.085938 339.90625 946.246094 338.808594 L 946.246094 333.585938 L 998.175781 333.585938 L 998.175781 338.808594 C 981.140625 339.355469 980.867188 341.832031 980.867188 358.601562 L 980.867188 403.683594 Z M 868.765625 403.683594 L 868.765625 415.503906 C 868.765625 422.378906 869.316406 425.402344 871.789062 427.050781 C 873.164062 427.875 874.8125 428.425781 877.285156 428.699219 C 879.757812 428.976562 883.054688 429.25 887.449219 429.25 L 887.449219 434.472656 L 831.675781 434.472656 L 831.675781 429.25 C 836.621094 428.976562 839.917969 428.699219 842.390625 428.699219 C 844.863281 428.152344 846.789062 427.875 847.886719 427.050781 C 850.085938 425.675781 850.632812 422.652344 850.632812 416.605469 L 850.632812 340.183594 L 833.875 340.183594 C 827.28125 340.183594 824.53125 340.730469 822.882812 341.832031 C 821.511719 342.65625 820.6875 343.753906 819.863281 345.953125 C 819.039062 348.152344 818.210938 351.453125 816.289062 357.226562 L 811.34375 357.226562 L 813.542969 330.558594 L 817.664062 330.558594 C 819.3125 333.308594 820.6875 333.585938 823.433594 333.859375 L 892.121094 333.859375 C 899.539062 333.859375 900.363281 333.308594 901.460938 330.558594 L 905.585938 330.558594 L 908.058594 357.226562 L 902.835938 357.226562 C 899.265625 340.457031 895.96875 340.183594 887.449219 340.183594 L 868.765625 340.183594 Z M 468.453125 403.683594 L 468.453125 418.804688 C 468.453125 428.152344 469.003906 428.152344 478.34375 428.152344 L 495.929688 428.152344 C 506.09375 428.152344 511.3125 426.5 515.710938 408.90625 L 521.207031 408.90625 L 518.734375 434.199219 L 434.109375 434.199219 L 434.109375 428.976562 C 449.21875 429.523438 450.320312 425.402344 450.320312 416.328125 L 450.320312 351.179688 C 450.320312 339.90625 447.296875 337.984375 434.109375 338.257812 L 434.109375 333.585938 L 514.335938 333.585938 L 515.4375 356.675781 L 510.214844 356.675781 C 507.46875 341.28125 503.894531 340.183594 492.90625 340.183594 L 468.179688 340.183594 L 468.179688 380.316406 L 492.632812 380.316406 C 500.875 380.316406 503.070312 380.316406 504.445312 367.945312 L 509.941406 367.945312 L 509.941406 399.5625 L 504.445312 399.5625 C 503.894531 386.914062 502.246094 386.367188 490.984375 386.367188 L 468.179688 386.367188 L 468.179688 403.683594 Z M 390.972656 403.683594 C 391.246094 405.332031 391.523438 407.257812 391.523438 408.90625 C 391.523438 424.300781 379.160156 438.046875 359.925781 438.046875 C 356.902344 438.046875 354.980469 437.773438 352.234375 437.496094 C 349.484375 436.949219 345.914062 435.847656 339.867188 434.199219 C 338.769531 433.648438 337.945312 433.648438 337.121094 433.648438 C 335.199219 433.648438 334.648438 434.199219 334.648438 435.847656 L 329.703125 435.847656 L 326.679688 409.730469 L 332.175781 409.730469 C 339.042969 429.523438 353.332031 432 358.003906 432 C 364.320312 432 376.960938 427.875 376.960938 414.679688 C 376.960938 410.28125 375.585938 406.707031 373.113281 403.410156 C 368.992188 397.910156 361.574219 393.511719 351.410156 387.191406 C 330.800781 374.542969 326.957031 365.199219 326.957031 356.125 C 326.957031 341.007812 340.691406 330.011719 354.707031 330.011719 C 360.199219 330.011719 365.144531 330.835938 369.542969 332.484375 C 370.914062 333.035156 375.585938 334.957031 376.410156 334.957031 C 376.960938 334.957031 377.785156 334.410156 379.160156 332.757812 L 384.105469 332.757812 L 386.578125 356.949219 L 381.082031 356.949219 C 376.136719 344.03125 368.167969 336.058594 356.902344 336.058594 C 348.113281 336.058594 341.515625 342.65625 341.515625 350.078125 C 341.515625 354.75 342.890625 357.777344 347.011719 361.625 C 349.210938 363.546875 352.234375 366.023438 356.078125 368.496094 L 370.640625 378.117188 C 375.3125 381.140625 379.707031 384.167969 383.28125 388.289062 C 386.851562 392.6875 389.875 397.636719 390.972656 403.683594 Z M 27.199219 403.683594 L 26.101562 416.054688 C 25.828125 417.15625 25.828125 420.453125 25.828125 422.925781 C 25.828125 429.25 34.617188 429.25 40.113281 429.25 L 40.113281 434.472656 L 0 434.472656 L 0 429.25 C 17.308594 428.425781 17.308594 427.601562 18.683594 410.007812 L 19.234375 403.410156 L 23.628906 349.253906 C 24.179688 339.632812 22.53125 339.632812 9.339844 338.808594 L 9.339844 333.585938 L 43.410156 333.585938 L 73.632812 403.410156 L 75.832031 408.632812 L 78.304688 403.410156 L 108.800781 333.585938 L 142.320312 333.585938 L 142.320312 338.808594 C 138.199219 338.808594 135.726562 338.808594 133.53125 339.082031 C 131.605469 339.632812 130.234375 339.90625 129.410156 340.730469 C 127.761719 342.382812 127.484375 345.953125 128.035156 353.652344 L 131.332031 403.683594 L 131.882812 412.757812 C 132.707031 425.953125 132.980469 430.074219 148.089844 429.523438 L 148.089844 434.75 L 98.910156 434.75 L 98.910156 429.523438 C 102.484375 429.25 107.703125 428.976562 111 427.875 C 113.746094 426.777344 115.394531 425.125 115.394531 421.554688 C 115.394531 420.179688 114.847656 415.503906 114.847656 414.128906 L 114.296875 403.960938 L 111 348.980469 L 86.820312 403.960938 L 73.359375 435.023438 L 68.414062 435.023438 L 55.226562 403.960938 L 31.871094 348.980469 Z M 27.199219 403.683594 "/>
</g>
</svg>
